<svg xmlns="http://www.w3.org/2000/svg" xmlns:xlink="http://www.w3.org/1999/xlink" xmlns:lucid="lucid" width="1100" height="2249.62"><g transform="translate(940 -100)" lucid:page-tab-id="0_0"><path d="M-368 120c48.6 0 88 13.43 88 30s-39.4 30-88 30h-264c-48.6 0-88-13.43-88-30s39.4-30 88-30z" stroke="#5e5e5e" stroke-width="3" fill="#edf5ff"/><use xlink:href="#a" transform="matrix(1,0,0,1,-715,125) translate(14.264259259259271 30.27777777777778)"/><use xlink:href="#b" transform="matrix(1,0,0,1,-715,125) translate(68.46179012345681 30.27777777777778)"/><use xlink:href="#c" transform="matrix(1,0,0,1,-715,125) translate(81.98030864197531 30.27777777777778)"/><use xlink:href="#d" transform="matrix(1,0,0,1,-715,125) translate(111.54820987654321 30.27777777777778)"/><use xlink:href="#e" transform="matrix(1,0,0,1,-715,125) translate(167.04203703703703 30.27777777777778)"/><use xlink:href="#f" transform="matrix(1,0,0,1,-715,125) translate(216.36302469135802 30.27777777777778)"/><use xlink:href="#e" transform="matrix(1,0,0,1,-715,125) translate(287.47413580246916 30.27777777777778)"/><use xlink:href="#g" transform="matrix(1,0,0,1,-715,125) translate(336.79512345679007 30.27777777777778)"/><use xlink:href="#h" transform="matrix(1,0,0,1,-715,125) translate(408.40006172839503 30.27777777777778)"/><path d="M-770 363.17a6 6 0 0 1 6-6h528a6 6 0 0 1 6 6v48a6 6 0 0 1-6 6h-528a6 6 0 0 1-6-6z" stroke="#5e5e5e" stroke-width="3" fill="#fcfcca"/><use xlink:href="#i" transform="matrix(1,0,0,1,-758,369.16671633333294) translate(7.012345679012384 22.40277777777778)"/><use xlink:href="#j" transform="matrix(1,0,0,1,-758,369.16671633333294) translate(323.98765432098764 22.40277777777778)"/><use xlink:href="#e" transform="matrix(1,0,0,1,-758,369.16671633333294) translate(386.8888888888889 22.40277777777778)"/><use xlink:href="#k" transform="matrix(1,0,0,1,-758,369.16671633333294) translate(436.2098765432098 22.40277777777778)"/><path d="M-580 246a6 6 0 0 1 6-6h148a6 6 0 0 1 6 6v50.67a6 6 0 0 1-6 6h-148a6 6 0 0 1-6-6z" stroke="#5e5e5e" stroke-width="3" fill="#fff3d9"/><use xlink:href="#l" transform="matrix(1,0,0,1,-568,252) translate(19.913580246913583 25.09027777777778)"/><use xlink:href="#m" transform="matrix(1,0,0,1,-568,252) translate(55.65432098765432 25.09027777777778)"/><use xlink:href="#n" transform="matrix(1,0,0,1,-568,252) translate(74.17283950617283 25.09027777777778)"/><path d="M-500 182.5V220" stroke="#5e5e5e" stroke-width="2" fill="none"/><path d="M-499 182.53h-2v-1.03h2z" stroke="#5e5e5e" stroke-width=".05" fill="#5e5e5e"/><path d="M-500 235.26l-4.63-14.26h9.26z" stroke="#5e5e5e" stroke-width="2" fill="#5e5e5e"/><path d="M-500 305.17v32" stroke="#5e5e5e" stroke-width="2" fill="none"/><path d="M-499 305.2h-2v-1.03h2z" stroke="#5e5e5e" stroke-width=".05" fill="#5e5e5e"/><path d="M-500 352.43l-4.63-14.26h9.26z" stroke="#5e5e5e" stroke-width="2" fill="#5e5e5e"/><path d="M-500 419.67v41.66" stroke="#5e5e5e" stroke-width="2" fill="none"/><path d="M-499 419.7h-2v-1.03h2z" stroke="#5e5e5e" stroke-width=".05" fill="#5e5e5e"/><path d="M-500 476.6l-4.63-14.27h9.26z" stroke="#5e5e5e" stroke-width="2" fill="#5e5e5e"/><path d="M-580 487.33a6 6 0 0 1 6-6h148a6 6 0 0 1 6 6v48a6 6 0 0 1-6 6h-148a6 6 0 0 1-6-6z" stroke="#5e5e5e" stroke-width="3" fill="#fff3d9"/><use xlink:href="#o" transform="matrix(1,0,0,1,-568,493.33333366666704) translate(8.555555555555557 22.27777777777778)"/><use xlink:href="#p" transform="matrix(1,0,0,1,-568,493.33333366666704) translate(44.2962962962963 22.27777777777778)"/><use xlink:href="#q" transform="matrix(1,0,0,1,-568,493.33333366666704) translate(63.4320987654321 22.27777777777778)"/><use xlink:href="#r" transform="matrix(1,0,0,1,-568,493.33333366666704) translate(106.58024691358024 22.27777777777778)"/><path d="M-259 863h-2v-19.84h2zm0-67.8h-2V765h2z" stroke="#5e5e5e" stroke-width=".05" fill="#5e5e5e"/><path d="M-259 765.02h-2V764h2zm0-4.03h-2 2z" fill="#5e5e5e"/><path d="M-258.98 765.04h-2.04v-1.07h2.04zm-2-1.02v.97h1.96V764zm2-3h-2.04v-.05h2.04z" stroke="#5e5e5e" stroke-width=".05" fill="#5e5e5e"/><path d="M-260 878.25l-4.63-14.26h9.26z" fill="#5e5e5e"/><path d="M-260 881.5l-6-18.5h12zm-3.26-16.5L-260 875l3.26-10.03z" stroke="#5e5e5e" stroke-width=".05" fill="#5e5e5e"/><use xlink:href="#s" transform="matrix(1,0,0,1,-277.22222222222206,795.1934969915609) translate(0.004999999999999005 16)"/><use xlink:href="#t" transform="matrix(1,0,0,1,-325.9722222222221,819.1635757443734) translate(0.0049999999999954525 16)"/><use xlink:href="#u" transform="matrix(1,0,0,1,-325.9722222222221,819.1635757443734) translate(55.39388888888888 16)"/><path d="M-739 863h-2v-18.52h2zm0-66.4h-2V765h2z" stroke="#5e5e5e" stroke-width=".05" fill="#5e5e5e"/><path d="M-739 765.02h-2V764h2zm0-4.03h-2 2z" fill="#5e5e5e"/><path d="M-738.98 765.04H-741v-1.07h2.04zm-2-1.02v.97h1.96V764zm2-3H-741v-.05h2.04z" stroke="#5e5e5e" stroke-width=".05" fill="#5e5e5e"/><path d="M-740 878.25l-4.63-14.26h9.26z" fill="#5e5e5e"/><path d="M-740 881.5l-6-18.5h12zm-3.26-16.5L-740 875l3.26-10.03z" stroke="#5e5e5e" stroke-width=".05" fill="#5e5e5e"/><use xlink:href="#v" transform="matrix(1,0,0,1,-753.2777777777728,796.598191623512) translate(0.005000000000000782 16)"/><use xlink:href="#w" transform="matrix(1,0,0,1,-814.8888888888889,820.4770003666864) translate(0.0049999999999954525 16)"/><use xlink:href="#x" transform="matrix(1,0,0,1,-814.8888888888889,820.4770003666864) translate(73.22722222222221 16)"/><path d="M-744.8 884.6a8 8 0 0 1 9.6 0l70.4 52.8a4.5 4.5 0 0 1 0 7.2l-70.4 52.8a8 8 0 0 1-9.6 0l-70.4-52.8a4.5 4.5 0 0 1 0-7.2z" stroke="#5e5e5e" stroke-width="3" fill="#fff0f0"/><use xlink:href="#y" transform="matrix(1,0,0,1,-815,885.9938181554135) translate(22.906234567901237 59.02777777777778)"/><use xlink:href="#z" transform="matrix(1,0,0,1,-815,885.9938181554135) translate(89.44944444444445 59.02777777777778)"/><use xlink:href="#A" transform="matrix(1,0,0,1,-815,885.9938181554135) translate(114.75808641975308 59.02777777777778)"/><path d="M-264.8 884.6a8 8 0 0 1 9.6 0l70.4 52.8a4.5 4.5 0 0 1 0 7.2l-70.4 52.8a8 8 0 0 1-9.6 0l-70.4-52.8a4.5 4.5 0 0 1 0-7.2z" stroke="#5e5e5e" stroke-width="3" fill="#fff0f0"/><use xlink:href="#y" transform="matrix(1,0,0,1,-335,885.9938181554135) translate(22.906234567901237 59.02777777777778)"/><use xlink:href="#z" transform="matrix(1,0,0,1,-335,885.9938181554135) translate(89.44944444444445 59.02777777777778)"/><use xlink:href="#A" transform="matrix(1,0,0,1,-335,885.9938181554135) translate(114.75808641975308 59.02777777777778)"/><path d="M-429 1494.95l.06.83.2.76.3.72.4.67.5.6.6.5.67.42.73.3.76.18.82.06H-300v2h-124.04l-1.06-.1-1.06-.25-1.02-.42-.94-.57-.83-.7-.72-.85-.57-.93-.42-1-.26-1.08-.08-1.07V1045h2zM-339.5 942h-84.46l-.82.06-.76.18-.73.3-.67.4-.6.52-.5.6-.4.67-.3.72-.2.76-.06.83V1021h-2v-74.04l.08-1.06.26-1.07.42-1.02.57-.92.72-.84.83-.7.94-.6 1.02-.4 1.06-.26 1.06-.1h84.53z" stroke="#5e5e5e" stroke-width=".05" fill="#5e5e5e"/><path d="M-338.5 941l.1 1h-1.13v-2h1.12z" fill="#5e5e5e"/><path d="M-338.48 941l.1 1.02h-1.18v-2.05h1.17zm-1.03-.98v1.95h1.06l-.1-.98.1-.98z" stroke="#5e5e5e" stroke-width=".05" fill="#5e5e5e"/><path d="M-284.74 1501l-14.26 4.63v-9.27z" fill="#5e5e5e"/><path d="M-281.5 1501l-18.5 6V1495zm-16.5 3.25l10.03-3.26-10.03-3.27z" stroke="#5e5e5e" stroke-width=".05" fill="#5e5e5e"/><use xlink:href="#s" transform="matrix(1,0,0,1,-447.22222222222223,1020.9938181554135) translate(0.004999999999999005 16)"/><path d="M-259 1072.33h-2v-24.86h2zm0-48.86h-2v-21.97h2z" stroke="#5e5e5e" stroke-width=".05" fill="#5e5e5e"/><path d="M-260 1000.5l1-.07v1.1h-2v-1.1z" fill="#5e5e5e"/><path d="M-260 1000.47l1.02-.06v1.15h-2.04v-1.14zm-.98 1.03h1.96v-1.04l-.98.06-.98-.06z" stroke="#5e5e5e" stroke-width=".05" fill="#5e5e5e"/><path d="M-260 1087.6l-4.63-14.27h9.26z" fill="#5e5e5e"/><path d="M-260 1090.83l-6-18.5h12zm-3.26-16.5l3.26 10.03 3.26-10.03z" stroke="#5e5e5e" stroke-width=".05" fill="#5e5e5e"/><use xlink:href="#v" transform="matrix(1,0,0,1,-273.27777777777777,1023.4673811345331) translate(0.005000000000000782 16)"/><path d="M-739 1072.33h-2v-26h2zm0-50h-2v-20.83h2z" stroke="#5e5e5e" stroke-width=".05" fill="#5e5e5e"/><path d="M-740 1000.5l1-.07v1.1h-2v-1.1z" fill="#5e5e5e"/><path d="M-740 1000.47l1.02-.06v1.15H-741v-1.14zm-.98 1.03h1.96v-1.04l-.98.06-.98-.06z" stroke="#5e5e5e" stroke-width=".05" fill="#5e5e5e"/><path d="M-740 1087.6l-4.63-14.27h9.26z" fill="#5e5e5e"/><path d="M-740 1090.83l-6-18.5h12zm-3.26-16.5l3.26 10.03 3.26-10.03z" stroke="#5e5e5e" stroke-width=".05" fill="#5e5e5e"/><use xlink:href="#v" transform="matrix(1,0,0,1,-753.2777777777778,1022.327151488747) translate(0.005000000000000782 16)"/><path d="M-852.5 1098.33a6 6 0 0 1 6-6h213a6 6 0 0 1 6 6v48a6 6 0 0 1-6 6h-213a6 6 0 0 1-6-6z" stroke="#5e5e5e" stroke-width="3" fill="#fff3d9"/><use xlink:href="#B" transform="matrix(1,0,0,1,-840.5,1104.3271514887467) translate(7.382716049382708 22.40277777777778)"/><use xlink:href="#C" transform="matrix(1,0,0,1,-840.5,1104.3271514887467) translate(70.28395061728395 22.40277777777778)"/><use xlink:href="#D" transform="matrix(1,0,0,1,-840.5,1104.3271514887467) translate(124.5432098765432 22.40277777777778)"/><use xlink:href="#E" transform="matrix(1,0,0,1,-840.5,1104.3271514887467) translate(143.06172839506172 22.40277777777778)"/><use xlink:href="#D" transform="matrix(1,0,0,1,-840.5,1104.3271514887467) translate(161.58024691358023 22.40277777777778)"/><use xlink:href="#F" transform="matrix(1,0,0,1,-840.5,1104.3271514887467) translate(180.09876543209876 22.40277777777778)"/><path d="M-740 1154.83V1201" stroke="#5e5e5e" stroke-width="2" fill="none"/><path d="M-739 1154.85h-2v-1.02h2z" stroke="#5e5e5e" stroke-width=".05" fill="#5e5e5e"/><path d="M-740 1216.26l-4.63-14.27h9.26z" stroke="#5e5e5e" stroke-width="2" fill="#5e5e5e"/><path d="M-845 1227a6 6 0 0 1 6-6h198a6 6 0 0 1 6 6v48a6 6 0 0 1-6 6h-198a6 6 0 0 1-6-6z" stroke="#5e5e5e" stroke-width="3" fill="#fff3d9"/><use xlink:href="#G" transform="matrix(1,0,0,1,-833,1232.9938181554135) translate(11.024691358024683 22.27777777777778)"/><use xlink:href="#C" transform="matrix(1,0,0,1,-833,1232.9938181554135) translate(76.33333333333331 22.27777777777778)"/><use xlink:href="#D" transform="matrix(1,0,0,1,-833,1232.9938181554135) translate(130.59259259259258 22.27777777777778)"/><use xlink:href="#H" transform="matrix(1,0,0,1,-833,1232.9938181554135) translate(149.11111111111111 22.27777777777778)"/><use xlink:href="#F" transform="matrix(1,0,0,1,-833,1232.9938181554135) translate(161.45679012345678 22.27777777777778)"/><path d="M-740 1283.5v47.5" stroke="#5e5e5e" stroke-width="2" fill="none"/><path d="M-739 1283.52h-2v-1.03h2z" stroke="#5e5e5e" stroke-width=".05" fill="#5e5e5e"/><path d="M-740 1346.26l-4.63-14.27h9.26z" stroke="#5e5e5e" stroke-width="2" fill="#5e5e5e"/><path d="M-845 1357a6 6 0 0 1 6-6h198a6 6 0 0 1 6 6v48a6 6 0 0 1-6 6h-198a6 6 0 0 1-6-6z" stroke="#5e5e5e" stroke-width="3" fill="#fff3d9"/><use xlink:href="#G" transform="matrix(1,0,0,1,-833,1362.9938181554135) translate(14.111111111111114 22.27777777777778)"/><use xlink:href="#C" transform="matrix(1,0,0,1,-833,1362.9938181554135) translate(79.41975308641975 22.27777777777778)"/><use xlink:href="#I" transform="matrix(1,0,0,1,-833,1362.9938181554135) translate(133.679012345679 22.27777777777778)"/><use xlink:href="#H" transform="matrix(1,0,0,1,-833,1362.9938181554135) translate(152.19753086419755 22.27777777777778)"/><use xlink:href="#h" transform="matrix(1,0,0,1,-833,1362.9938181554135) translate(164.54320987654322 22.27777777777778)"/><path d="M-740 1413.5v37.5" stroke="#5e5e5e" stroke-width="2" fill="none"/><path d="M-739 1413.52h-2v-1.03h2z" stroke="#5e5e5e" stroke-width=".05" fill="#5e5e5e"/><path d="M-740 1466.26l-4.63-14.27h9.26z" stroke="#5e5e5e" stroke-width="2" fill="#5e5e5e"/><path d="M-720 1491c0 11.04-8.95 20-20 20s-20-8.96-20-20c0-11.05 8.95-20 20-20s20 8.95 20 20z" stroke="#5e5e5e" stroke-width="3" fill="#fff"/><path d="M-909 1484.95l.07.83.18.76.3.72.4.67.52.6.6.5.66.42.73.3.76.18.82.06H-780v2h-124.04l-1.06-.1-1.06-.25-1.02-.42-.94-.57-.83-.7-.72-.85-.57-.93-.42-1-.26-1.08-.08-1.07v-438.7h2zM-819.5 942h-84.46l-.82.06-.76.18-.73.3-.67.4-.6.52-.5.6-.4.67-.3.72-.2.76-.06.83v75.3h-2v-75.38l.08-1.05.26-1.07.42-1.02.57-.92.72-.84.83-.7.94-.6 1.02-.4 1.06-.26 1.06-.1h84.53z" stroke="#5e5e5e" stroke-width=".05" fill="#5e5e5e"/><path d="M-818.5 941l.1 1h-1.13v-2h1.12z" fill="#5e5e5e"/><path d="M-818.48 941l.1 1.02h-1.18v-2.05h1.17zm-1.03-.98v1.95h1.06l-.1-.98.1-.98z" stroke="#5e5e5e" stroke-width=".05" fill="#5e5e5e"/><path d="M-764.74 1491l-14.26 4.63v-9.27z" fill="#5e5e5e"/><path d="M-761.5 1491l-18.5 6V1485zm-16.5 3.25l10.03-3.26-10.03-3.27z" stroke="#5e5e5e" stroke-width=".05" fill="#5e5e5e"/><use xlink:href="#s" transform="matrix(1,0,0,1,-927.2222222222222,1022.327151488747) translate(0.004999999999999005 16)"/><path d="M-740 1513.5v37.5" stroke="#5e5e5e" stroke-width="2" fill="none"/><path d="M-740.07 1512.5l1.07-.04v1.06h-2v-1.14z" stroke="#5e5e5e" stroke-width=".05" fill="#5e5e5e"/><path d="M-740 1566.26l-4.63-14.27h9.26z" stroke="#5e5e5e" stroke-width="2" fill="#5e5e5e"/><path d="M-850 1577a6 6 0 0 1 6-6h208a6 6 0 0 1 6 6v48a6 6 0 0 1-6 6h-208a6 6 0 0 1-6-6z" stroke="#5e5e5e" stroke-width="3" fill="#fff3d9"/><use xlink:href="#J" transform="matrix(1,0,0,1,-838,1582.9938181554135) translate(7.444444444444429 22.27777777777778)"/><use xlink:href="#K" transform="matrix(1,0,0,1,-838,1582.9938181554135) translate(89.91358024691357 22.27777777777778)"/><use xlink:href="#L" transform="matrix(1,0,0,1,-838,1582.9938181554135) translate(131.82716049382714 22.27777777777778)"/><use xlink:href="#D" transform="matrix(1,0,0,1,-838,1582.9938181554135) translate(156.5185185185185 22.27777777777778)"/><use xlink:href="#F" transform="matrix(1,0,0,1,-838,1582.9938181554135) translate(175.03703703703704 22.27777777777778)"/><path d="M-372.5 1098.33a6 6 0 0 1 6-6h213a6 6 0 0 1 6 6v48a6 6 0 0 1-6 6h-213a6 6 0 0 1-6-6z" stroke="#5e5e5e" stroke-width="3" fill="#fff3d9"/><use xlink:href="#B" transform="matrix(1,0,0,1,-360.5,1104.3271514887467) translate(7.382716049382708 22.40277777777778)"/><use xlink:href="#C" transform="matrix(1,0,0,1,-360.5,1104.3271514887467) translate(70.28395061728395 22.40277777777778)"/><use xlink:href="#I" transform="matrix(1,0,0,1,-360.5,1104.3271514887467) translate(124.5432098765432 22.40277777777778)"/><use xlink:href="#E" transform="matrix(1,0,0,1,-360.5,1104.3271514887467) translate(143.06172839506172 22.40277777777778)"/><use xlink:href="#I" transform="matrix(1,0,0,1,-360.5,1104.3271514887467) translate(161.58024691358023 22.40277777777778)"/><use xlink:href="#F" transform="matrix(1,0,0,1,-360.5,1104.3271514887467) translate(180.09876543209876 22.40277777777778)"/><path d="M-365 1228.5a6 6 0 0 1 6-6h198a6 6 0 0 1 6 6v48a6 6 0 0 1-6 6h-198a6 6 0 0 1-6-6z" stroke="#5e5e5e" stroke-width="3" fill="#fff3d9"/><use xlink:href="#G" transform="matrix(1,0,0,1,-353,1234.4939681554133) translate(11.024691358024683 22.27777777777778)"/><use xlink:href="#C" transform="matrix(1,0,0,1,-353,1234.4939681554133) translate(76.33333333333331 22.27777777777778)"/><use xlink:href="#I" transform="matrix(1,0,0,1,-353,1234.4939681554133) translate(130.59259259259258 22.27777777777778)"/><use xlink:href="#H" transform="matrix(1,0,0,1,-353,1234.4939681554133) translate(149.11111111111111 22.27777777777778)"/><use xlink:href="#F" transform="matrix(1,0,0,1,-353,1234.4939681554133) translate(161.45679012345678 22.27777777777778)"/><path d="M-260 1154.83v47.66" stroke="#5e5e5e" stroke-width="2" fill="none"/><path d="M-259 1154.85h-2v-1.02h2z" stroke="#5e5e5e" stroke-width=".05" fill="#5e5e5e"/><path d="M-260 1217.76l-4.63-14.27h9.26z" stroke="#5e5e5e" stroke-width="2" fill="#5e5e5e"/><path d="M-260 1285v46" stroke="#5e5e5e" stroke-width="2" fill="none"/><path d="M-259 1285.02h-2V1284h2z" stroke="#5e5e5e" stroke-width=".05" fill="#5e5e5e"/><path d="M-260 1346.26l-4.63-14.27h9.26z" stroke="#5e5e5e" stroke-width="2" fill="#5e5e5e"/><path d="M-365 1357a6 6 0 0 1 6-6h198a6 6 0 0 1 6 6v48a6 6 0 0 1-6 6h-198a6 6 0 0 1-6-6z" stroke="#5e5e5e" stroke-width="3" fill="#fff3d9"/><use xlink:href="#G" transform="matrix(1,0,0,1,-353,1362.9938181554135) translate(11.024691358024683 22.27777777777778)"/><use xlink:href="#C" transform="matrix(1,0,0,1,-353,1362.9938181554135) translate(76.33333333333331 22.27777777777778)"/><use xlink:href="#D" transform="matrix(1,0,0,1,-353,1362.9938181554135) translate(130.59259259259258 22.27777777777778)"/><use xlink:href="#H" transform="matrix(1,0,0,1,-353,1362.9938181554135) translate(149.11111111111111 22.27777777777778)"/><use xlink:href="#F" transform="matrix(1,0,0,1,-353,1362.9938181554135) translate(161.45679012345678 22.27777777777778)"/><path d="M-260 1413.5v47.5" stroke="#5e5e5e" stroke-width="2" fill="none"/><path d="M-259 1413.52h-2v-1.03h2z" stroke="#5e5e5e" stroke-width=".05" fill="#5e5e5e"/><path d="M-260 1476.26l-4.63-14.27h9.26z" stroke="#5e5e5e" stroke-width="2" fill="#5e5e5e"/><path d="M-240 1501c0 11.04-8.95 20-20 20s-20-8.96-20-20c0-11.05 8.95-20 20-20s20 8.95 20 20z" stroke="#5e5e5e" stroke-width="3" fill="#fff"/><path d="M-260 1523.5v27.5" stroke="#5e5e5e" stroke-width="2" fill="none"/><path d="M-260.07 1522.5l1.07-.04v1.06h-2v-1.14z" stroke="#5e5e5e" stroke-width=".05" fill="#5e5e5e"/><path d="M-260 1566.26l-4.63-14.27h9.26z" stroke="#5e5e5e" stroke-width="2" fill="#5e5e5e"/><path d="M-390 1577a6 6 0 0 1 6-6h248a6 6 0 0 1 6 6v48a6 6 0 0 1-6 6h-248a6 6 0 0 1-6-6z" stroke="#5e5e5e" stroke-width="3" fill="#fff3d9"/><use xlink:href="#M" transform="matrix(1,0,0,1,-378,1582.9938181554135) translate(8.802469135802454 22.27777777777778)"/><use xlink:href="#N" transform="matrix(1,0,0,1,-378,1582.9938181554135) translate(92.75308641975307 22.27777777777778)"/><use xlink:href="#O" transform="matrix(1,0,0,1,-378,1582.9938181554135) translate(129.79012345679013 22.27777777777778)"/><path d="M-260 1633.5v49.5" stroke="#5e5e5e" stroke-width="2" fill="none"/><path d="M-259 1633.52h-2v-1.03h2z" stroke="#5e5e5e" stroke-width=".05" fill="#5e5e5e"/><path d="M-260 1698.26l-4.63-14.27h9.26z" stroke="#5e5e5e" stroke-width="2" fill="#5e5e5e"/><path d="M-264.8 1704.6a8 8 0 0 1 9.6 0l70.4 52.8a4.5 4.5 0 0 1 0 7.2l-70.4 52.8a8 8 0 0 1-9.6 0l-70.4-52.8a4.5 4.5 0 0 1 0-7.2z" stroke="#5e5e5e" stroke-width="3" fill="#fff0f0"/><g><use xlink:href="#P" transform="matrix(1,0,0,1,-335,1705.9938181554135) translate(27.504999999999992 47.78777777777778)"/><use xlink:href="#Q" transform="matrix(1,0,0,1,-335,1705.9938181554135) translate(46.60993827160494 74.45444444444445)"/><use xlink:href="#R" transform="matrix(1,0,0,1,-335,1705.9938181554135) translate(84.88154320987654 74.45444444444445)"/></g><path d="M-427.64 1762H-450v-2h22.36zm88.13 0h-18.2v-2h18.2z" stroke="#5e5e5e" stroke-width=".05" fill="#5e5e5e"/><path d="M-338.5 1761l.1 1h-1.13v-2h1.12z" fill="#5e5e5e"/><path d="M-338.48 1761l.1 1.02h-1.18v-2.05h1.17zm-1.03-.98v1.95h1.06l-.1-.98.1-.98z" stroke="#5e5e5e" stroke-width=".05" fill="#5e5e5e"/><path d="M-451 1765.63l-14.26-4.64 14.26-4.64z" fill="#5e5e5e"/><path d="M-450 1767l-18.5-6 18.5-6.02zm-12.03-6l10.03 3.25v-6.52z" stroke="#5e5e5e" stroke-width=".05" fill="#5e5e5e"/><g><use xlink:href="#S" transform="matrix(1,0,0,1,-427.63888888888886,1748.9938181554135) translate(0.005000000000002558 16)"/></g><path d="M-502 1721c17.67 0 32 17.9 32 40s-14.33 40-32 40h-96c-17.67 0-32-17.9-32-40s14.33-40 32-40z" stroke="#5e5e5e" stroke-width="3" fill="#edf5ff"/><g><use xlink:href="#T" transform="matrix(1,0,0,1,-625,1725.9938181554135) translate(10.282777777777776 26.52777777777778)"/><use xlink:href="#U" transform="matrix(1,0,0,1,-625,1725.9938181554135) translate(62.01117283950617 26.52777777777778)"/><use xlink:href="#V" transform="matrix(1,0,0,1,-625,1725.9938181554135) translate(54.04820987654321 53.19444444444445)"/></g><path d="M-71.15 1760.08l1.06.25 1.03.42.94.58.83.7.72.85.57.93.4 1.03.27 1.07.08 1.05V1801h-2v-33.97l-.06-.82-.2-.75-.3-.73-.4-.66-.52-.6-.6-.5-.66-.42-.73-.3-.77-.18-.82-.07h-23.84v-2h23.93zm-109.34 1.9v-2h49.97v2z" stroke="#5e5e5e" stroke-width=".05" fill="#5e5e5e"/><path d="M-180.47 1762h-1.12l.1-1-.1-1h1.13z" fill="#5e5e5e"/><path d="M-180.44 1762.02h-1.17l.08-1.03-.1-1.03h1.18zm-1.12-2l.1.97-.1.97h1.07v-1.95z" stroke="#5e5e5e" stroke-width=".05" fill="#5e5e5e"/><path d="M-66.25 1816.26L-70.9 1802h9.3z" fill="#5e5e5e"/><path d="M-66.25 1819.5l-6-18.5h12zm-3.26-16.5l3.25 10.02L-63 1803z" stroke="#5e5e5e" stroke-width=".05" fill="#5e5e5e"/><g><use xlink:href="#W" transform="matrix(1,0,0,1,-130.52777777777783,1748.9938181554135) translate(0.004999999999999005 16)"/></g><path d="M-180 1827a6 6 0 0 1 6-6H41.5a6 6 0 0 1 6 6v48a6 6 0 0 1-6 6H-174a6 6 0 0 1-6-6z" stroke="#5e5e5e" stroke-width="3" fill="#fff3d9"/><g><use xlink:href="#X" transform="matrix(1,0,0,1,-168,1832.9938181554135) translate(15.734567901234556 22.27777777777778)"/><use xlink:href="#Y" transform="matrix(1,0,0,1,-168,1832.9938181554135) translate(64.99382716049382 22.27777777777778)"/><use xlink:href="#Z" transform="matrix(1,0,0,1,-168,1832.9938181554135) translate(117.89506172839505 22.27777777777778)"/></g><path d="M-66.25 1883.5v37.5" stroke="#5e5e5e" stroke-width="2" fill="none"/><path d="M-65.25 1883.52h-2v-1.03h2z" stroke="#5e5e5e" stroke-width=".05" fill="#5e5e5e"/><path d="M-66.25 1936.26L-70.9 1922h9.3z" stroke="#5e5e5e" stroke-width="2" fill="#5e5e5e"/><path d="M-119.38 1947a6 6 0 0 1 6-6h94.25a6 6 0 0 1 6 6v48a6 6 0 0 1-6 6h-94.25a6 6 0 0 1-6-6z" stroke="#5e5e5e" stroke-width="3" fill="#fff3d9"/><g><use xlink:href="#aa" transform="matrix(1,0,0,1,-107.375,1952.9938181554135) translate(4.55555555555555 22.27777777777778)"/><use xlink:href="#I" transform="matrix(1,0,0,1,-107.375,1952.9938181554135) translate(52.58024691358025 22.27777777777778)"/><use xlink:href="#h" transform="matrix(1,0,0,1,-107.375,1952.9938181554135) translate(71.09876543209876 22.27777777777778)"/></g><path d="M-740 1633.5V2170" stroke="#5e5e5e" stroke-width="2" fill="none"/><path d="M-739 1633.52h-2v-1.03h2z" stroke="#5e5e5e" stroke-width=".05" fill="#5e5e5e"/><path d="M-740 2185.26l-4.63-14.26h9.26z" stroke="#5e5e5e" stroke-width="2" fill="#5e5e5e"/><path d="M-66.25 2003.5v37.5" stroke="#5e5e5e" stroke-width="2" fill="none"/><path d="M-65.25 2003.52h-2v-1.03h2z" stroke="#5e5e5e" stroke-width=".05" fill="#5e5e5e"/><path d="M-66.25 2056.26L-70.9 2042h9.3z" stroke="#5e5e5e" stroke-width="2" fill="#5e5e5e"/><path d="M-18.06 2061c17.74 0 32.12 17.97 32.12 40.15s-14.38 40.16-32.12 40.16h-96.38c-17.74 0-32.12-17.97-32.12-40.15s14.38-40.16 32.12-40.16z" stroke="#5e5e5e" stroke-width="3" fill="#edf5ff"/><g><use xlink:href="#T" transform="matrix(1,0,0,1,-141.5625,2065.9938181554135) translate(10.782777777777776 26.65277777777778)"/><use xlink:href="#U" transform="matrix(1,0,0,1,-141.5625,2065.9938181554135) translate(62.51117283950617 26.65277777777778)"/><use xlink:href="#V" transform="matrix(1,0,0,1,-141.5625,2065.9938181554135) translate(54.54820987654321 53.31944444444445)"/></g><path d="M-451.5 2249.62c17.74 0 32.13 17.9 32.13 40s-14.4 40-32.13 40h-96.38c-17.74 0-32.12-17.9-32.12-40s14.38-40 32.13-40z" stroke="#5e5e5e" stroke-width="3" fill="#edf5ff"/><g><use xlink:href="#ab" transform="matrix(1,0,0,1,-575,2254.615692038853) translate(15.037037037037038 39.65277777777778)"/><use xlink:href="#ac" transform="matrix(1,0,0,1,-575,2254.615692038853) translate(58.24691358024692 39.65277777777778)"/></g><path d="M-919.25 762.5a.75.75 0 0 1 .75-.76H77.17a.75.75 0 0 1 .75.75.75.75 0 0 1-.75.74H-918.5a.75.75 0 0 1-.75-.75z" stroke="#5e5e5e" stroke-width="1.5" fill="none"/><path d="M-500 543.83V562" stroke="#5e5e5e" stroke-width="2" fill="none"/><path d="M-499 543.86h-2v-1.03h2z" stroke="#5e5e5e" stroke-width=".05" fill="#5e5e5e"/><path d="M-500 577.26l-4.63-14.26h9.26z" stroke="#5e5e5e" stroke-width="2" fill="#5e5e5e"/><path d="M-504.8 583.6a8 8 0 0 1 9.6 0l70.4 52.8a4.5 4.5 0 0 1 0 7.2l-70.4 52.8a8 8 0 0 1-9.6 0l-70.4-52.8a4.5 4.5 0 0 1 0-7.2z" stroke="#5e5e5e" stroke-width="3" fill="#fff0f0"/><g><use xlink:href="#ad" transform="matrix(1,0,0,1,-575,585) translate(33.67783950617284 59.02777777777778)"/><use xlink:href="#ae" transform="matrix(1,0,0,1,-575,585) translate(71.8877160493827 59.02777777777778)"/><use xlink:href="#A" transform="matrix(1,0,0,1,-575,585) translate(103.98648148148148 59.02777777777778)"/></g><path d="M-500 700.5V742" stroke="#5e5e5e" stroke-width="2" fill="none"/><path d="M-500 699.5l1-.06v1.1h-2v-1.1z" stroke="#5e5e5e" stroke-width=".05" fill="#5e5e5e"/><path d="M-500 757.26l-4.63-14.26h9.26z" stroke="#5e5e5e" stroke-width="2" fill="#5e5e5e"/><path d="M-919.25 2189.23a.75.75 0 0 1 .75-.75H77.17a.75.75 0 0 1 .75.75.75.75 0 0 1-.75.75H-918.5a.75.75 0 0 1-.75-.75z" stroke="#5e5e5e" stroke-width="1.5" fill="none"/><path d="M-500 2191.73v37.88" stroke="#5e5e5e" stroke-width="2" fill="none"/><path d="M-499 2191.76h-2v-1.03h2zm0-4.03h-2 2z" stroke="#5e5e5e" stroke-width=".05" fill="#5e5e5e"/><path d="M-500 2244.88l-4.63-14.27h9.26z" stroke="#5e5e5e" stroke-width="2" fill="#5e5e5e"/><path d="M-80 734a6 6 0 0 1 6-6h208a6 6 0 0 1 6 6v24a6 6 0 0 1-6 6H-74a6 6 0 0 1-6-6z" stroke="#000" stroke-opacity="0" stroke-width="3" fill="#fff" fill-opacity="0"/><g><use xlink:href="#af" transform="matrix(1,0,0,1,-75,732.9876363108269) translate(48.14814814814815 19.46527777777778)"/><use xlink:href="#ag" transform="matrix(1,0,0,1,-75,732.9876363108269) translate(91.2962962962963 19.46527777777778)"/></g><path d="M-80 2160.72a6 6 0 0 1 6-6h208a6 6 0 0 1 6 6v24a6 6 0 0 1-6 6H-74a6 6 0 0 1-6-6z" stroke="#000" stroke-opacity="0" stroke-width="3" fill="#fff" fill-opacity="0"/><g><use xlink:href="#af" transform="matrix(1,0,0,1,-75,2159.72515223315) translate(60.03086419753087 19.46527777777778)"/><use xlink:href="#ah" transform="matrix(1,0,0,1,-75,2159.72515223315) translate(103.17901234567901 19.46527777777778)"/></g><defs><path fill="#333" d="M210-169c-67 3-38 105-44 169h-31v-121c0-29-5-50-35-48C34-165 62-65 56 0H25l-1-190h30c1 10-1 24 2 32 10-44 99-50 107 0 11-21 27-35 58-36 85-2 47 119 55 194h-31v-121c0-29-5-49-35-48" id="ai"/><path fill="#333" d="M141-36C126-15 110 5 73 4 37 3 15-17 15-53c-1-64 63-63 125-63 3-35-9-54-41-54-24 1-41 7-42 31l-33-3c5-37 33-52 76-52 45 0 72 20 72 64v82c-1 20 7 32 28 27v20c-31 9-61-2-59-35zM48-53c0 20 12 33 32 33 41-3 63-29 60-74-43 2-92-5-92 41" id="aj"/><path fill="#333" d="M24-231v-30h32v30H24zM24 0v-190h32V0H24" id="ak"/><path fill="#333" d="M117-194c89-4 53 116 60 194h-32v-121c0-31-8-49-39-48C34-167 62-67 57 0H25l-1-190h30c1 10-1 24 2 32 11-22 29-35 61-36" id="al"/><g id="a"><use transform="matrix(0.06172839506172839,0,0,0.06172839506172839,0,0)" xlink:href="#ai"/><use transform="matrix(0.06172839506172839,0,0,0.06172839506172839,18.456790123456788,0)" xlink:href="#aj"/><use transform="matrix(0.06172839506172839,0,0,0.06172839506172839,30.80246913580247,0)" xlink:href="#ak"/><use transform="matrix(0.06172839506172839,0,0,0.06172839506172839,35.67901234567901,0)" xlink:href="#al"/></g><path fill="#333" d="M87 75C49 33 22-17 22-94c0-76 28-126 65-167h31c-38 41-64 92-64 168S80 34 118 75H87" id="am"/><use transform="matrix(0.06172839506172839,0,0,0.06172839506172839,0,0)" xlink:href="#am" id="b"/><path fill="#333" d="M59-47c-2 24 18 29 38 22v24C64 9 27 4 27-40v-127H5v-23h24l9-43h21v43h35v23H59v120" id="an"/><g id="c"><use transform="matrix(0.06172839506172839,0,0,0.06172839506172839,0,0)" xlink:href="#ak"/><use transform="matrix(0.06172839506172839,0,0,0.06172839506172839,4.876543209876543,0)" xlink:href="#al"/><use transform="matrix(0.06172839506172839,0,0,0.06172839506172839,17.22222222222222,0)" xlink:href="#an"/></g><path fill="#333" d="M114-163C36-179 61-72 57 0H25l-1-190h30c1 12-1 29 2 39 6-27 23-49 58-41v29" id="ao"/><path fill="#333" d="M177-190C167-65 218 103 67 71c-23-6-38-20-44-43l32-5c15 47 100 32 89-28v-30C133-14 115 1 83 1 29 1 15-40 15-95c0-56 16-97 71-98 29-1 48 16 59 35 1-10 0-23 2-32h30zM94-22c36 0 50-32 50-73 0-42-14-75-50-75-39 0-46 34-46 75s6 73 46 73" id="ap"/><path fill="#333" d="M96-169c-40 0-48 33-48 73s9 75 48 75c24 0 41-14 43-38l32 2c-6 37-31 61-74 61-59 0-76-41-82-99-10-93 101-131 147-64 4 7 5 14 7 22l-32 3c-4-21-16-35-41-35" id="aq"/><path fill="#333" d="M68-38c1 34 0 65-14 84H32c9-13 17-26 17-46H33v-38h35" id="ar"/><g id="d"><use transform="matrix(0.06172839506172839,0,0,0.06172839506172839,0,0)" xlink:href="#aj"/><use transform="matrix(0.06172839506172839,0,0,0.06172839506172839,12.345679012345679,0)" xlink:href="#ao"/><use transform="matrix(0.06172839506172839,0,0,0.06172839506172839,19.691358024691358,0)" xlink:href="#ap"/><use transform="matrix(0.06172839506172839,0,0,0.06172839506172839,32.03703703703704,0)" xlink:href="#aq"/><use transform="matrix(0.06172839506172839,0,0,0.06172839506172839,43.14814814814815,0)" xlink:href="#ar"/></g><path fill="#333" d="M106-169C34-169 62-67 57 0H25v-261h32l-1 103c12-21 28-36 61-36 89 0 53 116 60 194h-32v-121c2-32-8-49-39-48" id="as"/><g id="e"><use transform="matrix(0.06172839506172839,0,0,0.06172839506172839,0,0)" xlink:href="#aq"/><use transform="matrix(0.06172839506172839,0,0,0.06172839506172839,11.11111111111111,0)" xlink:href="#as"/><use transform="matrix(0.06172839506172839,0,0,0.06172839506172839,23.45679012345679,0)" xlink:href="#aj"/><use transform="matrix(0.06172839506172839,0,0,0.06172839506172839,35.80246913580247,0)" xlink:href="#ao"/></g><path fill="#333" d="M80-196l47-18 7 23-49 13 32 44-20 13-27-46-27 45-21-12 33-44-49-13 8-23 47 19-2-53h23" id="at"/><path fill="#333" d="M108 0H70L1-190h34L89-25l56-165h34" id="au"/><g id="f"><use transform="matrix(0.06172839506172839,0,0,0.06172839506172839,0,0)" xlink:href="#at"/><use transform="matrix(0.06172839506172839,0,0,0.06172839506172839,8.641975308641975,0)" xlink:href="#at"/><use transform="matrix(0.06172839506172839,0,0,0.06172839506172839,17.28395061728395,0)" xlink:href="#aj"/><use transform="matrix(0.06172839506172839,0,0,0.06172839506172839,29.629629629629626,0)" xlink:href="#ao"/><use transform="matrix(0.06172839506172839,0,0,0.06172839506172839,36.9753086419753,0)" xlink:href="#ap"/><use transform="matrix(0.06172839506172839,0,0,0.06172839506172839,49.32098765432098,0)" xlink:href="#au"/><use transform="matrix(0.06172839506172839,0,0,0.06172839506172839,58.76543209876543,0)" xlink:href="#ar"/></g><path fill="#333" d="M100-194c63 0 86 42 84 106H49c0 40 14 67 53 68 26 1 43-12 49-29l28 8c-11 28-37 45-77 45C44 4 14-33 15-96c1-61 26-98 85-98zm52 81c6-60-76-77-97-28-3 7-6 17-6 28h103" id="av"/><path fill="#333" d="M115-194c55 1 70 41 70 98S169 2 115 4C84 4 66-9 55-30l1 105H24l-1-265h31l2 30c10-21 28-34 59-34zm-8 174c40 0 45-34 45-75s-6-73-45-74c-42 0-51 32-51 76 0 43 10 73 51 73" id="aw"/><g id="g"><use transform="matrix(0.06172839506172839,0,0,0.06172839506172839,0,0)" xlink:href="#at"/><use transform="matrix(0.06172839506172839,0,0,0.06172839506172839,8.641975308641975,0)" xlink:href="#at"/><use transform="matrix(0.06172839506172839,0,0,0.06172839506172839,17.28395061728395,0)" xlink:href="#av"/><use transform="matrix(0.06172839506172839,0,0,0.06172839506172839,29.629629629629626,0)" xlink:href="#al"/><use transform="matrix(0.06172839506172839,0,0,0.06172839506172839,41.9753086419753,0)" xlink:href="#au"/><use transform="matrix(0.06172839506172839,0,0,0.06172839506172839,53.08641975308642,0)" xlink:href="#aw"/></g><path fill="#333" d="M33-261c38 41 65 92 65 168S71 34 33 75H2C39 34 66-17 66-93S39-220 2-261h31" id="ax"/><use transform="matrix(0.06172839506172839,0,0,0.06172839506172839,0,0)" xlink:href="#ax" id="h"/><path fill="#333" d="M141 0L90-78 38 0H4l68-98-65-92h35l48 74 47-74h35l-64 92 68 98h-35" id="ay"/><path fill="#333" d="M84 4C-5 8 30-112 23-190h32v120c0 31 7 50 39 49 72-2 45-101 50-169h31l1 190h-30c-1-10 1-25-2-33-11 22-28 36-60 37" id="az"/><path fill="#333" d="M-5 72V49h209v23H-5" id="aA"/><path fill="#333" d="M100-194c62-1 85 37 85 99 1 63-27 99-86 99S16-35 15-95c0-66 28-99 85-99zM99-20c44 1 53-31 53-75 0-43-8-75-51-75s-53 32-53 75 10 74 51 75" id="aB"/><path fill="#333" d="M85-194c31 0 48 13 60 33l-1-100h32l1 261h-30c-2-10 0-23-3-31C134-8 116 4 85 4 32 4 16-35 15-94c0-66 23-100 70-100zm9 24c-40 0-46 34-46 75 0 40 6 74 45 74 42 0 51-32 51-76 0-42-9-74-50-73" id="aC"/><g id="i"><use transform="matrix(0.06172839506172839,0,0,0.06172839506172839,0,0)" xlink:href="#av"/><use transform="matrix(0.06172839506172839,0,0,0.06172839506172839,12.345679012345679,0)" xlink:href="#ay"/><use transform="matrix(0.06172839506172839,0,0,0.06172839506172839,23.45679012345679,0)" xlink:href="#av"/><use transform="matrix(0.06172839506172839,0,0,0.06172839506172839,35.80246913580247,0)" xlink:href="#aq"/><use transform="matrix(0.06172839506172839,0,0,0.06172839506172839,46.91358024691358,0)" xlink:href="#az"/><use transform="matrix(0.06172839506172839,0,0,0.06172839506172839,59.25925925925926,0)" xlink:href="#an"/><use transform="matrix(0.06172839506172839,0,0,0.06172839506172839,65.4320987654321,0)" xlink:href="#av"/><use transform="matrix(0.06172839506172839,0,0,0.06172839506172839,77.77777777777779,0)" xlink:href="#aA"/><use transform="matrix(0.06172839506172839,0,0,0.06172839506172839,90.12345679012347,0)" xlink:href="#aq"/><use transform="matrix(0.06172839506172839,0,0,0.06172839506172839,101.23456790123458,0)" xlink:href="#aB"/><use transform="matrix(0.06172839506172839,0,0,0.06172839506172839,113.58024691358027,0)" xlink:href="#ai"/><use transform="matrix(0.06172839506172839,0,0,0.06172839506172839,132.03703703703707,0)" xlink:href="#ai"/><use transform="matrix(0.06172839506172839,0,0,0.06172839506172839,150.49382716049385,0)" xlink:href="#aj"/><use transform="matrix(0.06172839506172839,0,0,0.06172839506172839,162.83950617283952,0)" xlink:href="#al"/><use transform="matrix(0.06172839506172839,0,0,0.06172839506172839,175.1851851851852,0)" xlink:href="#aC"/><use transform="matrix(0.06172839506172839,0,0,0.06172839506172839,187.53086419753086,0)" xlink:href="#am"/><use transform="matrix(0.06172839506172839,0,0,0.06172839506172839,194.87654320987653,0)" xlink:href="#an"/><use transform="matrix(0.06172839506172839,0,0,0.06172839506172839,201.04938271604937,0)" xlink:href="#aA"/><use transform="matrix(0.06172839506172839,0,0,0.06172839506172839,213.39506172839504,0)" xlink:href="#aq"/><use transform="matrix(0.06172839506172839,0,0,0.06172839506172839,224.50617283950615,0)" xlink:href="#aB"/><use transform="matrix(0.06172839506172839,0,0,0.06172839506172839,236.85185185185182,0)" xlink:href="#ai"/><use transform="matrix(0.06172839506172839,0,0,0.06172839506172839,255.30864197530863,0)" xlink:href="#ai"/><use transform="matrix(0.06172839506172839,0,0,0.06172839506172839,273.7654320987654,0)" xlink:href="#aj"/><use transform="matrix(0.06172839506172839,0,0,0.06172839506172839,286.1111111111111,0)" xlink:href="#al"/><use transform="matrix(0.06172839506172839,0,0,0.06172839506172839,298.45679012345676,0)" xlink:href="#aC"/></g><g id="j"><use transform="matrix(0.06172839506172839,0,0,0.06172839506172839,0,0)" xlink:href="#at"/><use transform="matrix(0.06172839506172839,0,0,0.06172839506172839,8.641975308641975,0)" xlink:href="#aq"/><use transform="matrix(0.06172839506172839,0,0,0.06172839506172839,19.753086419753085,0)" xlink:href="#ai"/><use transform="matrix(0.06172839506172839,0,0,0.06172839506172839,38.20987654320987,0)" xlink:href="#aC"/><use transform="matrix(0.06172839506172839,0,0,0.06172839506172839,50.55555555555555,0)" xlink:href="#ar"/></g><g id="k"><use transform="matrix(0.06172839506172839,0,0,0.06172839506172839,0,0)" xlink:href="#at"/><use transform="matrix(0.06172839506172839,0,0,0.06172839506172839,8.641975308641975,0)" xlink:href="#at"/><use transform="matrix(0.06172839506172839,0,0,0.06172839506172839,17.28395061728395,0)" xlink:href="#av"/><use transform="matrix(0.06172839506172839,0,0,0.06172839506172839,29.629629629629626,0)" xlink:href="#al"/><use transform="matrix(0.06172839506172839,0,0,0.06172839506172839,41.9753086419753,0)" xlink:href="#au"/><use transform="matrix(0.06172839506172839,0,0,0.06172839506172839,53.08641975308642,0)" xlink:href="#aw"/><use transform="matrix(0.06172839506172839,0,0,0.06172839506172839,65.4320987654321,0)" xlink:href="#ax"/></g><path fill="#333" d="M33 0v-248h34V0H33" id="aD"/><g id="l"><use transform="matrix(0.06172839506172839,0,0,0.06172839506172839,0,0)" xlink:href="#aD"/><use transform="matrix(0.06172839506172839,0,0,0.06172839506172839,6.172839506172839,0)" xlink:href="#al"/><use transform="matrix(0.06172839506172839,0,0,0.06172839506172839,18.51851851851852,0)" xlink:href="#ak"/><use transform="matrix(0.06172839506172839,0,0,0.06172839506172839,23.395061728395063,0)" xlink:href="#an"/></g><use transform="matrix(0.06172839506172839,0,0,0.06172839506172839,0,0)" xlink:href="#aj" id="m"/><g id="n"><use transform="matrix(0.06172839506172839,0,0,0.06172839506172839,0,0)" xlink:href="#aw"/><use transform="matrix(0.06172839506172839,0,0,0.06172839506172839,12.345679012345679,0)" xlink:href="#ak"/><use transform="matrix(0.06172839506172839,0,0,0.06172839506172839,17.22222222222222,0)" xlink:href="#aw"/><use transform="matrix(0.06172839506172839,0,0,0.06172839506172839,29.5679012345679,0)" xlink:href="#av"/></g><g id="o"><use transform="matrix(0.06172839506172839,0,0,0.06172839506172839,0,0)" xlink:href="#aw"/><use transform="matrix(0.06172839506172839,0,0,0.06172839506172839,12.345679012345679,0)" xlink:href="#ak"/><use transform="matrix(0.06172839506172839,0,0,0.06172839506172839,17.22222222222222,0)" xlink:href="#aC"/></g><path fill="#333" d="M18-150v-26h174v26H18zm0 90v-26h174v26H18" id="aE"/><use transform="matrix(0.06172839506172839,0,0,0.06172839506172839,0,0)" xlink:href="#aE" id="p"/><path fill="#333" d="M101-234c-31-9-42 10-38 44h38v23H63V0H32v-167H5v-23h27c-7-52 17-82 69-68v24" id="aF"/><path fill="#333" d="M143 0L79-87 56-68V0H24v-261h32v163l83-92h37l-77 82L181 0h-38" id="aG"/><g id="q"><use transform="matrix(0.06172839506172839,0,0,0.06172839506172839,0,0)" xlink:href="#aF"/><use transform="matrix(0.06172839506172839,0,0,0.06172839506172839,6.172839506172839,0)" xlink:href="#aB"/><use transform="matrix(0.06172839506172839,0,0,0.06172839506172839,18.51851851851852,0)" xlink:href="#ao"/><use transform="matrix(0.06172839506172839,0,0,0.06172839506172839,25.864197530864196,0)" xlink:href="#aG"/></g><path fill="#333" d="M68-36c1 33-1 63-14 82H32c9-13 17-26 17-46H33v-36h35zM33-154v-36h35v36H33" id="aH"/><g id="r"><use transform="matrix(0.06172839506172839,0,0,0.06172839506172839,0,0)" xlink:href="#am"/><use transform="matrix(0.06172839506172839,0,0,0.06172839506172839,7.345679012345679,0)" xlink:href="#ax"/><use transform="matrix(0.06172839506172839,0,0,0.06172839506172839,14.691358024691358,0)" xlink:href="#aH"/></g><path fill="#008a0e" d="M146-102V0H94v-102L6-248h54l60 105 60-105h54" id="aI"/><path fill="#008a0e" d="M185-48c-13 30-37 53-82 52C43 2 14-33 14-96s30-98 90-98c62 0 83 45 84 108H66c0 31 8 55 39 56 18 0 30-7 34-22zm-45-69c5-46-57-63-70-21-2 6-4 13-4 21h74" id="aJ"/><path fill="#008a0e" d="M137-138c1-29-70-34-71-4 15 46 118 7 119 86 1 83-164 76-172 9l43-7c4 19 20 25 44 25 33 8 57-30 24-41C81-84 22-81 20-136c-2-80 154-74 161-7" id="aK"/><g id="s"><use transform="matrix(0.05555555555555555,0,0,0.05555555555555555,0,0)" xlink:href="#aI"/><use transform="matrix(0.05555555555555555,0,0,0.05555555555555555,12.222222222222221,0)" xlink:href="#aJ"/><use transform="matrix(0.05555555555555555,0,0,0.05555555555555555,23.333333333333332,0)" xlink:href="#aK"/></g><path fill="#008a0e" d="M67-125c0 53 21 87 73 88 37 1 54-22 65-47l45 17C233-25 199 4 140 4 58 4 20-42 15-125 8-235 124-281 211-232c18 10 29 29 36 50l-46 12c-8-25-30-41-62-41-52 0-71 34-72 86" id="aL"/><path fill="#008a0e" d="M114-157C55-157 80-60 75 0H25v-261h50l-1 109c12-26 28-41 61-42 86-1 58 113 63 194h-50c-7-57 23-157-34-157" id="aM"/><path fill="#008a0e" d="M25-224v-37h50v37H25zM25 0v-190h50V0H25" id="aN"/><path fill="#008a0e" d="M25 0v-261h50V0H25" id="aO"/><path fill="#008a0e" d="M88-194c31-1 46 15 58 34l-1-101h50l1 261h-48c-2-10 0-23-3-31C134-8 116 4 84 4 32 4 16-41 15-95c0-56 19-97 73-99zm17 164c33 0 40-30 41-66 1-37-9-64-41-64s-38 30-39 65c0 43 13 65 39 65" id="aP"/><g id="t"><use transform="matrix(0.05555555555555555,0,0,0.05555555555555555,0,0)" xlink:href="#aL"/><use transform="matrix(0.05555555555555555,0,0,0.05555555555555555,14.388888888888888,0)" xlink:href="#aM"/><use transform="matrix(0.05555555555555555,0,0,0.05555555555555555,26.555555555555554,0)" xlink:href="#aN"/><use transform="matrix(0.05555555555555555,0,0,0.05555555555555555,32.11111111111111,0)" xlink:href="#aO"/><use transform="matrix(0.05555555555555555,0,0,0.05555555555555555,37.666666666666664,0)" xlink:href="#aP"/></g><path fill="#008a0e" d="M135-194c53 0 70 44 70 98 0 56-19 98-73 100-31 1-45-17-59-34 3 33 2 69 2 105H25l-1-265h48c2 10 0 23 3 31 11-24 29-35 60-35zM114-30c33 0 39-31 40-66 0-38-9-64-40-64-56 0-55 130 0 130" id="aQ"/><path fill="#008a0e" d="M135-150c-39-12-60 13-60 57V0H25l-1-190h47c2 13-1 29 3 40 6-28 27-53 61-41v41" id="aR"/><path fill="#008a0e" d="M110-194c64 0 96 36 96 99 0 64-35 99-97 99-61 0-95-36-95-99 0-62 34-99 96-99zm-1 164c35 0 45-28 45-65 0-40-10-65-43-65-34 0-45 26-45 65 0 36 10 65 43 65" id="aS"/><path fill="#008a0e" d="M190-63c-7 42-38 67-86 67-59 0-84-38-90-98-12-110 154-137 174-36l-49 2c-2-19-15-32-35-32-30 0-35 28-38 64-6 74 65 87 74 30" id="aT"/><g id="u"><use transform="matrix(0.05555555555555555,0,0,0.05555555555555555,0,0)" xlink:href="#aQ"/><use transform="matrix(0.05555555555555555,0,0,0.05555555555555555,12.166666666666666,0)" xlink:href="#aR"/><use transform="matrix(0.05555555555555555,0,0,0.05555555555555555,19.944444444444443,0)" xlink:href="#aS"/><use transform="matrix(0.05555555555555555,0,0,0.05555555555555555,32.11111111111111,0)" xlink:href="#aT"/><use transform="matrix(0.05555555555555555,0,0,0.05555555555555555,43.222222222222214,0)" xlink:href="#aJ"/><use transform="matrix(0.05555555555555555,0,0,0.05555555555555555,54.33333333333333,0)" xlink:href="#aK"/><use transform="matrix(0.05555555555555555,0,0,0.05555555555555555,65.44444444444444,0)" xlink:href="#aK"/></g><path fill="#e81313" d="M175 0L67-191c6 58 2 128 3 191H24v-248h59L193-55c-6-58-2-129-3-193h46V0h-61" id="aU"/><path fill="#e81313" d="M110-194c64 0 96 36 96 99 0 64-35 99-97 99-61 0-95-36-95-99 0-62 34-99 96-99zm-1 164c35 0 45-28 45-65 0-40-10-65-43-65-34 0-45 26-45 65 0 36 10 65 43 65" id="aV"/><g id="v"><use transform="matrix(0.05555555555555555,0,0,0.05555555555555555,0,0)" xlink:href="#aU"/><use transform="matrix(0.05555555555555555,0,0,0.05555555555555555,14.388888888888888,0)" xlink:href="#aV"/></g><path fill="#e81313" d="M24-248c93 1 206-16 204 79-1 75-69 88-152 82V0H24v-248zm52 121c47 0 100 7 100-41 0-47-54-39-100-39v80" id="aW"/><path fill="#e81313" d="M133-34C117-15 103 5 69 4 32 3 11-16 11-54c-1-60 55-63 116-61 1-26-3-47-28-47-18 1-26 9-28 27l-52-2c7-38 36-58 82-57s74 22 75 68l1 82c-1 14 12 18 25 15v27c-30 8-71 5-69-32zm-48 3c29 0 43-24 42-57-32 0-66-3-65 30 0 17 8 27 23 27" id="aX"/><path fill="#e81313" d="M135-150c-39-12-60 13-60 57V0H25l-1-190h47c2 13-1 29 3 40 6-28 27-53 61-41v41" id="aY"/><path fill="#e81313" d="M185-48c-13 30-37 53-82 52C43 2 14-33 14-96s30-98 90-98c62 0 83 45 84 108H66c0 31 8 55 39 56 18 0 30-7 34-22zm-45-69c5-46-57-63-70-21-2 6-4 13-4 21h74" id="aZ"/><path fill="#e81313" d="M135-194c87-1 58 113 63 194h-50c-7-57 23-157-34-157-59 0-34 97-39 157H25l-1-190h47c2 12-1 28 3 38 12-26 28-41 61-42" id="ba"/><path fill="#e81313" d="M115-3C79 11 28 4 28-45v-112H4v-33h27l15-45h31v45h36v33H77v99c-1 23 16 31 38 25v30" id="bb"/><g id="w"><use transform="matrix(0.05555555555555555,0,0,0.05555555555555555,0,0)" xlink:href="#aW"/><use transform="matrix(0.05555555555555555,0,0,0.05555555555555555,13.333333333333332,0)" xlink:href="#aX"/><use transform="matrix(0.05555555555555555,0,0,0.05555555555555555,24.444444444444443,0)" xlink:href="#aY"/><use transform="matrix(0.05555555555555555,0,0,0.05555555555555555,32.22222222222222,0)" xlink:href="#aZ"/><use transform="matrix(0.05555555555555555,0,0,0.05555555555555555,43.33333333333333,0)" xlink:href="#ba"/><use transform="matrix(0.05555555555555555,0,0,0.05555555555555555,55.49999999999999,0)" xlink:href="#bb"/></g><path fill="#e81313" d="M135-194c53 0 70 44 70 98 0 56-19 98-73 100-31 1-45-17-59-34 3 33 2 69 2 105H25l-1-265h48c2 10 0 23 3 31 11-24 29-35 60-35zM114-30c33 0 39-31 40-66 0-38-9-64-40-64-56 0-55 130 0 130" id="bc"/><path fill="#e81313" d="M190-63c-7 42-38 67-86 67-59 0-84-38-90-98-12-110 154-137 174-36l-49 2c-2-19-15-32-35-32-30 0-35 28-38 64-6 74 65 87 74 30" id="bd"/><path fill="#e81313" d="M137-138c1-29-70-34-71-4 15 46 118 7 119 86 1 83-164 76-172 9l43-7c4 19 20 25 44 25 33 8 57-30 24-41C81-84 22-81 20-136c-2-80 154-74 161-7" id="be"/><g id="x"><use transform="matrix(0.05555555555555555,0,0,0.05555555555555555,0,0)" xlink:href="#bc"/><use transform="matrix(0.05555555555555555,0,0,0.05555555555555555,12.166666666666666,0)" xlink:href="#aY"/><use transform="matrix(0.05555555555555555,0,0,0.05555555555555555,19.944444444444443,0)" xlink:href="#aV"/><use transform="matrix(0.05555555555555555,0,0,0.05555555555555555,32.11111111111111,0)" xlink:href="#bd"/><use transform="matrix(0.05555555555555555,0,0,0.05555555555555555,43.222222222222214,0)" xlink:href="#aZ"/><use transform="matrix(0.05555555555555555,0,0,0.05555555555555555,54.33333333333333,0)" xlink:href="#be"/><use transform="matrix(0.05555555555555555,0,0,0.05555555555555555,65.44444444444444,0)" xlink:href="#be"/></g><path fill="#333" d="M135-143c-3-34-86-38-87 0 15 53 115 12 119 90S17 21 10-45l28-5c4 36 97 45 98 0-10-56-113-15-118-90-4-57 82-63 122-42 12 7 21 19 24 35" id="bf"/><path fill="#333" d="M30-248c87 1 191-15 191 75 0 78-77 80-158 76V0H30v-248zm33 125c57 0 124 11 124-50 0-59-68-47-124-48v98" id="bg"/><g id="y"><use transform="matrix(0.06172839506172839,0,0,0.06172839506172839,0,0)" xlink:href="#ak"/><use transform="matrix(0.06172839506172839,0,0,0.06172839506172839,4.876543209876543,0)" xlink:href="#bf"/><use transform="matrix(0.06172839506172839,0,0,0.06172839506172839,15.987654320987653,0)" xlink:href="#bg"/><use transform="matrix(0.06172839506172839,0,0,0.06172839506172839,30.80246913580247,0)" xlink:href="#ak"/><use transform="matrix(0.06172839506172839,0,0,0.06172839506172839,35.67901234567901,0)" xlink:href="#aw"/><use transform="matrix(0.06172839506172839,0,0,0.06172839506172839,48.02469135802469,0)" xlink:href="#av"/></g><path fill="#333" d="M63-70H37l-4-178h34zM33 0v-35h34V0H33" id="bh"/><g id="z"><use transform="matrix(0.06172839506172839,0,0,0.06172839506172839,0,0)" xlink:href="#bh"/><use transform="matrix(0.06172839506172839,0,0,0.06172839506172839,6.172839506172839,0)" xlink:href="#aE"/></g><path fill="#333" d="M101-251c68 0 85 55 85 127S166 4 100 4C33 4 14-52 14-124c0-73 17-127 87-127zm-1 229c47 0 54-49 54-102s-4-102-53-102c-51 0-55 48-55 102 0 53 5 102 54 102" id="bi"/><use transform="matrix(0.06172839506172839,0,0,0.06172839506172839,0,0)" xlink:href="#bi" id="A"/><path fill="#333" d="M101-251c82-7 93 87 43 132L82-64C71-53 59-42 53-27h129V0H18c2-99 128-94 128-182 0-28-16-43-45-43s-46 15-49 41l-32-3c6-41 34-60 81-64" id="bj"/><g id="B"><use transform="matrix(0.06172839506172839,0,0,0.06172839506172839,0,0)" xlink:href="#aC"/><use transform="matrix(0.06172839506172839,0,0,0.06172839506172839,12.345679012345679,0)" xlink:href="#az"/><use transform="matrix(0.06172839506172839,0,0,0.06172839506172839,24.691358024691358,0)" xlink:href="#aw"/><use transform="matrix(0.06172839506172839,0,0,0.06172839506172839,37.03703703703704,0)" xlink:href="#bj"/><use transform="matrix(0.06172839506172839,0,0,0.06172839506172839,49.382716049382715,0)" xlink:href="#am"/></g><path fill="#333" d="M26 75v-336h71v23H56V52h41v23H26" id="bk"/><g id="C"><use transform="matrix(0.06172839506172839,0,0,0.06172839506172839,0,0)" xlink:href="#aw"/><use transform="matrix(0.06172839506172839,0,0,0.06172839506172839,12.345679012345679,0)" xlink:href="#ak"/><use transform="matrix(0.06172839506172839,0,0,0.06172839506172839,17.22222222222222,0)" xlink:href="#aw"/><use transform="matrix(0.06172839506172839,0,0,0.06172839506172839,29.5679012345679,0)" xlink:href="#av"/><use transform="matrix(0.06172839506172839,0,0,0.06172839506172839,41.913580246913575,0)" xlink:href="#bk"/></g><use transform="matrix(0.06172839506172839,0,0,0.06172839506172839,0,0)" xlink:href="#bi" id="D"/><path fill="#333" d="M3 75V52h41v-290H3v-23h71V75H3" id="bl"/><g id="E"><use transform="matrix(0.06172839506172839,0,0,0.06172839506172839,0,0)" xlink:href="#bl"/><use transform="matrix(0.06172839506172839,0,0,0.06172839506172839,6.172839506172839,0)" xlink:href="#ar"/></g><g id="F"><use transform="matrix(0.06172839506172839,0,0,0.06172839506172839,0,0)" xlink:href="#ax"/><use transform="matrix(0.06172839506172839,0,0,0.06172839506172839,7.345679012345679,0)" xlink:href="#aH"/></g><path fill="#333" d="M24 0v-261h32V0H24" id="bm"/><g id="G"><use transform="matrix(0.06172839506172839,0,0,0.06172839506172839,0,0)" xlink:href="#aq"/><use transform="matrix(0.06172839506172839,0,0,0.06172839506172839,11.11111111111111,0)" xlink:href="#bm"/><use transform="matrix(0.06172839506172839,0,0,0.06172839506172839,15.987654320987653,0)" xlink:href="#aB"/><use transform="matrix(0.06172839506172839,0,0,0.06172839506172839,28.333333333333332,0)" xlink:href="#bf"/><use transform="matrix(0.06172839506172839,0,0,0.06172839506172839,39.44444444444444,0)" xlink:href="#av"/><use transform="matrix(0.06172839506172839,0,0,0.06172839506172839,51.79012345679012,0)" xlink:href="#am"/></g><use transform="matrix(0.06172839506172839,0,0,0.06172839506172839,0,0)" xlink:href="#bl" id="H"/><path fill="#333" d="M27 0v-27h64v-190l-56 39v-29l58-41h29v221h61V0H27" id="bn"/><use transform="matrix(0.06172839506172839,0,0,0.06172839506172839,0,0)" xlink:href="#bn" id="I"/><path fill="#333" d="M206 0h-36l-40-164L89 0H53L-1-190h32L70-26l43-164h34l41 164 42-164h31" id="bo"/><g id="J"><use transform="matrix(0.06172839506172839,0,0,0.06172839506172839,0,0)" xlink:href="#bo"/><use transform="matrix(0.06172839506172839,0,0,0.06172839506172839,15.987654320987653,0)" xlink:href="#aj"/><use transform="matrix(0.06172839506172839,0,0,0.06172839506172839,28.333333333333332,0)" xlink:href="#ak"/><use transform="matrix(0.06172839506172839,0,0,0.06172839506172839,33.20987654320987,0)" xlink:href="#an"/><use transform="matrix(0.06172839506172839,0,0,0.06172839506172839,39.382716049382715,0)" xlink:href="#aw"/><use transform="matrix(0.06172839506172839,0,0,0.06172839506172839,51.72839506172839,0)" xlink:href="#ak"/><use transform="matrix(0.06172839506172839,0,0,0.06172839506172839,56.60493827160494,0)" xlink:href="#aC"/><use transform="matrix(0.06172839506172839,0,0,0.06172839506172839,68.95061728395062,0)" xlink:href="#am"/></g><g id="K"><use transform="matrix(0.06172839506172839,0,0,0.06172839506172839,0,0)" xlink:href="#aw"/><use transform="matrix(0.06172839506172839,0,0,0.06172839506172839,12.345679012345679,0)" xlink:href="#ak"/><use transform="matrix(0.06172839506172839,0,0,0.06172839506172839,17.22222222222222,0)" xlink:href="#aC"/><use transform="matrix(0.06172839506172839,0,0,0.06172839506172839,29.5679012345679,0)" xlink:href="#ar"/></g><g id="L"><use transform="matrix(0.06172839506172839,0,0,0.06172839506172839,0,0)" xlink:href="#bi"/><use transform="matrix(0.06172839506172839,0,0,0.06172839506172839,12.345679012345679,0)" xlink:href="#ar"/></g><g id="M"><use transform="matrix(0.06172839506172839,0,0,0.06172839506172839,0,0)" xlink:href="#av"/><use transform="matrix(0.06172839506172839,0,0,0.06172839506172839,12.345679012345679,0)" xlink:href="#ay"/><use transform="matrix(0.06172839506172839,0,0,0.06172839506172839,23.45679012345679,0)" xlink:href="#av"/><use transform="matrix(0.06172839506172839,0,0,0.06172839506172839,35.80246913580247,0)" xlink:href="#aq"/><use transform="matrix(0.06172839506172839,0,0,0.06172839506172839,46.91358024691358,0)" xlink:href="#az"/><use transform="matrix(0.06172839506172839,0,0,0.06172839506172839,59.25925925925926,0)" xlink:href="#an"/><use transform="matrix(0.06172839506172839,0,0,0.06172839506172839,65.4320987654321,0)" xlink:href="#av"/></g><g id="N"><use transform="matrix(0.06172839506172839,0,0,0.06172839506172839,0,0)" xlink:href="#an"/><use transform="matrix(0.06172839506172839,0,0,0.06172839506172839,6.172839506172839,0)" xlink:href="#as"/><use transform="matrix(0.06172839506172839,0,0,0.06172839506172839,18.51851851851852,0)" xlink:href="#av"/></g><g id="O"><use transform="matrix(0.06172839506172839,0,0,0.06172839506172839,0,0)" xlink:href="#aq"/><use transform="matrix(0.06172839506172839,0,0,0.06172839506172839,11.11111111111111,0)" xlink:href="#aB"/><use transform="matrix(0.06172839506172839,0,0,0.06172839506172839,23.45679012345679,0)" xlink:href="#ai"/><use transform="matrix(0.06172839506172839,0,0,0.06172839506172839,41.91358024691358,0)" xlink:href="#ai"/><use transform="matrix(0.06172839506172839,0,0,0.06172839506172839,60.37037037037037,0)" xlink:href="#aj"/><use transform="matrix(0.06172839506172839,0,0,0.06172839506172839,72.71604938271605,0)" xlink:href="#al"/><use transform="matrix(0.06172839506172839,0,0,0.06172839506172839,85.06172839506173,0)" xlink:href="#aC"/></g><g id="P"><use transform="matrix(0.06172839506172839,0,0,0.06172839506172839,0,0)" xlink:href="#av"/><use transform="matrix(0.06172839506172839,0,0,0.06172839506172839,12.345679012345679,0)" xlink:href="#ay"/><use transform="matrix(0.06172839506172839,0,0,0.06172839506172839,23.45679012345679,0)" xlink:href="#av"/><use transform="matrix(0.06172839506172839,0,0,0.06172839506172839,35.80246913580247,0)" xlink:href="#aq"/><use transform="matrix(0.06172839506172839,0,0,0.06172839506172839,46.91358024691358,0)" xlink:href="#az"/><use transform="matrix(0.06172839506172839,0,0,0.06172839506172839,59.25925925925926,0)" xlink:href="#an"/><use transform="matrix(0.06172839506172839,0,0,0.06172839506172839,65.4320987654321,0)" xlink:href="#ak"/><use transform="matrix(0.06172839506172839,0,0,0.06172839506172839,70.30864197530865,0)" xlink:href="#aB"/><use transform="matrix(0.06172839506172839,0,0,0.06172839506172839,82.65432098765433,0)" xlink:href="#al"/></g><path fill="#333" d="M140-251c81 0 123 46 123 126C263-46 219 4 140 4 59 4 17-45 17-125s42-126 123-126zm0 227c63 0 89-41 89-101s-29-99-89-99c-61 0-89 39-89 99S79-25 140-24" id="bp"/><path fill="#333" d="M194 0L95-120 63-95V0H30v-248h33v124l119-124h40L117-140 236 0h-42" id="bq"/><g id="Q"><use transform="matrix(0.06172839506172839,0,0,0.06172839506172839,0,0)" xlink:href="#bp"/><use transform="matrix(0.06172839506172839,0,0,0.06172839506172839,17.28395061728395,0)" xlink:href="#bq"/></g><path fill="#333" d="M103-251c84 0 111 97 45 133-19 10-37 24-39 52H78c0-63 77-55 77-114 0-30-21-42-52-43-32 0-53 17-56 46l-32-2c7-45 34-72 88-72zM77 0v-35h34V0H77" id="br"/><g id="R"><use transform="matrix(0.06172839506172839,0,0,0.06172839506172839,0,0)" xlink:href="#br"/><use transform="matrix(0.06172839506172839,0,0,0.06172839506172839,12.345679012345679,0)" xlink:href="#bh"/></g><path fill="#008a0e" d="M169-182c-1-43-94-46-97-3 18 66 151 10 154 114 3 95-165 93-204 36-6-8-10-19-12-30l50-8c3 46 112 56 116 5-17-69-150-10-154-114-4-87 153-88 188-35 5 8 8 18 10 28" id="bs"/><path fill="#008a0e" d="M85 4C-2 5 27-109 22-190h50c7 57-23 150 33 157 60-5 35-97 40-157h50l1 190h-47c-2-12 1-28-3-38-12 25-28 42-61 42" id="bt"/><g id="S"><use transform="matrix(0.05555555555555555,0,0,0.05555555555555555,0,0)" xlink:href="#bs"/><use transform="matrix(0.05555555555555555,0,0,0.05555555555555555,13.333333333333332,0)" xlink:href="#bt"/><use transform="matrix(0.05555555555555555,0,0,0.05555555555555555,25.5,0)" xlink:href="#aT"/><use transform="matrix(0.05555555555555555,0,0,0.05555555555555555,36.611111111111114,0)" xlink:href="#aJ"/><use transform="matrix(0.05555555555555555,0,0,0.05555555555555555,47.72222222222223,0)" xlink:href="#aK"/><use transform="matrix(0.05555555555555555,0,0,0.05555555555555555,58.83333333333334,0)" xlink:href="#aK"/></g><g id="T"><use transform="matrix(0.06172839506172839,0,0,0.06172839506172839,0,0)" xlink:href="#aq"/><use transform="matrix(0.06172839506172839,0,0,0.06172839506172839,11.11111111111111,0)" xlink:href="#as"/><use transform="matrix(0.06172839506172839,0,0,0.06172839506172839,23.45679012345679,0)" xlink:href="#ak"/><use transform="matrix(0.06172839506172839,0,0,0.06172839506172839,28.333333333333336,0)" xlink:href="#bm"/><use transform="matrix(0.06172839506172839,0,0,0.06172839506172839,33.20987654320988,0)" xlink:href="#aC"/></g><g id="U"><use transform="matrix(0.06172839506172839,0,0,0.06172839506172839,0,0)" xlink:href="#aw"/><use transform="matrix(0.06172839506172839,0,0,0.06172839506172839,12.345679012345679,0)" xlink:href="#ao"/><use transform="matrix(0.06172839506172839,0,0,0.06172839506172839,19.691358024691358,0)" xlink:href="#aB"/><use transform="matrix(0.06172839506172839,0,0,0.06172839506172839,32.03703703703704,0)" xlink:href="#aq"/><use transform="matrix(0.06172839506172839,0,0,0.06172839506172839,43.14814814814815,0)" xlink:href="#av"/><use transform="matrix(0.06172839506172839,0,0,0.06172839506172839,55.49382716049383,0)" xlink:href="#bf"/><use transform="matrix(0.06172839506172839,0,0,0.06172839506172839,66.60493827160494,0)" xlink:href="#bf"/></g><g id="V"><use transform="matrix(0.06172839506172839,0,0,0.06172839506172839,0,0)" xlink:href="#aC"/><use transform="matrix(0.06172839506172839,0,0,0.06172839506172839,12.345679012345679,0)" xlink:href="#ak"/><use transform="matrix(0.06172839506172839,0,0,0.06172839506172839,17.22222222222222,0)" xlink:href="#av"/><use transform="matrix(0.06172839506172839,0,0,0.06172839506172839,29.5679012345679,0)" xlink:href="#aC"/></g><path fill="#e81313" d="M76-208v77h127v40H76V0H24v-248h183v40H76" id="bu"/><path fill="#e81313" d="M25-224v-37h50v37H25zM25 0v-190h50V0H25" id="bv"/><path fill="#e81313" d="M25 0v-261h50V0H25" id="bw"/><g id="W"><use transform="matrix(0.05555555555555555,0,0,0.05555555555555555,0,0)" xlink:href="#bu"/><use transform="matrix(0.05555555555555555,0,0,0.05555555555555555,12.166666666666666,0)" xlink:href="#aX"/><use transform="matrix(0.05555555555555555,0,0,0.05555555555555555,23.27777777777778,0)" xlink:href="#bv"/><use transform="matrix(0.05555555555555555,0,0,0.05555555555555555,28.83333333333334,0)" xlink:href="#bw"/></g><g id="X"><use transform="matrix(0.06172839506172839,0,0,0.06172839506172839,0,0)" xlink:href="#aw"/><use transform="matrix(0.06172839506172839,0,0,0.06172839506172839,12.345679012345679,0)" xlink:href="#ao"/><use transform="matrix(0.06172839506172839,0,0,0.06172839506172839,19.691358024691358,0)" xlink:href="#ak"/><use transform="matrix(0.06172839506172839,0,0,0.06172839506172839,24.5679012345679,0)" xlink:href="#al"/><use transform="matrix(0.06172839506172839,0,0,0.06172839506172839,36.913580246913575,0)" xlink:href="#an"/></g><g id="Y"><use transform="matrix(0.06172839506172839,0,0,0.06172839506172839,0,0)" xlink:href="#av"/><use transform="matrix(0.06172839506172839,0,0,0.06172839506172839,12.345679012345679,0)" xlink:href="#ao"/><use transform="matrix(0.06172839506172839,0,0,0.06172839506172839,19.691358024691358,0)" xlink:href="#ao"/><use transform="matrix(0.06172839506172839,0,0,0.06172839506172839,27.037037037037038,0)" xlink:href="#aB"/><use transform="matrix(0.06172839506172839,0,0,0.06172839506172839,39.382716049382715,0)" xlink:href="#ao"/></g><g id="Z"><use transform="matrix(0.06172839506172839,0,0,0.06172839506172839,0,0)" xlink:href="#av"/><use transform="matrix(0.06172839506172839,0,0,0.06172839506172839,12.345679012345679,0)" xlink:href="#ay"/><use transform="matrix(0.06172839506172839,0,0,0.06172839506172839,23.45679012345679,0)" xlink:href="#av"/><use transform="matrix(0.06172839506172839,0,0,0.06172839506172839,35.80246913580247,0)" xlink:href="#aq"/><use transform="matrix(0.06172839506172839,0,0,0.06172839506172839,46.91358024691358,0)" xlink:href="#au"/><use transform="matrix(0.06172839506172839,0,0,0.06172839506172839,58.0246913580247,0)" xlink:href="#av"/></g><g id="aa"><use transform="matrix(0.06172839506172839,0,0,0.06172839506172839,0,0)" xlink:href="#av"/><use transform="matrix(0.06172839506172839,0,0,0.06172839506172839,12.345679012345679,0)" xlink:href="#ay"/><use transform="matrix(0.06172839506172839,0,0,0.06172839506172839,23.45679012345679,0)" xlink:href="#ak"/><use transform="matrix(0.06172839506172839,0,0,0.06172839506172839,28.333333333333336,0)" xlink:href="#an"/><use transform="matrix(0.06172839506172839,0,0,0.06172839506172839,34.50617283950618,0)" xlink:href="#am"/></g><g id="ab"><use transform="matrix(0.06172839506172839,0,0,0.06172839506172839,0,0)" xlink:href="#av"/><use transform="matrix(0.06172839506172839,0,0,0.06172839506172839,12.345679012345679,0)" xlink:href="#al"/><use transform="matrix(0.06172839506172839,0,0,0.06172839506172839,24.691358024691358,0)" xlink:href="#aC"/></g><g id="ac"><use transform="matrix(0.06172839506172839,0,0,0.06172839506172839,0,0)" xlink:href="#aw"/><use transform="matrix(0.06172839506172839,0,0,0.06172839506172839,12.345679012345679,0)" xlink:href="#ao"/><use transform="matrix(0.06172839506172839,0,0,0.06172839506172839,19.691358024691358,0)" xlink:href="#aB"/><use transform="matrix(0.06172839506172839,0,0,0.06172839506172839,32.03703703703704,0)" xlink:href="#aq"/><use transform="matrix(0.06172839506172839,0,0,0.06172839506172839,43.14814814814815,0)" xlink:href="#av"/><use transform="matrix(0.06172839506172839,0,0,0.06172839506172839,55.49382716049383,0)" xlink:href="#bf"/><use transform="matrix(0.06172839506172839,0,0,0.06172839506172839,66.60493827160494,0)" xlink:href="#bf"/></g><g id="ad"><use transform="matrix(0.06172839506172839,0,0,0.06172839506172839,0,0)" xlink:href="#bg"/><use transform="matrix(0.06172839506172839,0,0,0.06172839506172839,14.814814814814813,0)" xlink:href="#ak"/><use transform="matrix(0.06172839506172839,0,0,0.06172839506172839,19.691358024691354,0)" xlink:href="#aC"/></g><g id="ae"><use transform="matrix(0.06172839506172839,0,0,0.06172839506172839,0,0)" xlink:href="#aE"/><use transform="matrix(0.06172839506172839,0,0,0.06172839506172839,12.962962962962962,0)" xlink:href="#aE"/></g><path fill="#fc9432" d="M101-234c-31-9-42 10-38 44h38v23H63V0H32v-167H5v-23h27c-7-52 17-82 69-68v24" id="bx"/><path fill="#fc9432" d="M100-194c62-1 85 37 85 99 1 63-27 99-86 99S16-35 15-95c0-66 28-99 85-99zM99-20c44 1 53-31 53-75 0-43-8-75-51-75s-53 32-53 75 10 74 51 75" id="by"/><path fill="#fc9432" d="M114-163C36-179 61-72 57 0H25l-1-190h30c1 12-1 29 2 39 6-27 23-49 58-41v29" id="bz"/><path fill="#fc9432" d="M143 0L79-87 56-68V0H24v-261h32v163l83-92h37l-77 82L181 0h-38" id="bA"/><g id="af"><use transform="matrix(0.06172839506172839,0,0,0.06172839506172839,0,0)" xlink:href="#bx"/><use transform="matrix(0.06172839506172839,0,0,0.06172839506172839,6.172839506172839,0)" xlink:href="#by"/><use transform="matrix(0.06172839506172839,0,0,0.06172839506172839,18.51851851851852,0)" xlink:href="#bz"/><use transform="matrix(0.06172839506172839,0,0,0.06172839506172839,25.864197530864196,0)" xlink:href="#bA"/></g><path fill="#fc9432" d="M185-189c-5-48-123-54-124 2 14 75 158 14 163 119 3 78-121 87-175 55-17-10-28-26-33-46l33-7c5 56 141 63 141-1 0-78-155-14-162-118-5-82 145-84 179-34 5 7 8 16 11 25" id="bB"/><path fill="#fc9432" d="M127-220V0H93v-220H8v-28h204v28h-85" id="bC"/><path fill="#fc9432" d="M205 0l-28-72H64L36 0H1l101-248h38L239 0h-34zm-38-99l-47-123c-12 45-31 82-46 123h93" id="bD"/><path fill="#fc9432" d="M233-177c-1 41-23 64-60 70L243 0h-38l-65-103H63V0H30v-248c88 3 205-21 203 71zM63-129c60-2 137 13 137-47 0-61-80-42-137-45v92" id="bE"/><g id="ag"><use transform="matrix(0.06172839506172839,0,0,0.06172839506172839,0,0)" xlink:href="#bB"/><use transform="matrix(0.06172839506172839,0,0,0.06172839506172839,14.814814814814813,0)" xlink:href="#bC"/><use transform="matrix(0.06172839506172839,0,0,0.06172839506172839,26.666666666666664,0)" xlink:href="#bD"/><use transform="matrix(0.06172839506172839,0,0,0.06172839506172839,41.48148148148148,0)" xlink:href="#bE"/><use transform="matrix(0.06172839506172839,0,0,0.06172839506172839,57.03703703703703,0)" xlink:href="#bC"/></g><path fill="#fc9432" d="M30 0v-248h187v28H63v79h144v27H63v87h162V0H30" id="bF"/><path fill="#fc9432" d="M190 0L58-211 59 0H30v-248h39L202-35l-2-213h31V0h-41" id="bG"/><path fill="#fc9432" d="M30-248c118-7 216 8 213 122C240-48 200 0 122 0H30v-248zM63-27c89 8 146-16 146-99s-60-101-146-95v194" id="bH"/><g id="ah"><use transform="matrix(0.06172839506172839,0,0,0.06172839506172839,0,0)" xlink:href="#bF"/><use transform="matrix(0.06172839506172839,0,0,0.06172839506172839,14.814814814814813,0)" xlink:href="#bG"/><use transform="matrix(0.06172839506172839,0,0,0.06172839506172839,30.80246913580247,0)" xlink:href="#bH"/></g></defs></g></svg>