<svg xmlns="http://www.w3.org/2000/svg" xmlns:xlink="http://www.w3.org/1999/xlink" xmlns:lucid="lucid" width="544.28" height="1328.31"><g transform="translate(-640 1480)" lucid:page-tab-id="0_0"><path d="M1060-1460c55.23 0 100 14.55 100 32.5s-44.77 32.5-100 32.5H760c-55.23 0-100-14.55-100-32.5s44.77-32.5 100-32.5z" stroke="#5e5e5e" stroke-width="3" fill="#edf5ff"/><use xlink:href="#a" transform="matrix(1,0,0,1,665,-1455) translate(49.937098765432076 31.52777777777778)"/><use xlink:href="#b" transform="matrix(1,0,0,1,665,-1455) translate(104.13462962962961 31.52777777777778)"/><use xlink:href="#c" transform="matrix(1,0,0,1,665,-1455) translate(141.04820987654318 31.52777777777778)"/><use xlink:href="#d" transform="matrix(1,0,0,1,665,-1455) translate(196.54203703703703 31.52777777777778)"/><use xlink:href="#e" transform="matrix(1,0,0,1,665,-1455) translate(245.86302469135802 31.52777777777778)"/><use xlink:href="#d" transform="matrix(1,0,0,1,665,-1455) translate(316.97413580246916 31.52777777777778)"/><use xlink:href="#f" transform="matrix(1,0,0,1,665,-1455) translate(366.2951234567902 31.52777777777778)"/><path d="M910-1392.5v46.62" stroke="#5e5e5e" stroke-width="2" fill="none"/><path d="M911-1392.47h-2v-1.03h2z" stroke="#5e5e5e" stroke-width=".05" fill="#5e5e5e"/><path d="M910-1330.6l-4.63-14.28h9.26z" stroke="#5e5e5e" stroke-width="2" fill="#5e5e5e"/><path d="M904.55-1205.05a13 13 0 0 1 10.9 0l162.85 75.22a2.77 2.77 0 0 1 0 5.03l-162.85 75.22a13 13 0 0 1-10.9 0L741.7-1124.8a2.77 2.77 0 0 1 0-5.03z" stroke="#5e5e5e" stroke-width="3" fill="#fff0f0"/><use xlink:href="#g" transform="matrix(1,0,0,1,741.25,-1202.5625) translate(65.69635802469136 64.96527777777777)"/><use xlink:href="#h" transform="matrix(1,0,0,1,741.25,-1202.5625) translate(137.7333950617284 64.96527777777777)"/><use xlink:href="#i" transform="matrix(1,0,0,1,741.25,-1202.5625) translate(168.5975925925926 64.96527777777777)"/><use xlink:href="#j" transform="matrix(1,0,0,1,741.25,-1202.5625) translate(216.684012345679 64.96527777777777)"/><use xlink:href="#k" transform="matrix(1,0,0,1,741.25,-1202.5625) translate(238.04203703703703 64.96527777777777)"/><use xlink:href="#l" transform="matrix(1,0,0,1,741.25,-1202.5625) translate(249.9556172839506 64.96527777777777)"/><use xlink:href="#m" transform="matrix(1,0,0,1,741.25,-1202.5625) translate(113.51117283950617 91.63194444444446)"/><use xlink:href="#n" transform="matrix(1,0,0,1,741.25,-1202.5625) translate(180.0543827160494 91.63194444444446)"/><use xlink:href="#o" transform="matrix(1,0,0,1,741.25,-1202.5625) translate(212.15314814814815 91.63194444444446)"/><path d="M1161-872.15l-.08 1.06-.26 1.08-.42 1-.57.95-.72.83-.83.72-.94.57-1.02.42-1.06.26-1.06.08h-238l-.82.08-.76.18-.73.3-.67.4-.6.52-.5.6-.4.66-.3.73-.2.76-.06.82v14.96h-2v-15.03l.08-1.05.26-1.07.42-1.02.57-.93.72-.84.83-.7.94-.6 1.02-.4 1.06-.26 1.06-.1h238l.82-.05.76-.18.73-.3.67-.4.6-.52.5-.6.4-.67.3-.72.2-.77.06-.83v-132.48h2zm-5.9-256.08l1.06.26 1.02.42.94.57.83.72.72.83.57.94.42 1.02.26 1.07.08 1.05v92.64h-2v-92.57l-.07-.82-.18-.76-.3-.72-.4-.67-.52-.6-.6-.5-.66-.42-.73-.3-.76-.18-.82-.06h-71.54v-2h71.62z" stroke="#5e5e5e" stroke-width=".05" fill="#5e5e5e"/><path d="M1082.45-1126.3h-1.15l.12-1-.1-.98 1.13-.03z" fill="#5e5e5e"/><path d="M1082.47-1126.3h-1.2l.13-1-.12-1 1.2-.04zm-1.13-1.95l.1.94-.1.96h1.08v-1.95z" stroke="#5e5e5e" stroke-width=".05" fill="#5e5e5e"/><path d="M910-829.92l-4.63-14.27h9.26z" fill="#5e5e5e"/><path d="M910-826.7l-6-18.5h12zm-3.26-16.5l3.26 10.04 3.26-10.03z" stroke="#5e5e5e" stroke-width=".05" fill="#5e5e5e"/><use xlink:href="#p" transform="matrix(1,0,0,1,1146.7222222222222,-1028.7132714158638) translate(0.005000000000000782 16)"/><path d="M911-978.7h-2v-19.4h2zm0-43.4h-2v-23.78h2z" stroke="#5e5e5e" stroke-width=".05" fill="#5e5e5e"/><path d="M910-1046.88l1-.04v1.07h-2v-1.07z" fill="#5e5e5e"/><path d="M910-1046.9l1.02-.05v1.12H909v-1.12zm-.98 1.02H911v-1.02l-.98.05-.98-.05z" stroke="#5e5e5e" stroke-width=".05" fill="#5e5e5e"/><path d="M910-963.42l-4.63-14.27h9.26z" fill="#5e5e5e"/><path d="M910-960.2l-6-18.5h12zm-3.26-16.5l3.26 10.04 3.26-10.03z" stroke="#5e5e5e" stroke-width=".05" fill="#5e5e5e"/><use xlink:href="#q" transform="matrix(1,0,0,1,892.7777777777778,-1022.0901086432657) translate(0.004999999999999005 16)"/><path d="M958-958.7c17.67 0 32 13.44 32 30 0 16.58-14.33 30-32 30h-96c-17.67 0-32-13.42-32-30 0-16.56 14.33-30 32-30z" stroke="#5e5e5e" stroke-width="3" fill="#edf5ff"/><use xlink:href="#r" transform="matrix(1,0,0,1,835,-953.6875) translate(39.87654320987655 30.27777777777778)"/><use xlink:href="#s" transform="matrix(1,0,0,1,835,-953.6875) translate(103.9506172839506 30.27777777777778)"/><path d="M815-819.2a6 6 0 0 1 6-6h178a6 6 0 0 1 6 6v68a6 6 0 0 1-6 6H821a6 6 0 0 1-6-6z" stroke="#5e5e5e" stroke-width="3" fill="#fff3d9"/><use xlink:href="#t" transform="matrix(1,0,0,1,827,-813.1875) translate(8.246913580246911 31.77777777777778)"/><use xlink:href="#u" transform="matrix(1,0,0,1,827,-813.1875) translate(42.691358024691354 31.77777777777778)"/><use xlink:href="#v" transform="matrix(1,0,0,1,827,-813.1875) translate(61.20987654320987 31.77777777777778)"/><use xlink:href="#w" transform="matrix(1,0,0,1,827,-813.1875) translate(109.29629629629629 31.77777777777778)"/><use xlink:href="#x" transform="matrix(1,0,0,1,827,-813.1875) translate(130.65432098765433 31.77777777777778)"/><use xlink:href="#y" transform="matrix(1,0,0,1,827,-813.1875) translate(142.5679012345679 31.77777777777778)"/><path d="M910-742.7v38.48" stroke="#5e5e5e" stroke-width="2" fill="none"/><path d="M911-742.66h-2v-1.03h2z" stroke="#5e5e5e" stroke-width=".05" fill="#5e5e5e"/><path d="M910-688.95l-4.63-14.27h9.26z" stroke="#5e5e5e" stroke-width="2" fill="#5e5e5e"/><path d="M904.68-682.9a11.5 11.5 0 0 1 10.64 0l104.36 54.44a3.13 3.13 0 0 1 0 5.55l-104.36 54.44a11.5 11.5 0 0 1-10.64 0L800.32-622.9a3.13 3.13 0 0 1 0-5.56z" stroke="#5e5e5e" stroke-width="3" fill="#fff0f0"/><use xlink:href="#z" transform="matrix(1,0,0,1,800,-680.6874500000001) translate(59.48030864197531 59.02777777777778)"/><use xlink:href="#A" transform="matrix(1,0,0,1,800,-680.6874500000001) translate(107.56672839506173 59.02777777777778)"/><path d="M1161-297.65l-.08 1.06-.26 1.08-.42 1-.57.95-.72.83-.83.72-.94.57-1.02.42-1.06.26-1.06.08h-240.5l-.82.08-.76.18-.73.3-.67.4-.6.52-.5.6-.4.66-.3.73-.2.76-.06.82v13.96h-2v-14.03l.08-1.05.26-1.07.42-1.02.57-.93.72-.84.83-.7.94-.6 1.02-.4 1.06-.26 1.06-.1h240.5l.82-.05.76-.2.73-.3.67-.4.6-.5.5-.6.4-.67.3-.72.2-.77.06-.83v-234.94h2zm-5.9-328.95l1.06.25 1.02.42.94.58.83.7.72.85.57.93.42 1.02.26 1.07.08 1.05v63.06h-2v-62.98l-.07-.82-.18-.76-.3-.73-.4-.66-.52-.6-.6-.5-.66-.42-.73-.3-.76-.18-.82-.07h-130.1v-2h130.18z" stroke="#5e5e5e" stroke-width=".05" fill="#5e5e5e"/><path d="M1023.9-624.7h-1.14l.1-1-.1-1h1.14z" fill="#5e5e5e"/><path d="M1023.92-624.66h-1.2l.13-1.03-.12-1h1.2zm-1.13-2l.1.97-.1 1h1.07v-1.96z" stroke="#5e5e5e" stroke-width=".05" fill="#5e5e5e"/><path d="M907.5-256.42l-4.63-14.27h9.26z" fill="#5e5e5e"/><path d="M907.5-253.2l-6-18.5h12zm-3.26-16.5l3.26 10.04 3.26-10.03z" stroke="#5e5e5e" stroke-width=".05" fill="#5e5e5e"/><use xlink:href="#p" transform="matrix(1,0,0,1,1146.7222222222222,-556.6666666666666) translate(0.005000000000000782 16)"/><path d="M911-511.7h-2v-14.5h2zm0-38.5h-2v-14.46h2z" stroke="#5e5e5e" stroke-width=".05" fill="#5e5e5e"/><path d="M910-565.66l1-.05v1.07h-2v-1.08z" fill="#5e5e5e"/><path d="M910-565.68l1.02-.05v1.12H909v-1.13zm-.98 1.02H911v-1.02l-.98.05-.98-.05z" stroke="#5e5e5e" stroke-width=".05" fill="#5e5e5e"/><path d="M910-496.42l-4.63-14.27h9.26z" fill="#5e5e5e"/><path d="M910-493.2l-6-18.5h12zm-3.26-16.5l3.26 10.04 3.26-10.03z" stroke="#5e5e5e" stroke-width=".05" fill="#5e5e5e"/><g><use xlink:href="#q" transform="matrix(1,0,0,1,892.7777777777778,-550.1874999999999) translate(0.004999999999999005 16)"/></g><path d="M830-485.7a6 6 0 0 1 6-6h148a6 6 0 0 1 6 6v48a6 6 0 0 1-6 6H836a6 6 0 0 1-6-6z" stroke="#5e5e5e" stroke-width="3" fill="#fff3d9"/><g><use xlink:href="#B" transform="matrix(1,0,0,1,842,-479.68745000000024) translate(20.006172839506178 22.27777777777778)"/><use xlink:href="#C" transform="matrix(1,0,0,1,842,-479.68745000000024) translate(69.26543209876544 22.27777777777778)"/></g><path d="M910-429.2v37.5" stroke="#5e5e5e" stroke-width="2" fill="none"/><path d="M911-429.16h-2v-1.03h2z" stroke="#5e5e5e" stroke-width=".05" fill="#5e5e5e"/><path d="M910-376.42l-4.63-14.27h9.26z" stroke="#5e5e5e" stroke-width="2" fill="#5e5e5e"/><path d="M958-371.7c17.67 0 32 13.44 32 30 0 16.58-14.33 30-32 30h-96c-17.67 0-32-13.42-32-30 0-16.56 14.33-30 32-30z" stroke="#5e5e5e" stroke-width="3" fill="#edf5ff"/><g><use xlink:href="#D" transform="matrix(1,0,0,1,835,-366.6874500000001) translate(31.882716049382715 30.27777777777778)"/><use xlink:href="#E" transform="matrix(1,0,0,1,835,-366.6874500000001) translate(72.56172839506173 30.27777777777778)"/><use xlink:href="#F" transform="matrix(1,0,0,1,835,-366.6874500000001) translate(86.08024691358025 30.27777777777778)"/><use xlink:href="#G" transform="matrix(1,0,0,1,835,-366.6874500000001) translate(104.59876543209876 30.27777777777778)"/></g><path d="M963-251.7c20.43 0 37 17.92 37 40 0 22.1-16.57 40-37 40H852c-20.43 0-37-17.9-37-40 0-22.08 16.57-40 37-40z" stroke="#5e5e5e" stroke-width="3" fill="#edf5ff"/><g><use xlink:href="#H" transform="matrix(1,0,0,1,820,-246.68745000000024) translate(14.691358024691354 39.65277777777778)"/><use xlink:href="#I" transform="matrix(1,0,0,1,820,-246.68745000000024) translate(57.901234567901234 39.65277777777778)"/><use xlink:href="#J" transform="matrix(1,0,0,1,820,-246.68745000000024) translate(82.5925925925926 39.65277777777778)"/></g><path d="M745-1319.88a6 6 0 0 1 6-6h318a6 6 0 0 1 6 6v45.26a6 6 0 0 1-6 6H751a6 6 0 0 1-6-6z" stroke="#5e5e5e" stroke-width="3" fill="#fcfcca"/><g><use xlink:href="#K" transform="matrix(1,0,0,1,757,-1313.875) translate(8.802469135802454 22.02777777777778)"/><use xlink:href="#L" transform="matrix(1,0,0,1,757,-1313.875) translate(97.50617283950616 22.02777777777778)"/><use xlink:href="#M" transform="matrix(1,0,0,1,757,-1313.875) translate(111.02469135802468 22.02777777777778)"/><use xlink:href="#N" transform="matrix(1,0,0,1,757,-1313.875) translate(233.12345679012347 22.02777777777778)"/><use xlink:href="#O" transform="matrix(1,0,0,1,757,-1313.875) translate(289.85185185185185 22.02777777777778)"/></g><path d="M910-1266.13v39.88" stroke="#5e5e5e" stroke-width="2" fill="none"/><path d="M911-1266.1h-2v-1.03h2z" stroke="#5e5e5e" stroke-width=".05" fill="#5e5e5e"/><path d="M910-1210.98l-4.63-14.27h9.26z" stroke="#5e5e5e" stroke-width="2" fill="#5e5e5e"/><defs><path fill="#333" d="M210-169c-67 3-38 105-44 169h-31v-121c0-29-5-50-35-48C34-165 62-65 56 0H25l-1-190h30c1 10-1 24 2 32 10-44 99-50 107 0 11-21 27-35 58-36 85-2 47 119 55 194h-31v-121c0-29-5-49-35-48" id="P"/><path fill="#333" d="M141-36C126-15 110 5 73 4 37 3 15-17 15-53c-1-64 63-63 125-63 3-35-9-54-41-54-24 1-41 7-42 31l-33-3c5-37 33-52 76-52 45 0 72 20 72 64v82c-1 20 7 32 28 27v20c-31 9-61-2-59-35zM48-53c0 20 12 33 32 33 41-3 63-29 60-74-43 2-92-5-92 41" id="Q"/><path fill="#333" d="M24-231v-30h32v30H24zM24 0v-190h32V0H24" id="R"/><path fill="#333" d="M117-194c89-4 53 116 60 194h-32v-121c0-31-8-49-39-48C34-167 62-67 57 0H25l-1-190h30c1 10-1 24 2 32 11-22 29-35 61-36" id="S"/><g id="a"><use transform="matrix(0.06172839506172839,0,0,0.06172839506172839,0,0)" xlink:href="#P"/><use transform="matrix(0.06172839506172839,0,0,0.06172839506172839,18.456790123456788,0)" xlink:href="#Q"/><use transform="matrix(0.06172839506172839,0,0,0.06172839506172839,30.80246913580247,0)" xlink:href="#R"/><use transform="matrix(0.06172839506172839,0,0,0.06172839506172839,35.67901234567901,0)" xlink:href="#S"/></g><path fill="#333" d="M87 75C49 33 22-17 22-94c0-76 28-126 65-167h31c-38 41-64 92-64 168S80 34 118 75H87" id="T"/><path fill="#333" d="M59-47c-2 24 18 29 38 22v24C64 9 27 4 27-40v-127H5v-23h24l9-43h21v43h35v23H59v120" id="U"/><g id="b"><use transform="matrix(0.06172839506172839,0,0,0.06172839506172839,0,0)" xlink:href="#T"/><use transform="matrix(0.06172839506172839,0,0,0.06172839506172839,7.345679012345679,0)" xlink:href="#R"/><use transform="matrix(0.06172839506172839,0,0,0.06172839506172839,12.222222222222221,0)" xlink:href="#S"/><use transform="matrix(0.06172839506172839,0,0,0.06172839506172839,24.5679012345679,0)" xlink:href="#U"/></g><path fill="#333" d="M114-163C36-179 61-72 57 0H25l-1-190h30c1 12-1 29 2 39 6-27 23-49 58-41v29" id="V"/><path fill="#333" d="M177-190C167-65 218 103 67 71c-23-6-38-20-44-43l32-5c15 47 100 32 89-28v-30C133-14 115 1 83 1 29 1 15-40 15-95c0-56 16-97 71-98 29-1 48 16 59 35 1-10 0-23 2-32h30zM94-22c36 0 50-32 50-73 0-42-14-75-50-75-39 0-46 34-46 75s6 73 46 73" id="W"/><path fill="#333" d="M96-169c-40 0-48 33-48 73s9 75 48 75c24 0 41-14 43-38l32 2c-6 37-31 61-74 61-59 0-76-41-82-99-10-93 101-131 147-64 4 7 5 14 7 22l-32 3c-4-21-16-35-41-35" id="X"/><path fill="#333" d="M68-38c1 34 0 65-14 84H32c9-13 17-26 17-46H33v-38h35" id="Y"/><g id="c"><use transform="matrix(0.06172839506172839,0,0,0.06172839506172839,0,0)" xlink:href="#Q"/><use transform="matrix(0.06172839506172839,0,0,0.06172839506172839,12.345679012345679,0)" xlink:href="#V"/><use transform="matrix(0.06172839506172839,0,0,0.06172839506172839,19.691358024691358,0)" xlink:href="#W"/><use transform="matrix(0.06172839506172839,0,0,0.06172839506172839,32.03703703703704,0)" xlink:href="#X"/><use transform="matrix(0.06172839506172839,0,0,0.06172839506172839,43.14814814814815,0)" xlink:href="#Y"/></g><path fill="#333" d="M106-169C34-169 62-67 57 0H25v-261h32l-1 103c12-21 28-36 61-36 89 0 53 116 60 194h-32v-121c2-32-8-49-39-48" id="Z"/><g id="d"><use transform="matrix(0.06172839506172839,0,0,0.06172839506172839,0,0)" xlink:href="#X"/><use transform="matrix(0.06172839506172839,0,0,0.06172839506172839,11.11111111111111,0)" xlink:href="#Z"/><use transform="matrix(0.06172839506172839,0,0,0.06172839506172839,23.45679012345679,0)" xlink:href="#Q"/><use transform="matrix(0.06172839506172839,0,0,0.06172839506172839,35.80246913580247,0)" xlink:href="#V"/></g><path fill="#333" d="M80-196l47-18 7 23-49 13 32 44-20 13-27-46-27 45-21-12 33-44-49-13 8-23 47 19-2-53h23" id="aa"/><path fill="#333" d="M108 0H70L1-190h34L89-25l56-165h34" id="ab"/><g id="e"><use transform="matrix(0.06172839506172839,0,0,0.06172839506172839,0,0)" xlink:href="#aa"/><use transform="matrix(0.06172839506172839,0,0,0.06172839506172839,8.641975308641975,0)" xlink:href="#aa"/><use transform="matrix(0.06172839506172839,0,0,0.06172839506172839,17.28395061728395,0)" xlink:href="#Q"/><use transform="matrix(0.06172839506172839,0,0,0.06172839506172839,29.629629629629626,0)" xlink:href="#V"/><use transform="matrix(0.06172839506172839,0,0,0.06172839506172839,36.9753086419753,0)" xlink:href="#W"/><use transform="matrix(0.06172839506172839,0,0,0.06172839506172839,49.32098765432098,0)" xlink:href="#ab"/><use transform="matrix(0.06172839506172839,0,0,0.06172839506172839,58.76543209876543,0)" xlink:href="#Y"/></g><path fill="#333" d="M100-194c63 0 86 42 84 106H49c0 40 14 67 53 68 26 1 43-12 49-29l28 8c-11 28-37 45-77 45C44 4 14-33 15-96c1-61 26-98 85-98zm52 81c6-60-76-77-97-28-3 7-6 17-6 28h103" id="ac"/><path fill="#333" d="M115-194c55 1 70 41 70 98S169 2 115 4C84 4 66-9 55-30l1 105H24l-1-265h31l2 30c10-21 28-34 59-34zm-8 174c40 0 45-34 45-75s-6-73-45-74c-42 0-51 32-51 76 0 43 10 73 51 73" id="ad"/><path fill="#333" d="M33-261c38 41 65 92 65 168S71 34 33 75H2C39 34 66-17 66-93S39-220 2-261h31" id="ae"/><g id="f"><use transform="matrix(0.06172839506172839,0,0,0.06172839506172839,0,0)" xlink:href="#aa"/><use transform="matrix(0.06172839506172839,0,0,0.06172839506172839,8.641975308641975,0)" xlink:href="#aa"/><use transform="matrix(0.06172839506172839,0,0,0.06172839506172839,17.28395061728395,0)" xlink:href="#ac"/><use transform="matrix(0.06172839506172839,0,0,0.06172839506172839,29.629629629629626,0)" xlink:href="#S"/><use transform="matrix(0.06172839506172839,0,0,0.06172839506172839,41.9753086419753,0)" xlink:href="#ab"/><use transform="matrix(0.06172839506172839,0,0,0.06172839506172839,53.08641975308642,0)" xlink:href="#ad"/><use transform="matrix(0.06172839506172839,0,0,0.06172839506172839,65.4320987654321,0)" xlink:href="#ae"/></g><path fill="#333" d="M47-170H22l-4-78h33" id="af"/><path fill="#333" d="M135-143c-3-34-86-38-87 0 15 53 115 12 119 90S17 21 10-45l28-5c4 36 97 45 98 0-10-56-113-15-118-90-4-57 82-63 122-42 12 7 21 19 24 35" id="ag"/><g id="g"><use transform="matrix(0.06172839506172839,0,0,0.06172839506172839,0,0)" xlink:href="#U"/><use transform="matrix(0.06172839506172839,0,0,0.06172839506172839,6.172839506172839,0)" xlink:href="#Z"/><use transform="matrix(0.06172839506172839,0,0,0.06172839506172839,18.51851851851852,0)" xlink:href="#ac"/><use transform="matrix(0.06172839506172839,0,0,0.06172839506172839,30.864197530864196,0)" xlink:href="#V"/><use transform="matrix(0.06172839506172839,0,0,0.06172839506172839,38.20987654320987,0)" xlink:href="#ac"/><use transform="matrix(0.06172839506172839,0,0,0.06172839506172839,50.55555555555555,0)" xlink:href="#af"/><use transform="matrix(0.06172839506172839,0,0,0.06172839506172839,54.75308641975308,0)" xlink:href="#ag"/></g><path fill="#333" d="M100-194c62-1 85 37 85 99 1 63-27 99-86 99S16-35 15-95c0-66 28-99 85-99zM99-20c44 1 53-31 53-75 0-43-8-75-51-75s-53 32-53 75 10 74 51 75" id="ah"/><g id="h"><use transform="matrix(0.06172839506172839,0,0,0.06172839506172839,0,0)" xlink:href="#S"/><use transform="matrix(0.06172839506172839,0,0,0.06172839506172839,12.345679012345679,0)" xlink:href="#ah"/></g><g id="i"><use transform="matrix(0.06172839506172839,0,0,0.06172839506172839,0,0)" xlink:href="#ad"/><use transform="matrix(0.06172839506172839,0,0,0.06172839506172839,12.345679012345679,0)" xlink:href="#R"/><use transform="matrix(0.06172839506172839,0,0,0.06172839506172839,17.22222222222222,0)" xlink:href="#ad"/><use transform="matrix(0.06172839506172839,0,0,0.06172839506172839,29.5679012345679,0)" xlink:href="#ac"/></g><path fill="#333" d="M109-170H84l-4-78h32zm-65 0H19l-4-78h33" id="ai"/><g id="j"><use transform="matrix(0.06172839506172839,0,0,0.06172839506172839,0,0)" xlink:href="#T"/><use transform="matrix(0.06172839506172839,0,0,0.06172839506172839,7.345679012345679,0)" xlink:href="#ai"/></g><path fill="#333" d="M32 76v-337h29V76H32" id="aj"/><use transform="matrix(0.06172839506172839,0,0,0.06172839506172839,0,0)" xlink:href="#aj" id="k"/><g id="l"><use transform="matrix(0.06172839506172839,0,0,0.06172839506172839,0,0)" xlink:href="#ai"/><use transform="matrix(0.06172839506172839,0,0,0.06172839506172839,7.8395061728395055,0)" xlink:href="#ae"/><use transform="matrix(0.06172839506172839,0,0,0.06172839506172839,15.185185185185183,0)" xlink:href="#Y"/></g><path fill="#333" d="M30-248c87 1 191-15 191 75 0 78-77 80-158 76V0H30v-248zm33 125c57 0 124 11 124-50 0-59-68-47-124-48v98" id="ak"/><g id="m"><use transform="matrix(0.06172839506172839,0,0,0.06172839506172839,0,0)" xlink:href="#R"/><use transform="matrix(0.06172839506172839,0,0,0.06172839506172839,4.876543209876543,0)" xlink:href="#ag"/><use transform="matrix(0.06172839506172839,0,0,0.06172839506172839,15.987654320987653,0)" xlink:href="#ak"/><use transform="matrix(0.06172839506172839,0,0,0.06172839506172839,30.80246913580247,0)" xlink:href="#R"/><use transform="matrix(0.06172839506172839,0,0,0.06172839506172839,35.67901234567901,0)" xlink:href="#ad"/><use transform="matrix(0.06172839506172839,0,0,0.06172839506172839,48.02469135802469,0)" xlink:href="#ac"/></g><path fill="#333" d="M18-150v-26h174v26H18zm0 90v-26h174v26H18" id="al"/><g id="n"><use transform="matrix(0.06172839506172839,0,0,0.06172839506172839,0,0)" xlink:href="#al"/><use transform="matrix(0.06172839506172839,0,0,0.06172839506172839,12.962962962962962,0)" xlink:href="#al"/></g><path fill="#333" d="M101-251c68 0 85 55 85 127S166 4 100 4C33 4 14-52 14-124c0-73 17-127 87-127zm-1 229c47 0 54-49 54-102s-4-102-53-102c-51 0-55 48-55 102 0 53 5 102 54 102" id="am"/><use transform="matrix(0.06172839506172839,0,0,0.06172839506172839,0,0)" xlink:href="#am" id="o"/><path fill="#008a0e" d="M175 0L67-191c6 58 2 128 3 191H24v-248h59L193-55c-6-58-2-129-3-193h46V0h-61" id="an"/><path fill="#008a0e" d="M110-194c64 0 96 36 96 99 0 64-35 99-97 99-61 0-95-36-95-99 0-62 34-99 96-99zm-1 164c35 0 45-28 45-65 0-40-10-65-43-65-34 0-45 26-45 65 0 36 10 65 43 65" id="ao"/><g id="p"><use transform="matrix(0.05555555555555555,0,0,0.05555555555555555,0,0)" xlink:href="#an"/><use transform="matrix(0.05555555555555555,0,0,0.05555555555555555,14.388888888888888,0)" xlink:href="#ao"/></g><path fill="#e81313" d="M146-102V0H94v-102L6-248h54l60 105 60-105h54" id="ap"/><path fill="#e81313" d="M185-48c-13 30-37 53-82 52C43 2 14-33 14-96s30-98 90-98c62 0 83 45 84 108H66c0 31 8 55 39 56 18 0 30-7 34-22zm-45-69c5-46-57-63-70-21-2 6-4 13-4 21h74" id="aq"/><path fill="#e81313" d="M137-138c1-29-70-34-71-4 15 46 118 7 119 86 1 83-164 76-172 9l43-7c4 19 20 25 44 25 33 8 57-30 24-41C81-84 22-81 20-136c-2-80 154-74 161-7" id="ar"/><g id="q"><use transform="matrix(0.05555555555555555,0,0,0.05555555555555555,0,0)" xlink:href="#ap"/><use transform="matrix(0.05555555555555555,0,0,0.05555555555555555,12.222222222222221,0)" xlink:href="#aq"/><use transform="matrix(0.05555555555555555,0,0,0.05555555555555555,23.333333333333332,0)" xlink:href="#ar"/></g><path fill="#333" d="M84 4C-5 8 30-112 23-190h32v120c0 31 7 50 39 49 72-2 45-101 50-169h31l1 190h-30c-1-10 1-25-2-33-11 22-28 36-60 37" id="as"/><g id="r"><use transform="matrix(0.06172839506172839,0,0,0.06172839506172839,0,0)" xlink:href="#V"/><use transform="matrix(0.06172839506172839,0,0,0.06172839506172839,7.345679012345679,0)" xlink:href="#ac"/><use transform="matrix(0.06172839506172839,0,0,0.06172839506172839,19.691358024691358,0)" xlink:href="#U"/><use transform="matrix(0.06172839506172839,0,0,0.06172839506172839,25.864197530864196,0)" xlink:href="#as"/><use transform="matrix(0.06172839506172839,0,0,0.06172839506172839,38.20987654320987,0)" xlink:href="#V"/><use transform="matrix(0.06172839506172839,0,0,0.06172839506172839,45.55555555555555,0)" xlink:href="#S"/></g><path fill="#333" d="M68-36c1 33-1 63-14 82H32c9-13 17-26 17-46H33v-36h35zM33-154v-36h35v36H33" id="at"/><use transform="matrix(0.06172839506172839,0,0,0.06172839506172839,0,0)" xlink:href="#at" id="s"/><g id="t"><use transform="matrix(0.06172839506172839,0,0,0.06172839506172839,0,0)" xlink:href="#R"/><use transform="matrix(0.06172839506172839,0,0,0.06172839506172839,4.876543209876543,0)" xlink:href="#S"/><use transform="matrix(0.06172839506172839,0,0,0.06172839506172839,17.22222222222222,0)" xlink:href="#R"/><use transform="matrix(0.06172839506172839,0,0,0.06172839506172839,22.098765432098766,0)" xlink:href="#U"/></g><use transform="matrix(0.06172839506172839,0,0,0.06172839506172839,0,0)" xlink:href="#Q" id="u"/><g id="v"><use transform="matrix(0.06172839506172839,0,0,0.06172839506172839,0,0)" xlink:href="#ad"/><use transform="matrix(0.06172839506172839,0,0,0.06172839506172839,12.345679012345679,0)" xlink:href="#R"/><use transform="matrix(0.06172839506172839,0,0,0.06172839506172839,17.22222222222222,0)" xlink:href="#ad"/><use transform="matrix(0.06172839506172839,0,0,0.06172839506172839,29.5679012345679,0)" xlink:href="#ac"/></g><g id="w"><use transform="matrix(0.06172839506172839,0,0,0.06172839506172839,0,0)" xlink:href="#T"/><use transform="matrix(0.06172839506172839,0,0,0.06172839506172839,7.345679012345679,0)" xlink:href="#ai"/></g><use transform="matrix(0.06172839506172839,0,0,0.06172839506172839,0,0)" xlink:href="#aj" id="x"/><g id="y"><use transform="matrix(0.06172839506172839,0,0,0.06172839506172839,0,0)" xlink:href="#ai"/><use transform="matrix(0.06172839506172839,0,0,0.06172839506172839,7.8395061728395055,0)" xlink:href="#ae"/></g><g id="z"><use transform="matrix(0.06172839506172839,0,0,0.06172839506172839,0,0)" xlink:href="#ad"/><use transform="matrix(0.06172839506172839,0,0,0.06172839506172839,12.345679012345679,0)" xlink:href="#R"/><use transform="matrix(0.06172839506172839,0,0,0.06172839506172839,17.22222222222222,0)" xlink:href="#ad"/><use transform="matrix(0.06172839506172839,0,0,0.06172839506172839,29.5679012345679,0)" xlink:href="#ac"/></g><path fill="#333" d="M101-234c-31-9-42 10-38 44h38v23H63V0H32v-167H5v-23h27c-7-52 17-82 69-68v24" id="au"/><path fill="#333" d="M24 0v-261h32V0H24" id="av"/><path fill="#333" d="M85-194c31 0 48 13 60 33l-1-100h32l1 261h-30c-2-10 0-23-3-31C134-8 116 4 85 4 32 4 16-35 15-94c0-66 23-100 70-100zm9 24c-40 0-46 34-46 75 0 40 6 74 45 74 42 0 51-32 51-76 0-42-9-74-50-73" id="aw"/><g id="A"><use transform="matrix(0.06172839506172839,0,0,0.06172839506172839,0,0)" xlink:href="#au"/><use transform="matrix(0.06172839506172839,0,0,0.06172839506172839,6.172839506172839,0)" xlink:href="#Q"/><use transform="matrix(0.06172839506172839,0,0,0.06172839506172839,18.51851851851852,0)" xlink:href="#R"/><use transform="matrix(0.06172839506172839,0,0,0.06172839506172839,23.395061728395063,0)" xlink:href="#av"/><use transform="matrix(0.06172839506172839,0,0,0.06172839506172839,28.271604938271608,0)" xlink:href="#ac"/><use transform="matrix(0.06172839506172839,0,0,0.06172839506172839,40.617283950617285,0)" xlink:href="#aw"/></g><g id="B"><use transform="matrix(0.06172839506172839,0,0,0.06172839506172839,0,0)" xlink:href="#ad"/><use transform="matrix(0.06172839506172839,0,0,0.06172839506172839,12.345679012345679,0)" xlink:href="#V"/><use transform="matrix(0.06172839506172839,0,0,0.06172839506172839,19.691358024691358,0)" xlink:href="#R"/><use transform="matrix(0.06172839506172839,0,0,0.06172839506172839,24.5679012345679,0)" xlink:href="#S"/><use transform="matrix(0.06172839506172839,0,0,0.06172839506172839,36.913580246913575,0)" xlink:href="#U"/></g><g id="C"><use transform="matrix(0.06172839506172839,0,0,0.06172839506172839,0,0)" xlink:href="#ac"/><use transform="matrix(0.06172839506172839,0,0,0.06172839506172839,12.345679012345679,0)" xlink:href="#V"/><use transform="matrix(0.06172839506172839,0,0,0.06172839506172839,19.691358024691358,0)" xlink:href="#V"/><use transform="matrix(0.06172839506172839,0,0,0.06172839506172839,27.037037037037038,0)" xlink:href="#ah"/><use transform="matrix(0.06172839506172839,0,0,0.06172839506172839,39.382716049382715,0)" xlink:href="#V"/></g><path fill="#333" d="M141 0L90-78 38 0H4l68-98-65-92h35l48 74 47-74h35l-64 92 68 98h-35" id="ax"/><g id="D"><use transform="matrix(0.06172839506172839,0,0,0.06172839506172839,0,0)" xlink:href="#ac"/><use transform="matrix(0.06172839506172839,0,0,0.06172839506172839,12.345679012345679,0)" xlink:href="#ax"/><use transform="matrix(0.06172839506172839,0,0,0.06172839506172839,23.45679012345679,0)" xlink:href="#R"/><use transform="matrix(0.06172839506172839,0,0,0.06172839506172839,28.333333333333336,0)" xlink:href="#U"/></g><use transform="matrix(0.06172839506172839,0,0,0.06172839506172839,0,0)" xlink:href="#T" id="E"/><path fill="#333" d="M27 0v-27h64v-190l-56 39v-29l58-41h29v221h61V0H27" id="ay"/><use transform="matrix(0.06172839506172839,0,0,0.06172839506172839,0,0)" xlink:href="#ay" id="F"/><g id="G"><use transform="matrix(0.06172839506172839,0,0,0.06172839506172839,0,0)" xlink:href="#ae"/><use transform="matrix(0.06172839506172839,0,0,0.06172839506172839,7.345679012345679,0)" xlink:href="#at"/></g><g id="H"><use transform="matrix(0.06172839506172839,0,0,0.06172839506172839,0,0)" xlink:href="#ac"/><use transform="matrix(0.06172839506172839,0,0,0.06172839506172839,12.345679012345679,0)" xlink:href="#S"/><use transform="matrix(0.06172839506172839,0,0,0.06172839506172839,24.691358024691358,0)" xlink:href="#aw"/></g><g id="I"><use transform="matrix(0.06172839506172839,0,0,0.06172839506172839,0,0)" xlink:href="#ah"/><use transform="matrix(0.06172839506172839,0,0,0.06172839506172839,12.345679012345679,0)" xlink:href="#au"/></g><g id="J"><use transform="matrix(0.06172839506172839,0,0,0.06172839506172839,0,0)" xlink:href="#au"/><use transform="matrix(0.06172839506172839,0,0,0.06172839506172839,6.172839506172839,0)" xlink:href="#as"/><use transform="matrix(0.06172839506172839,0,0,0.06172839506172839,18.51851851851852,0)" xlink:href="#S"/><use transform="matrix(0.06172839506172839,0,0,0.06172839506172839,30.864197530864196,0)" xlink:href="#X"/><use transform="matrix(0.06172839506172839,0,0,0.06172839506172839,41.9753086419753,0)" xlink:href="#U"/><use transform="matrix(0.06172839506172839,0,0,0.06172839506172839,48.148148148148145,0)" xlink:href="#R"/><use transform="matrix(0.06172839506172839,0,0,0.06172839506172839,53.02469135802469,0)" xlink:href="#ah"/><use transform="matrix(0.06172839506172839,0,0,0.06172839506172839,65.37037037037037,0)" xlink:href="#S"/></g><path fill="#333" d="M-5 72V49h209v23H-5" id="az"/><g id="K"><use transform="matrix(0.06172839506172839,0,0,0.06172839506172839,0,0)" xlink:href="#R"/><use transform="matrix(0.06172839506172839,0,0,0.06172839506172839,4.876543209876543,0)" xlink:href="#S"/><use transform="matrix(0.06172839506172839,0,0,0.06172839506172839,17.22222222222222,0)" xlink:href="#R"/><use transform="matrix(0.06172839506172839,0,0,0.06172839506172839,22.098765432098766,0)" xlink:href="#U"/><use transform="matrix(0.06172839506172839,0,0,0.06172839506172839,28.271604938271604,0)" xlink:href="#az"/><use transform="matrix(0.06172839506172839,0,0,0.06172839506172839,40.617283950617285,0)" xlink:href="#ad"/><use transform="matrix(0.06172839506172839,0,0,0.06172839506172839,52.96296296296296,0)" xlink:href="#R"/><use transform="matrix(0.06172839506172839,0,0,0.06172839506172839,57.839506172839506,0)" xlink:href="#ad"/><use transform="matrix(0.06172839506172839,0,0,0.06172839506172839,70.18518518518519,0)" xlink:href="#ac"/></g><use transform="matrix(0.06172839506172839,0,0,0.06172839506172839,0,0)" xlink:href="#T" id="L"/><g id="M"><use transform="matrix(0.06172839506172839,0,0,0.06172839506172839,0,0)" xlink:href="#U"/><use transform="matrix(0.06172839506172839,0,0,0.06172839506172839,6.172839506172839,0)" xlink:href="#az"/><use transform="matrix(0.06172839506172839,0,0,0.06172839506172839,18.51851851851852,0)" xlink:href="#X"/><use transform="matrix(0.06172839506172839,0,0,0.06172839506172839,29.62962962962963,0)" xlink:href="#ah"/><use transform="matrix(0.06172839506172839,0,0,0.06172839506172839,41.97530864197531,0)" xlink:href="#P"/><use transform="matrix(0.06172839506172839,0,0,0.06172839506172839,60.4320987654321,0)" xlink:href="#P"/><use transform="matrix(0.06172839506172839,0,0,0.06172839506172839,78.88888888888889,0)" xlink:href="#Q"/><use transform="matrix(0.06172839506172839,0,0,0.06172839506172839,91.23456790123457,0)" xlink:href="#S"/><use transform="matrix(0.06172839506172839,0,0,0.06172839506172839,103.58024691358025,0)" xlink:href="#aw"/></g><g id="N"><use transform="matrix(0.06172839506172839,0,0,0.06172839506172839,0,0)" xlink:href="#aa"/><use transform="matrix(0.06172839506172839,0,0,0.06172839506172839,8.641975308641975,0)" xlink:href="#X"/><use transform="matrix(0.06172839506172839,0,0,0.06172839506172839,19.753086419753085,0)" xlink:href="#P"/><use transform="matrix(0.06172839506172839,0,0,0.06172839506172839,38.20987654320987,0)" xlink:href="#aw"/></g><use transform="matrix(0.06172839506172839,0,0,0.06172839506172839,0,0)" xlink:href="#ae" id="O"/></defs></g></svg>