<svg xmlns="http://www.w3.org/2000/svg" xmlns:xlink="http://www.w3.org/1999/xlink" xmlns:lucid="lucid" width="758.72" height="1983.33"><g transform="translate(-77.02777777777779 120)" lucid:page-tab-id="0_0"><path d="M460-38V.5" stroke="#5e5e5e" stroke-width="2" fill="none"/><path d="M461-37.97h-2V-39h2z" stroke="#5e5e5e" stroke-width=".05" fill="#5e5e5e"/><path d="M460 15.76L455.37 1.5h9.26z" stroke="#5e5e5e" stroke-width="2" fill="#5e5e5e"/><path d="M176.53 26a6 6 0 0 1 6-6h554.94a6 6 0 0 1 6 6v51a6 6 0 0 1-6 6H182.52a6 6 0 0 1-6-6z" stroke="#5e5e5e" stroke-width="2" fill="#fcfcca"/><use xlink:href="#a" transform="matrix(1,0,0,1,188.53543342649334,32) translate(5.054938271604954 24.734722222222224)"/><use xlink:href="#b" transform="matrix(1,0,0,1,188.53543342649334,32) translate(153.68827160493828 24.734722222222224)"/><use xlink:href="#c" transform="matrix(1,0,0,1,188.53543342649334,32) translate(166.93641975308643 24.734722222222224)"/><use xlink:href="#d" transform="matrix(1,0,0,1,188.53543342649334,32) translate(215.270987654321 24.734722222222224)"/><use xlink:href="#e" transform="matrix(1,0,0,1,188.53543342649334,32) translate(355.49567901234576 24.734722222222224)"/><use xlink:href="#f" transform="matrix(1,0,0,1,188.53543342649334,32) translate(475.1524691358025 24.734722222222224)"/><use xlink:href="#g" transform="matrix(1,0,0,1,188.53543342649334,32) translate(530.7462962962964 24.734722222222224)"/><path d="M460 85v54.58" stroke="#5e5e5e" stroke-width="2" fill="none"/><path d="M461 85.02h-2V84h2z" stroke="#5e5e5e" stroke-width=".05" fill="#5e5e5e"/><path d="M460 154.84l-4.63-14.26h9.26z" stroke="#5e5e5e" stroke-width="2" fill="#5e5e5e"/><path d="M454.8 160.47a10.44 10.44 0 0 1 10.4 0L654.8 269.5a3.45 3.45 0 0 1 0 5.97L465.2 384.5a10.44 10.44 0 0 1-10.4 0L265.2 275.46a3.45 3.45 0 0 1 0-5.98z" stroke="#5e5e5e" stroke-width="2" fill="#fff0f0"/><use xlink:href="#h" transform="matrix(1,0,0,1,265.0000003556272,162.48031496062993) translate(80.68401234567902 86.52777777777777)"/><use xlink:href="#i" transform="matrix(1,0,0,1,265.0000003556272,162.48031496062993) translate(218.70870370370372 86.52777777777777)"/><use xlink:href="#j" transform="matrix(1,0,0,1,265.0000003556272,162.48031496062993) translate(244.01734567901235 86.52777777777777)"/><use xlink:href="#k" transform="matrix(1,0,0,1,265.0000003556272,162.48031496062993) translate(262.5358641975308 86.52777777777777)"/><use xlink:href="#l" transform="matrix(1,0,0,1,265.0000003556272,162.48031496062993) translate(69.7580864197531 113.19444444444446)"/><use xlink:href="#i" transform="matrix(1,0,0,1,265.0000003556272,162.48031496062993) translate(207.7827777777778 113.19444444444446)"/><use xlink:href="#m" transform="matrix(1,0,0,1,265.0000003556272,162.48031496062993) translate(233.09141975308643 113.19444444444446)"/><use xlink:href="#n" transform="matrix(1,0,0,1,265.0000003556272,162.48031496062993) translate(247.10376543209878 113.19444444444446)"/><use xlink:href="#m" transform="matrix(1,0,0,1,265.0000003556272,162.48031496062993) translate(259.44944444444445 113.19444444444446)"/><use xlink:href="#k" transform="matrix(1,0,0,1,265.0000003556272,162.48031496062993) translate(273.4617901234568 113.19444444444446)"/><use xlink:href="#l" transform="matrix(1,0,0,1,265.0000003556272,162.48031496062993) translate(96.4556172839506 139.86111111111111)"/><use xlink:href="#i" transform="matrix(1,0,0,1,265.0000003556272,162.48031496062993) translate(234.4803086419753 139.86111111111111)"/><use xlink:href="#m" transform="matrix(1,0,0,1,265.0000003556272,162.48031496062993) translate(259.78895061728394 139.86111111111111)"/><use xlink:href="#o" transform="matrix(1,0,0,1,265.0000003556272,162.48031496062993) translate(273.8012962962963 139.86111111111111)"/><use xlink:href="#p" transform="matrix(1,0,0,1,265.0000003556272,162.48031496062993) translate(285.71487654320987 139.86111111111111)"/><path d="M461 519.5h-2V448h2zm0-95.5h-2v-36.12h2z" stroke="#5e5e5e" stroke-width=".05" fill="#5e5e5e"/><path d="M460 386.88l1-.05v1.07h-2v-1.07z" fill="#5e5e5e"/><path d="M460 386.86l1.02-.06v1.13h-2.04v-1.13zm-.98 1.02h1.96v-1.03l-.98.05-.98-.05z" stroke="#5e5e5e" stroke-width=".05" fill="#5e5e5e"/><path d="M460 534.76l-4.63-14.26h9.26z" fill="#5e5e5e"/><path d="M460 538l-6-18.5h12zm-3.26-16.5l3.26 10.03 3.26-10.03z" stroke="#5e5e5e" stroke-width=".05" fill="#5e5e5e"/><use xlink:href="#q" transform="matrix(1,0,0,1,367.4166670222939,424) translate(0.0049999999999954525 15.999999999999998)"/><use xlink:href="#r" transform="matrix(1,0,0,1,367.4166670222939,424) translate(42.17166666666665 15.999999999999998)"/><use xlink:href="#s" transform="matrix(1,0,0,1,367.4166670222939,424) translate(149.72722222222222 15.999999999999998)"/><use xlink:href="#t" transform="matrix(1,0,0,1,367.4166670222939,424) translate(161.89388888888888 15.999999999999998)"/><use xlink:href="#u" transform="matrix(1,0,0,1,367.4166670222939,424) translate(178.56055555555554 15.999999999999998)"/><path d="M334.53 545a6 6 0 0 1 6-6h238.94a6 6 0 0 1 6 6v28a6 6 0 0 1-6 6H340.53a6 6 0 0 1-6-6z" stroke="#5e5e5e" stroke-width="2" fill="#fff3d9"/><use xlink:href="#v" transform="matrix(1,0,0,1,346.52755941074537,551.0000500000001) translate(16.40123456790124 17.77777777777778)"/><use xlink:href="#w" transform="matrix(1,0,0,1,346.52755941074537,551.0000500000001) translate(119.91975308641976 17.77777777777778)"/><use xlink:href="#x" transform="matrix(1,0,0,1,346.52755941074537,551.0000500000001) translate(179.1172839506173 17.77777777777778)"/><use xlink:href="#y" transform="matrix(1,0,0,1,346.52755941074537,551.0000500000001) translate(198.2530864197531 17.77777777777778)"/><path d="M741 633.04l-.08 1.06-.26 1.06-.42 1.02-.57.94-.72.83-.83.72-.94.57-1.02.42-1.06.26-1.06.08H465.96l-1.06-.08-1.06-.26-1.02-.42-.94-.57-.83-.72-.72-.83-.57-.94-.42-1.02-.26-1.06-.08-1.06V581h2v51.96l.06.82.2.76.3.73.4.67.5.6.6.5.67.4.73.3.76.2.82.06h267.92l.82-.07.76-.18.73-.3.67-.4.6-.52.5-.6.4-.66.3-.73.2-.76.06-.82V442.14h2zm-5.9-361.48l1.06.26 1.02.42.94.57.83.73.72.83.57.94.42 1.02.26 1.06.08 1.06v139.7h-2V278.52l-.07-.82-.18-.76-.3-.73-.4-.66-.52-.6-.6-.5-.66-.4-.73-.3-.76-.2-.82-.06h-57.92v-2h58z" stroke="#5e5e5e" stroke-width=".05" fill="#5e5e5e"/><path d="M461 581.03h-2V580h2z" fill="#5e5e5e"/><path d="M461.02 581.05h-2.04v-1.07h2.04zm-2-1.02v.97h1.96v-.98z" stroke="#5e5e5e" stroke-width=".05" fill="#5e5e5e"/><path d="M675.04 277.12l-14.27-4.64 14.27-4.63z" fill="#5e5e5e"/><path d="M676.04 278.5l-18.5-6.02 18.5-6zM664 272.47l10.04 3.26v-6.52z" stroke="#5e5e5e" stroke-width=".05" fill="#5e5e5e"/><use xlink:href="#z" transform="matrix(1,0,0,1,715.6666666666666,418.13763532324344) translate(0.004999999999999005 15.999999999999998)"/><path d="M191 725.25l.06.82.2.76.3.73.4.67.5.6.6.5.67.4.73.3.76.2.82.06h97.3v2h-97.38l-1.06-.1-1.06-.25-1.02-.42-.94-.57-.83-.72-.72-.83-.57-.93-.42-1-.26-1.08-.08-1.07V446.58h2zm70.47-451.77h-65.43l-.82.06-.76.2-.73.3-.67.4-.6.5-.5.6-.4.67-.3.74-.2.76-.06.82v144.06h-2V278.44l.08-1.06.26-1.06.42-1.02.57-.94.72-.83.83-.7.94-.6 1.02-.4 1.06-.27 1.06-.08h65.5z" stroke="#5e5e5e" stroke-width=".05" fill="#5e5e5e"/><path d="M262.56 271.55l-.1.93.1.93-1.12.08v-2h1.15z" fill="#5e5e5e"/><path d="M262.6 271.56l-.1.92.1.95-1.2.08.02-2.05h1.2zm-1.14-.06v1.95l1.08-.06-.1-.92.1-.93v-.05z" stroke="#5e5e5e" stroke-width=".05" fill="#5e5e5e"/><path d="M308.6 731.3l-14.25 4.63v-9.27z" fill="#5e5e5e"/><path d="M311.85 731.3l-18.5 6v-12.02zm-16.5 3.25l10.03-3.26-10.03-3.27z" stroke="#5e5e5e" stroke-width=".05" fill="#5e5e5e"/><use xlink:href="#A" transform="matrix(1,0,0,1,88.02777777777779,422.5788482108036) translate(0.0049999999999954525 16)"/><use xlink:href="#B" transform="matrix(1,0,0,1,88.02777777777779,422.5788482108036) translate(42.17166666666667 16)"/><use xlink:href="#C" transform="matrix(1,0,0,1,88.02777777777779,422.5788482108036) translate(72.06055555555555 16)"/><use xlink:href="#D" transform="matrix(1,0,0,1,88.02777777777779,422.5788482108036) translate(168.505 16)"/><use xlink:href="#E" transform="matrix(1,0,0,1,88.02777777777779,422.5788482108036) translate(180.67166666666665 16)"/><use xlink:href="#F" transform="matrix(1,0,0,1,88.02777777777779,422.5788482108036) translate(197.3383333333333 16)"/><path d="M454.57 662.56a12.7 12.7 0 0 1 10.86 0l140.1 66.17a2.83 2.83 0 0 1 0 5.12l-140.1 66.17a12.7 12.7 0 0 1-10.86 0l-140.1-66.17a2.83 2.83 0 0 1 0-5.12z" stroke="#5e5e5e" stroke-width="2" fill="#fff0f0"/><use xlink:href="#G" transform="matrix(1,0,0,1,314.0551184658635,665) translate(42.42475308641977 71.80902777777777)"/><use xlink:href="#H" transform="matrix(1,0,0,1,314.0551184658635,665) translate(55.94327160493829 71.80902777777777)"/><use xlink:href="#I" transform="matrix(1,0,0,1,314.0551184658635,665) translate(113.90623456790125 71.80902777777777)"/><use xlink:href="#w" transform="matrix(1,0,0,1,314.0551184658635,665) translate(133.5975925925926 71.80902777777777)"/><use xlink:href="#J" transform="matrix(1,0,0,1,314.0551184658635,665) translate(192.79512345679012 71.80902777777777)"/><use xlink:href="#K" transform="matrix(1,0,0,1,314.0551184658635,665) translate(205.1408024691358 71.80902777777777)"/><use xlink:href="#L" transform="matrix(1,0,0,1,314.0551184658635,665) translate(237.23956790123458 71.80902777777777)"/><path d="M461 907.37h-2v-42.7h2zm0-66.7h-2v-37.43h2z" stroke="#5e5e5e" stroke-width=".05" fill="#5e5e5e"/><path d="M460 802.24l1-.05v1.06h-2v-1.07z" fill="#5e5e5e"/><path d="M460 802.2l1.02-.03v1.12h-2.04v-1.13zm-.98 1.04h1.96v-1.02l-.98.04-.98-.04z" stroke="#5e5e5e" stroke-width=".05" fill="#5e5e5e"/><path d="M460 922.64l-4.63-14.27h9.26z" fill="#5e5e5e"/><path d="M460 925.87l-6-18.5h12zm-3.26-16.5L460 919.4l3.26-10.03z" stroke="#5e5e5e" stroke-width=".05" fill="#5e5e5e"/><use xlink:href="#M" transform="matrix(1,0,0,1,393.5000001188646,840.6666666666667) translate(0.0049999999999954525 16)"/><use xlink:href="#N" transform="matrix(1,0,0,1,393.5000001188646,840.6666666666667) translate(22.227222222222217 16)"/><use xlink:href="#O" transform="matrix(1,0,0,1,393.5000001188646,840.6666666666667) translate(79.89388888888888 16)"/><path d="M220 932.87a6 6 0 0 1 6-6h468a6 6 0 0 1 6 6v28a6 6 0 0 1-6 6H226a6 6 0 0 1-6-6z" stroke="#5e5e5e" stroke-width="2" fill="#fff3d9"/><use xlink:href="#P" transform="matrix(1,0,0,1,231.99999988145754,938.8740655979117) translate(22.913580246913597 17.77777777777778)"/><use xlink:href="#Q" transform="matrix(1,0,0,1,231.99999988145754,938.8740655979117) translate(142.54320987654322 17.77777777777778)"/><use xlink:href="#R" transform="matrix(1,0,0,1,231.99999988145754,938.8740655979117) translate(161.679012345679 17.77777777777778)"/><use xlink:href="#S" transform="matrix(1,0,0,1,231.99999988145754,938.8740655979117) translate(190.01234567901236 17.77777777777778)"/><use xlink:href="#T" transform="matrix(1,0,0,1,231.99999988145754,938.8740655979117) translate(203.53086419753086 17.77777777777778)"/><use xlink:href="#U" transform="matrix(1,0,0,1,231.99999988145754,938.8740655979117) translate(323.1604938271605 17.77777777777778)"/><use xlink:href="#V" transform="matrix(1,0,0,1,231.99999988145754,938.8740655979117) translate(336.679012345679 17.77777777777778)"/><use xlink:href="#w" transform="matrix(1,0,0,1,231.99999988145754,938.8740655979117) translate(349.0246913580247 17.77777777777778)"/><use xlink:href="#J" transform="matrix(1,0,0,1,231.99999988145754,938.8740655979117) translate(408.2222222222222 17.77777777777778)"/><use xlink:href="#W" transform="matrix(1,0,0,1,231.99999988145754,938.8740655979117) translate(420.5679012345679 17.77777777777778)"/><path d="M544.06-100c31.3 0 56.7 13.43 56.7 30s-25.4 30-56.7 30H373.98c-31.3 0-56.7-13.43-56.7-30s25.4-30 56.7-30z" stroke="#5e5e5e" stroke-width="2" fill="#edf5ff"/><g><use xlink:href="#X" transform="matrix(1,0,0,1,322.28445752816424,-95) translate(6.542037037037042 30.27777777777778)"/><use xlink:href="#Y" transform="matrix(1,0,0,1,322.28445752816424,-95) translate(60.73956790123457 30.27777777777778)"/><use xlink:href="#Z" transform="matrix(1,0,0,1,322.28445752816424,-95) translate(123.57907407407407 30.27777777777778)"/><use xlink:href="#aa" transform="matrix(1,0,0,1,322.28445752816424,-95) translate(194.6901851851852 30.27777777777778)"/></g><path d="M460 968.87v64.88" stroke="#5e5e5e" stroke-width="2" fill="none"/><path d="M461 968.9h-2v-1.03h2z" stroke="#5e5e5e" stroke-width=".05" fill="#5e5e5e"/><path d="M460 1049.02l-4.63-14.27h9.26z" stroke="#5e5e5e" stroke-width="2" fill="#5e5e5e"/><path d="M508 1053.25c17.67 0 32 10.88 32 24.3 0 13.4-14.33 24.3-32 24.3h-96c-17.67 0-32-10.9-32-24.3 0-13.42 14.33-24.3 32-24.3z" stroke="#5e5e5e" stroke-width="2" fill="#edf5ff"/><g><use xlink:href="#ab" transform="matrix(1,0,0,1,385.0000003556272,1058.2520184458483) translate(42.967962962962964 25.09027777777778)"/></g><path d="M741 1134.04l-.08 1.06-.26 1.06-.42 1.02-.57.94-.72.83-.83.72-.94.57-1.02.42-1.06.26-1.06.08h-269.4l-.82.07-.76.18-.73.3-.67.4-.6.52-.5.6-.4.66-.3.73-.2.76-.06.82v35.8h-2v-35.88l.08-1.06.26-1.06.42-1.02.57-.94.72-.83.83-.72.94-.57 1.02-.42 1.06-.26 1.06-.08h269.4l.82-.07.76-.18.73-.3.67-.4.6-.52.5-.6.4-.66.3-.73.2-.76.06-.82V863.33h2zm-5.9-403.67l1.06.26 1.02.42.94.58.83.7.72.84.57.94.42 1.03.26 1.07.08 1.05v102.08h-2v-102l-.07-.82-.18-.75-.3-.73-.4-.67-.52-.6-.6-.5-.66-.4-.73-.3-.76-.2-.82-.06h-124.8v-2h124.88z" stroke="#5e5e5e" stroke-width=".05" fill="#5e5e5e"/><path d="M609.17 732.3H608l.05-.15.1-.86-.1-.87-.05-.14h1.17z" fill="#5e5e5e"/><path d="M609.2 732.32h-1.23l.06-.17.1-.86-.1-.86-.06-.17h1.23zm-1.16-2l.04.1.1.87-.1.86-.04.1h1.1v-1.94z" stroke="#5e5e5e" stroke-width=".05" fill="#5e5e5e"/><path d="M458.6 1197.12l-4.64-14.27h9.28z" fill="#5e5e5e"/><path d="M458.6 1200.35l-6-18.5h12zm-3.26-16.5l3.26 10.03 3.26-10.03z" stroke="#5e5e5e" stroke-width=".05" fill="#5e5e5e"/><g><use xlink:href="#ac" transform="matrix(1,0,0,1,655.25,839.3333333333333) translate(0.0049999999999954525 16)"/><use xlink:href="#ad" transform="matrix(1,0,0,1,655.25,839.3333333333333) translate(22.227222222222217 16)"/><use xlink:href="#ae" transform="matrix(1,0,0,1,655.25,839.3333333333333) translate(58.72722222222222 16)"/><use xlink:href="#af" transform="matrix(1,0,0,1,655.25,839.3333333333333) translate(116.39388888888888 16)"/></g><path d="M453.18 1202.57a12.64 12.64 0 0 1 10.84 0l141.5 67.2a2.85 2.85 0 0 1 0 5.14l-141.5 67.2a12.64 12.64 0 0 1-10.84 0l-141.5-67.2a2.85 2.85 0 0 1 0-5.14z" stroke="#5e5e5e" stroke-width="2" fill="#fff0f0"/><g><use xlink:href="#G" transform="matrix(1,0,0,1,311.25457286477297,1205) translate(33.2148765432099 72.62152777777777)"/><use xlink:href="#H" transform="matrix(1,0,0,1,311.25457286477297,1205) translate(46.733395061728416 72.62152777777777)"/><use xlink:href="#I" transform="matrix(1,0,0,1,311.25457286477297,1205) translate(104.69635802469138 72.62152777777777)"/><use xlink:href="#w" transform="matrix(1,0,0,1,311.25457286477297,1205) translate(124.38771604938273 72.62152777777777)"/><use xlink:href="#J" transform="matrix(1,0,0,1,311.25457286477297,1205) translate(183.58524691358025 72.62152777777777)"/><use xlink:href="#K" transform="matrix(1,0,0,1,311.25457286477297,1205) translate(195.93092592592592 72.62152777777777)"/><use xlink:href="#m" transform="matrix(1,0,0,1,311.25457286477297,1205) translate(228.0296913580247 72.62152777777777)"/><use xlink:href="#o" transform="matrix(1,0,0,1,311.25457286477297,1205) translate(242.04203703703706 72.62152777777777)"/><use xlink:href="#ag" transform="matrix(1,0,0,1,311.25457286477297,1205) translate(253.95561728395063 72.62152777777777)"/></g><path d="M459.6 1410h-2v-17.8h2zm0-41.8h-2v-22.88h2z" stroke="#5e5e5e" stroke-width=".05" fill="#5e5e5e"/><path d="M458.6 1344.32l1-.05v1.07h-2v-1.07z" fill="#5e5e5e"/><path d="M458.6 1344.3l1.02-.05v1.12h-2.05v-1.12zm-.98 1.02h1.95v-1.02l-.97.04-.98-.04z" stroke="#5e5e5e" stroke-width=".05" fill="#5e5e5e"/><path d="M458.6 1425.26l-4.64-14.26h9.28z" fill="#5e5e5e"/><path d="M458.6 1428.5l-6-18.5h12zm-3.26-16.5l3.26 10.03 3.26-10.03z" stroke="#5e5e5e" stroke-width=".05" fill="#5e5e5e"/><g><use xlink:href="#ah" transform="matrix(1,0,0,1,441.3775053328597,1368.2127379396634) translate(0.004999999999999005 16)"/></g><path d="M731 1569.37l-.08 1.06-.26 1.06-.42 1-.57.95-.72.83-.83.72-.94.57-1.02.42-1.06.25-1.06.08H509.16v-2h214.8l.82-.06.76-.2.73-.3.67-.4.6-.5.5-.6.4-.67.3-.72.2-.77.06-.8v-178.63h2zm-5.9-297.95l1.06.25 1.02.42.94.57.83.7.72.85.57.93.42 1.02.26 1.07.08 1.06v88.37h-2v-88.3l-.07-.82-.18-.76-.3-.73-.4-.67-.52-.6-.6-.5-.66-.42-.73-.3-.76-.18-.82-.07h-114.8v-2h114.88z" stroke="#5e5e5e" stroke-width=".05" fill="#5e5e5e"/><path d="M609.18 1273.34H608l.06-.14.1-.87-.1-.86-.05-.13h1.18z" fill="#5e5e5e"/><path d="M609.2 1273.36H608l.06-.17.1-.87-.1-.85-.06-.17h1.23zm-1.15-2l.04.1.08.88-.1.86-.03.1h1.1v-1.94z" stroke="#5e5e5e" stroke-width=".05" fill="#5e5e5e"/><path d="M508.16 1579.97l-14.27-4.64 14.26-4.63z" fill="#5e5e5e"/><path d="M509.16 1581.34l-18.5-6 18.5-6.02zm-12.03-6l10.03 3.25v-6.53z" stroke="#5e5e5e" stroke-width=".05" fill="#5e5e5e"/><g><use xlink:href="#ai" transform="matrix(1,0,0,1,716.7222222222222,1366.6666666666667) translate(0.005000000000000782 16)"/></g><path d="M378.6 1435.5a6 6 0 0 1 6-6h148a6 6 0 0 1 6 6v28a6 6 0 0 1-6 6h-148a6 6 0 0 1-6-6z" stroke="#5e5e5e" stroke-width="2" fill="#fff3d9"/><g><use xlink:href="#aj" transform="matrix(1,0,0,1,390.59972755508187,1441.500025125059) translate(21.11111111111113 15.999999999999998)"/><use xlink:href="#ak" transform="matrix(1,0,0,1,390.59972755508187,1441.500025125059) translate(81 15.999999999999998)"/><use xlink:href="#al" transform="matrix(1,0,0,1,390.59972755508187,1441.500025125059) translate(98.22222222222221 15.999999999999998)"/></g><path d="M458.6 1471.5v54.37" stroke="#5e5e5e" stroke-width="2" fill="none"/><path d="M459.6 1471.53h-2v-1.03h2z" stroke="#5e5e5e" stroke-width=".05" fill="#5e5e5e"/><path d="M458.6 1541.13l-4.64-14.26h9.28z" stroke="#5e5e5e" stroke-width="2" fill="#5e5e5e"/><path d="M305.47 1661.33a6 6 0 0 1 6-6h293.48a6 6 0 0 1 6 6V1695a6 6 0 0 1-6 6H311.47a6 6 0 0 1-6-6z" stroke="#5e5e5e" stroke-width="2" fill="#fff3d9"/><g><use xlink:href="#G" transform="matrix(1,0,0,1,317.4724409448816,1667.3306587953584) translate(9.981481481481495 17.77777777777778)"/><use xlink:href="#T" transform="matrix(1,0,0,1,317.4724409448816,1667.3306587953584) translate(23.500000000000014 17.77777777777778)"/><use xlink:href="#I" transform="matrix(1,0,0,1,317.4724409448816,1667.3306587953584) translate(143.12962962962965 17.77777777777778)"/><use xlink:href="#w" transform="matrix(1,0,0,1,317.4724409448816,1667.3306587953584) translate(162.82098765432102 17.77777777777778)"/><use xlink:href="#J" transform="matrix(1,0,0,1,317.4724409448816,1667.3306587953584) translate(222.01851851851853 17.77777777777778)"/><use xlink:href="#Q" transform="matrix(1,0,0,1,317.4724409448816,1667.3306587953584) translate(234.3641975308642 17.77777777777778)"/><use xlink:href="#am" transform="matrix(1,0,0,1,317.4724409448816,1667.3306587953584) translate(253.5 17.77777777777778)"/></g><path d="M489.66 1575.33c0 16.57-13.43 30-30 30s-30-13.43-30-30 13.43-30 30-30 30 13.43 30 30z" stroke="#5e5e5e" stroke-width="2" fill="#fff"/><path d="M459.67 1607.33l.2 28.5" stroke="#5e5e5e" stroke-width="2" fill="none"/><path d="M459.63 1606.33l1.03-.03v1.05h-2v-1.1z" stroke="#5e5e5e" stroke-width=".05" fill="#5e5e5e"/><path d="M459.98 1651.1l-4.74-14.24 9.27-.06z" stroke="#5e5e5e" stroke-width="2" fill="#5e5e5e"/><path d="M458.2 1703v52.83" stroke="#5e5e5e" stroke-width="2" fill="none"/><path d="M459.2 1703.03h-2V1702h2z" stroke="#5e5e5e" stroke-width=".05" fill="#5e5e5e"/><path d="M458.2 1771.1l-4.63-14.27h9.27z" stroke="#5e5e5e" stroke-width="2" fill="#5e5e5e"/><path d="M596.75 1775.33c51 0 92.35 15.22 92.35 34s-41.35 34-92.35 34H319.67c-51 0-92.36-15.22-92.36-34s41.36-34 92.37-34z" stroke="#5e5e5e" stroke-width="2" fill="#edf5ff"/><g><use xlink:href="#P" transform="matrix(1,0,0,1,232.31299227905487,1780.3306587953584) translate(4.677839506172839 32.52777777777778)"/><use xlink:href="#Q" transform="matrix(1,0,0,1,232.31299227905487,1780.3306587953584) translate(124.30746913580246 32.52777777777778)"/><use xlink:href="#R" transform="matrix(1,0,0,1,232.31299227905487,1780.3306587953584) translate(143.44327160493827 32.52777777777778)"/><use xlink:href="#S" transform="matrix(1,0,0,1,232.31299227905487,1780.3306587953584) translate(171.77660493827162 32.52777777777778)"/><use xlink:href="#T" transform="matrix(1,0,0,1,232.31299227905487,1780.3306587953584) translate(185.29512345679015 32.52777777777778)"/><use xlink:href="#U" transform="matrix(1,0,0,1,232.31299227905487,1780.3306587953584) translate(304.92475308641974 32.52777777777778)"/><use xlink:href="#V" transform="matrix(1,0,0,1,232.31299227905487,1780.3306587953584) translate(318.44327160493833 32.52777777777778)"/><use xlink:href="#w" transform="matrix(1,0,0,1,232.31299227905487,1780.3306587953584) translate(330.78895061728394 32.52777777777778)"/><use xlink:href="#x" transform="matrix(1,0,0,1,232.31299227905487,1780.3306587953584) translate(389.9864814814815 32.52777777777778)"/><use xlink:href="#an" transform="matrix(1,0,0,1,232.31299227905487,1780.3306587953584) translate(409.1222839506173 32.52777777777778)"/><use xlink:href="#W" transform="matrix(1,0,0,1,232.31299227905487,1780.3306587953584) translate(433.81364197530866 32.52777777777778)"/></g><defs><path d="M101-234c-31-9-42 10-38 44h38v23H63V0H32v-167H5v-23h27c-7-52 17-82 69-68v24" id="ao"/><path d="M24-231v-30h32v30H24zM24 0v-190h32V0H24" id="ap"/><path d="M117-194c89-4 53 116 60 194h-32v-121c0-31-8-49-39-48C34-167 62-67 57 0H25l-1-190h30c1 10-1 24 2 32 11-22 29-35 61-36" id="aq"/><path d="M85-194c31 0 48 13 60 33l-1-100h32l1 261h-30c-2-10 0-23-3-31C134-8 116 4 85 4 32 4 16-35 15-94c0-66 23-100 70-100zm9 24c-40 0-46 34-46 75 0 40 6 74 45 74 42 0 51-32 51-76 0-42-9-74-50-73" id="ar"/><path d="M-5 72V49h209v23H-5" id="as"/><path d="M96-169c-40 0-48 33-48 73s9 75 48 75c24 0 41-14 43-38l32 2c-6 37-31 61-74 61-59 0-76-41-82-99-10-93 101-131 147-64 4 7 5 14 7 22l-32 3c-4-21-16-35-41-35" id="at"/><path d="M100-194c62-1 85 37 85 99 1 63-27 99-86 99S16-35 15-95c0-66 28-99 85-99zM99-20c44 1 53-31 53-75 0-43-8-75-51-75s-53 32-53 75 10 74 51 75" id="au"/><path d="M210-169c-67 3-38 105-44 169h-31v-121c0-29-5-50-35-48C34-165 62-65 56 0H25l-1-190h30c1 10-1 24 2 32 10-44 99-50 107 0 11-21 27-35 58-36 85-2 47 119 55 194h-31v-121c0-29-5-49-35-48" id="av"/><path d="M141-36C126-15 110 5 73 4 37 3 15-17 15-53c-1-64 63-63 125-63 3-35-9-54-41-54-24 1-41 7-42 31l-33-3c5-37 33-52 76-52 45 0 72 20 72 64v82c-1 20 7 32 28 27v20c-31 9-61-2-59-35zM48-53c0 20 12 33 32 33 41-3 63-29 60-74-43 2-92-5-92 41" id="aw"/><g id="a"><use transform="matrix(0.06049382716049383,0,0,0.06049382716049383,0,0)" xlink:href="#ao"/><use transform="matrix(0.06049382716049383,0,0,0.06049382716049383,6.049382716049383,0)" xlink:href="#ap"/><use transform="matrix(0.06049382716049383,0,0,0.06049382716049383,10.828395061728395,0)" xlink:href="#aq"/><use transform="matrix(0.06049382716049383,0,0,0.06049382716049383,22.92716049382716,0)" xlink:href="#ar"/><use transform="matrix(0.06049382716049383,0,0,0.06049382716049383,35.025925925925925,0)" xlink:href="#as"/><use transform="matrix(0.06049382716049383,0,0,0.06049382716049383,47.12469135802469,0)" xlink:href="#at"/><use transform="matrix(0.06049382716049383,0,0,0.06049382716049383,58.01358024691358,0)" xlink:href="#au"/><use transform="matrix(0.06049382716049383,0,0,0.06049382716049383,70.11234567901235,0)" xlink:href="#av"/><use transform="matrix(0.06049382716049383,0,0,0.06049382716049383,88.2,0)" xlink:href="#av"/><use transform="matrix(0.06049382716049383,0,0,0.06049382716049383,106.28765432098766,0)" xlink:href="#aw"/><use transform="matrix(0.06049382716049383,0,0,0.06049382716049383,118.38641975308641,0)" xlink:href="#aq"/><use transform="matrix(0.06049382716049383,0,0,0.06049382716049383,130.48518518518517,0)" xlink:href="#ar"/></g><path d="M87 75C49 33 22-17 22-94c0-76 28-126 65-167h31c-38 41-64 92-64 168S80 34 118 75H87" id="ax"/><use transform="matrix(0.06049382716049383,0,0,0.06049382716049383,0,0)" xlink:href="#ax" id="b"/><path d="M106-169C34-169 62-67 57 0H25v-261h32l-1 103c12-21 28-36 61-36 89 0 53 116 60 194h-32v-121c2-32-8-49-39-48" id="ay"/><path d="M114-163C36-179 61-72 57 0H25l-1-190h30c1 12-1 29 2 39 6-27 23-49 58-41v29" id="az"/><g id="c"><use transform="matrix(0.06049382716049383,0,0,0.06049382716049383,0,0)" xlink:href="#at"/><use transform="matrix(0.06049382716049383,0,0,0.06049382716049383,10.88888888888889,0)" xlink:href="#ay"/><use transform="matrix(0.06049382716049383,0,0,0.06049382716049383,22.987654320987655,0)" xlink:href="#aw"/><use transform="matrix(0.06049382716049383,0,0,0.06049382716049383,35.08641975308642,0)" xlink:href="#az"/></g><path d="M80-196l47-18 7 23-49 13 32 44-20 13-27-46-27 45-21-12 33-44-49-13 8-23 47 19-2-53h23" id="aA"/><path d="M177-190C167-65 218 103 67 71c-23-6-38-20-44-43l32-5c15 47 100 32 89-28v-30C133-14 115 1 83 1 29 1 15-40 15-95c0-56 16-97 71-98 29-1 48 16 59 35 1-10 0-23 2-32h30zM94-22c36 0 50-32 50-73 0-42-14-75-50-75-39 0-46 34-46 75s6 73 46 73" id="aB"/><path d="M84 4C-5 8 30-112 23-190h32v120c0 31 7 50 39 49 72-2 45-101 50-169h31l1 190h-30c-1-10 1-25-2-33-11 22-28 36-60 37" id="aC"/><path d="M100-194c63 0 86 42 84 106H49c0 40 14 67 53 68 26 1 43-12 49-29l28 8c-11 28-37 45-77 45C44 4 14-33 15-96c1-61 26-98 85-98zm52 81c6-60-76-77-97-28-3 7-6 17-6 28h103" id="aD"/><path d="M59-47c-2 24 18 29 38 22v24C64 9 27 4 27-40v-127H5v-23h24l9-43h21v43h35v23H59v120" id="aE"/><path d="M135-143c-3-34-86-38-87 0 15 53 115 12 119 90S17 21 10-45l28-5c4 36 97 45 98 0-10-56-113-15-118-90-4-57 82-63 122-42 12 7 21 19 24 35" id="aF"/><path d="M68-38c1 34 0 65-14 84H32c9-13 17-26 17-46H33v-38h35" id="aG"/><g id="d"><use transform="matrix(0.06049382716049383,0,0,0.06049382716049383,0,0)" xlink:href="#aA"/><use transform="matrix(0.06049382716049383,0,0,0.06049382716049383,8.469135802469136,0)" xlink:href="#aA"/><use transform="matrix(0.06049382716049383,0,0,0.06049382716049383,16.938271604938272,0)" xlink:href="#aA"/><use transform="matrix(0.06049382716049383,0,0,0.06049382716049383,25.40740740740741,0)" xlink:href="#aw"/><use transform="matrix(0.06049382716049383,0,0,0.06049382716049383,37.50617283950618,0)" xlink:href="#az"/><use transform="matrix(0.06049382716049383,0,0,0.06049382716049383,44.704938271604945,0)" xlink:href="#aB"/><use transform="matrix(0.06049382716049383,0,0,0.06049382716049383,56.80370370370371,0)" xlink:href="#aC"/><use transform="matrix(0.06049382716049383,0,0,0.06049382716049383,68.90246913580248,0)" xlink:href="#av"/><use transform="matrix(0.06049382716049383,0,0,0.06049382716049383,86.99012345679013,0)" xlink:href="#aD"/><use transform="matrix(0.06049382716049383,0,0,0.06049382716049383,99.0888888888889,0)" xlink:href="#aq"/><use transform="matrix(0.06049382716049383,0,0,0.06049382716049383,111.18765432098766,0)" xlink:href="#aE"/><use transform="matrix(0.06049382716049383,0,0,0.06049382716049383,117.23703703703704,0)" xlink:href="#aF"/><use transform="matrix(0.06049382716049383,0,0,0.06049382716049383,128.12592592592594,0)" xlink:href="#aG"/></g><g id="e"><use transform="matrix(0.06049382716049383,0,0,0.06049382716049383,0,0)" xlink:href="#aE"/><use transform="matrix(0.06049382716049383,0,0,0.06049382716049383,6.049382716049383,0)" xlink:href="#as"/><use transform="matrix(0.06049382716049383,0,0,0.06049382716049383,18.14814814814815,0)" xlink:href="#at"/><use transform="matrix(0.06049382716049383,0,0,0.06049382716049383,29.037037037037038,0)" xlink:href="#au"/><use transform="matrix(0.06049382716049383,0,0,0.06049382716049383,41.135802469135804,0)" xlink:href="#av"/><use transform="matrix(0.06049382716049383,0,0,0.06049382716049383,59.22345679012346,0)" xlink:href="#av"/><use transform="matrix(0.06049382716049383,0,0,0.06049382716049383,77.3111111111111,0)" xlink:href="#aw"/><use transform="matrix(0.06049382716049383,0,0,0.06049382716049383,89.40987654320986,0)" xlink:href="#aq"/><use transform="matrix(0.06049382716049383,0,0,0.06049382716049383,101.50864197530862,0)" xlink:href="#ar"/></g><g id="f"><use transform="matrix(0.06049382716049383,0,0,0.06049382716049383,0,0)" xlink:href="#aA"/><use transform="matrix(0.06049382716049383,0,0,0.06049382716049383,8.469135802469136,0)" xlink:href="#at"/><use transform="matrix(0.06049382716049383,0,0,0.06049382716049383,19.358024691358025,0)" xlink:href="#av"/><use transform="matrix(0.06049382716049383,0,0,0.06049382716049383,37.44567901234568,0)" xlink:href="#ar"/></g><path d="M33-261c38 41 65 92 65 168S71 34 33 75H2C39 34 66-17 66-93S39-220 2-261h31" id="aH"/><use transform="matrix(0.06049382716049383,0,0,0.06049382716049383,0,0)" xlink:href="#aH" id="g"/><path fill="#333" d="M87 75C49 33 22-17 22-94c0-76 28-126 65-167h31c-38 41-64 92-64 168S80 34 118 75H87" id="aI"/><path fill="#333" d="M80-196l47-18 7 23-49 13 32 44-20 13-27-46-27 45-21-12 33-44-49-13 8-23 47 19-2-53h23" id="aJ"/><path fill="#333" d="M141-36C126-15 110 5 73 4 37 3 15-17 15-53c-1-64 63-63 125-63 3-35-9-54-41-54-24 1-41 7-42 31l-33-3c5-37 33-52 76-52 45 0 72 20 72 64v82c-1 20 7 32 28 27v20c-31 9-61-2-59-35zM48-53c0 20 12 33 32 33 41-3 63-29 60-74-43 2-92-5-92 41" id="aK"/><path fill="#333" d="M114-163C36-179 61-72 57 0H25l-1-190h30c1 12-1 29 2 39 6-27 23-49 58-41v29" id="aL"/><path fill="#333" d="M177-190C167-65 218 103 67 71c-23-6-38-20-44-43l32-5c15 47 100 32 89-28v-30C133-14 115 1 83 1 29 1 15-40 15-95c0-56 16-97 71-98 29-1 48 16 59 35 1-10 0-23 2-32h30zM94-22c36 0 50-32 50-73 0-42-14-75-50-75-39 0-46 34-46 75s6 73 46 73" id="aM"/><path fill="#333" d="M108 0H70L1-190h34L89-25l56-165h34" id="aN"/><path fill="#333" d="M33-261c38 41 65 92 65 168S71 34 33 75H2C39 34 66-17 66-93S39-220 2-261h31" id="aO"/><path fill="#333" d="M26 75v-336h71v23H56V52h41v23H26" id="aP"/><path fill="#333" d="M24-231v-30h32v30H24zM24 0v-190h32V0H24" id="aQ"/><path fill="#333" d="M117-194c89-4 53 116 60 194h-32v-121c0-31-8-49-39-48C34-167 62-67 57 0H25l-1-190h30c1 10-1 24 2 32 11-22 29-35 61-36" id="aR"/><path fill="#333" d="M85-194c31 0 48 13 60 33l-1-100h32l1 261h-30c-2-10 0-23-3-31C134-8 116 4 85 4 32 4 16-35 15-94c0-66 23-100 70-100zm9 24c-40 0-46 34-46 75 0 40 6 74 45 74 42 0 51-32 51-76 0-42-9-74-50-73" id="aS"/><path fill="#333" d="M100-194c63 0 86 42 84 106H49c0 40 14 67 53 68 26 1 43-12 49-29l28 8c-11 28-37 45-77 45C44 4 14-33 15-96c1-61 26-98 85-98zm52 81c6-60-76-77-97-28-3 7-6 17-6 28h103" id="aT"/><path fill="#333" d="M141 0L90-78 38 0H4l68-98-65-92h35l48 74 47-74h35l-64 92 68 98h-35" id="aU"/><path fill="#333" d="M3 75V52h41v-290H3v-23h71V75H3" id="aV"/><g id="h"><use transform="matrix(0.06172839506172839,0,0,0.06172839506172839,0,0)" xlink:href="#aI"/><use transform="matrix(0.06172839506172839,0,0,0.06172839506172839,7.345679012345679,0)" xlink:href="#aJ"/><use transform="matrix(0.06172839506172839,0,0,0.06172839506172839,15.987654320987653,0)" xlink:href="#aK"/><use transform="matrix(0.06172839506172839,0,0,0.06172839506172839,28.333333333333332,0)" xlink:href="#aL"/><use transform="matrix(0.06172839506172839,0,0,0.06172839506172839,35.67901234567901,0)" xlink:href="#aM"/><use transform="matrix(0.06172839506172839,0,0,0.06172839506172839,48.02469135802469,0)" xlink:href="#aN"/><use transform="matrix(0.06172839506172839,0,0,0.06172839506172839,59.1358024691358,0)" xlink:href="#aO"/><use transform="matrix(0.06172839506172839,0,0,0.06172839506172839,66.48148148148148,0)" xlink:href="#aP"/><use transform="matrix(0.06172839506172839,0,0,0.06172839506172839,72.65432098765432,0)" xlink:href="#aQ"/><use transform="matrix(0.06172839506172839,0,0,0.06172839506172839,77.53086419753086,0)" xlink:href="#aR"/><use transform="matrix(0.06172839506172839,0,0,0.06172839506172839,89.87654320987654,0)" xlink:href="#aS"/><use transform="matrix(0.06172839506172839,0,0,0.06172839506172839,102.22222222222223,0)" xlink:href="#aT"/><use transform="matrix(0.06172839506172839,0,0,0.06172839506172839,114.56790123456791,0)" xlink:href="#aU"/><use transform="matrix(0.06172839506172839,0,0,0.06172839506172839,125.67901234567903,0)" xlink:href="#aV"/></g><path fill="#333" d="M63-70H37l-4-178h34zM33 0v-35h34V0H33" id="aW"/><path fill="#333" d="M18-150v-26h174v26H18zm0 90v-26h174v26H18" id="aX"/><g id="i"><use transform="matrix(0.06172839506172839,0,0,0.06172839506172839,0,0)" xlink:href="#aW"/><use transform="matrix(0.06172839506172839,0,0,0.06172839506172839,6.172839506172839,0)" xlink:href="#aX"/></g><path fill="#333" d="M101-251c68 0 85 55 85 127S166 4 100 4C33 4 14-52 14-124c0-73 17-127 87-127zm-1 229c47 0 54-49 54-102s-4-102-53-102c-51 0-55 48-55 102 0 53 5 102 54 102" id="aY"/><use transform="matrix(0.06172839506172839,0,0,0.06172839506172839,0,0)" xlink:href="#aY" id="j"/><path fill="#333" d="M205 0l-28-72H64L36 0H1l101-248h38L239 0h-34zm-38-99l-47-123c-12 45-31 82-46 123h93" id="aZ"/><path fill="#333" d="M190 0L58-211 59 0H30v-248h39L202-35l-2-213h31V0h-41" id="ba"/><path fill="#333" d="M30-248c118-7 216 8 213 122C240-48 200 0 122 0H30v-248zM63-27c89 8 146-16 146-99s-60-101-146-95v194" id="bb"/><g id="k"><use transform="matrix(0.06172839506172839,0,0,0.06172839506172839,0,0)" xlink:href="#aZ"/><use transform="matrix(0.06172839506172839,0,0,0.06172839506172839,14.814814814814813,0)" xlink:href="#ba"/><use transform="matrix(0.06172839506172839,0,0,0.06172839506172839,30.80246913580247,0)" xlink:href="#bb"/></g><g id="l"><use transform="matrix(0.06172839506172839,0,0,0.06172839506172839,0,0)" xlink:href="#aI"/><use transform="matrix(0.06172839506172839,0,0,0.06172839506172839,7.345679012345679,0)" xlink:href="#aJ"/><use transform="matrix(0.06172839506172839,0,0,0.06172839506172839,15.987654320987653,0)" xlink:href="#aK"/><use transform="matrix(0.06172839506172839,0,0,0.06172839506172839,28.333333333333332,0)" xlink:href="#aL"/><use transform="matrix(0.06172839506172839,0,0,0.06172839506172839,35.67901234567901,0)" xlink:href="#aM"/><use transform="matrix(0.06172839506172839,0,0,0.06172839506172839,48.02469135802469,0)" xlink:href="#aN"/><use transform="matrix(0.06172839506172839,0,0,0.06172839506172839,59.1358024691358,0)" xlink:href="#aO"/><use transform="matrix(0.06172839506172839,0,0,0.06172839506172839,66.48148148148148,0)" xlink:href="#aP"/><use transform="matrix(0.06172839506172839,0,0,0.06172839506172839,72.65432098765432,0)" xlink:href="#aQ"/><use transform="matrix(0.06172839506172839,0,0,0.06172839506172839,77.53086419753086,0)" xlink:href="#aR"/><use transform="matrix(0.06172839506172839,0,0,0.06172839506172839,89.87654320987654,0)" xlink:href="#aS"/><use transform="matrix(0.06172839506172839,0,0,0.06172839506172839,102.22222222222223,0)" xlink:href="#aT"/><use transform="matrix(0.06172839506172839,0,0,0.06172839506172839,114.56790123456791,0)" xlink:href="#aU"/><use transform="matrix(0.06172839506172839,0,0,0.06172839506172839,125.67901234567903,0)" xlink:href="#aV"/></g><path fill="#333" d="M109-170H84l-4-78h32zm-65 0H19l-4-78h33" id="bc"/><use transform="matrix(0.06172839506172839,0,0,0.06172839506172839,0,0)" xlink:href="#bc" id="m"/><path fill="#333" d="M68-36c1 33-1 63-14 82H32c9-13 17-26 17-46H33v-36h35zM33-154v-36h35v36H33" id="bd"/><use transform="matrix(0.06172839506172839,0,0,0.06172839506172839,0,0)" xlink:href="#bd" id="n"/><path fill="#333" d="M32 76v-337h29V76H32" id="be"/><use transform="matrix(0.06172839506172839,0,0,0.06172839506172839,0,0)" xlink:href="#be" id="o"/><use transform="matrix(0.06172839506172839,0,0,0.06172839506172839,0,0)" xlink:href="#bc" id="p"/><path fill="#008a0e" d="M186 0v-106H76V0H24v-248h52v99h110v-99h50V0h-50" id="bf"/><path fill="#008a0e" d="M133-34C117-15 103 5 69 4 32 3 11-16 11-54c-1-60 55-63 116-61 1-26-3-47-28-47-18 1-26 9-28 27l-52-2c7-38 36-58 82-57s74 22 75 68l1 82c-1 14 12 18 25 15v27c-30 8-71 5-69-32zm-48 3c29 0 43-24 42-57-32 0-66-3-65 30 0 17 8 27 23 27" id="bg"/><path fill="#008a0e" d="M137-138c1-29-70-34-71-4 15 46 118 7 119 86 1 83-164 76-172 9l43-7c4 19 20 25 44 25 33 8 57-30 24-41C81-84 22-81 20-136c-2-80 154-74 161-7" id="bh"/><g id="q"><use transform="matrix(0.055555555555555546,0,0,0.055555555555555546,0,0)" xlink:href="#bf"/><use transform="matrix(0.055555555555555546,0,0,0.055555555555555546,14.388888888888886,0)" xlink:href="#bg"/><use transform="matrix(0.055555555555555546,0,0,0.055555555555555546,25.499999999999993,0)" xlink:href="#bh"/></g><path fill="#008a0e" d="M135-150c-39-12-60 13-60 57V0H25l-1-190h47c2 13-1 29 3 40 6-28 27-53 61-41v41" id="bi"/><path fill="#008a0e" d="M195-6C206 82 75 100 31 46c-4-6-6-13-8-21l49-6c3 16 16 24 34 25 40 0 42-37 40-79-11 22-30 35-61 35-53 0-70-43-70-97 0-56 18-96 73-97 30 0 46 14 59 34l2-30h47zm-90-29c32 0 41-27 41-63 0-35-9-62-40-62-32 0-39 29-40 63 0 36 9 62 39 62" id="bj"/><path fill="#008a0e" d="M85 4C-2 5 27-109 22-190h50c7 57-23 150 33 157 60-5 35-97 40-157h50l1 190h-47c-2-12 1-28-3-38-12 25-28 42-61 42" id="bk"/><path fill="#008a0e" d="M220-157c-53 9-28 100-34 157h-49v-107c1-27-5-49-29-50C55-147 81-57 75 0H25l-1-190h47c2 12-1 28 3 38 10-53 101-56 108 0 13-22 24-43 59-42 82 1 51 116 57 194h-49v-107c-1-25-5-48-29-50" id="bl"/><path fill="#008a0e" d="M185-48c-13 30-37 53-82 52C43 2 14-33 14-96s30-98 90-98c62 0 83 45 84 108H66c0 31 8 55 39 56 18 0 30-7 34-22zm-45-69c5-46-57-63-70-21-2 6-4 13-4 21h74" id="bm"/><path fill="#008a0e" d="M135-194c87-1 58 113 63 194h-50c-7-57 23-157-34-157-59 0-34 97-39 157H25l-1-190h47c2 12-1 28 3 38 12-26 28-41 61-42" id="bn"/><path fill="#008a0e" d="M115-3C79 11 28 4 28-45v-112H4v-33h27l15-45h31v45h36v33H77v99c-1 23 16 31 38 25v30" id="bo"/><g id="r"><use transform="matrix(0.055555555555555546,0,0,0.055555555555555546,0,0)" xlink:href="#bg"/><use transform="matrix(0.055555555555555546,0,0,0.055555555555555546,11.111111111111109,0)" xlink:href="#bi"/><use transform="matrix(0.055555555555555546,0,0,0.055555555555555546,18.888888888888886,0)" xlink:href="#bj"/><use transform="matrix(0.055555555555555546,0,0,0.055555555555555546,31.05555555555555,0)" xlink:href="#bk"/><use transform="matrix(0.055555555555555546,0,0,0.055555555555555546,43.222222222222214,0)" xlink:href="#bl"/><use transform="matrix(0.055555555555555546,0,0,0.055555555555555546,60.999999999999986,0)" xlink:href="#bm"/><use transform="matrix(0.055555555555555546,0,0,0.055555555555555546,72.1111111111111,0)" xlink:href="#bn"/><use transform="matrix(0.055555555555555546,0,0,0.055555555555555546,84.27777777777777,0)" xlink:href="#bo"/><use transform="matrix(0.055555555555555546,0,0,0.055555555555555546,90.88888888888889,0)" xlink:href="#bh"/></g><path fill="#008a0e" d="M67-93c0 74 22 123 53 168H70C40 30 18-18 18-93s22-123 52-168h50c-32 44-53 94-53 168" id="bp"/><use transform="matrix(0.055555555555555546,0,0,0.055555555555555546,0,0)" xlink:href="#bp" id="s"/><use transform="matrix(0.055555555555555546,0,0,0.055555555555555546,0,0)" xlink:href="#bh" id="t"/><path fill="#008a0e" d="M102-93c0 74-22 123-52 168H0C30 29 54-18 53-93c0-74-22-123-53-168h50c30 45 52 94 52 168" id="bq"/><use transform="matrix(0.055555555555555546,0,0,0.055555555555555546,0,0)" xlink:href="#bq" id="u"/><path fill="#333" d="M96-169c-40 0-48 33-48 73s9 75 48 75c24 0 41-14 43-38l32 2c-6 37-31 61-74 61-59 0-76-41-82-99-10-93 101-131 147-64 4 7 5 14 7 22l-32 3c-4-21-16-35-41-35" id="br"/><path fill="#333" d="M210-169c-67 3-38 105-44 169h-31v-121c0-29-5-50-35-48C34-165 62-65 56 0H25l-1-190h30c1 10-1 24 2 32 10-44 99-50 107 0 11-21 27-35 58-36 85-2 47 119 55 194h-31v-121c0-29-5-49-35-48" id="bs"/><path fill="#333" d="M59-47c-2 24 18 29 38 22v24C64 9 27 4 27-40v-127H5v-23h24l9-43h21v43h35v23H59v120" id="bt"/><g id="v"><use transform="matrix(0.06172839506172839,0,0,0.06172839506172839,0,0)" xlink:href="#aQ"/><use transform="matrix(0.06172839506172839,0,0,0.06172839506172839,4.876543209876543,0)" xlink:href="#aR"/><use transform="matrix(0.06172839506172839,0,0,0.06172839506172839,17.22222222222222,0)" xlink:href="#br"/><use transform="matrix(0.06172839506172839,0,0,0.06172839506172839,28.333333333333332,0)" xlink:href="#aL"/><use transform="matrix(0.06172839506172839,0,0,0.06172839506172839,35.67901234567901,0)" xlink:href="#aT"/><use transform="matrix(0.06172839506172839,0,0,0.06172839506172839,48.02469135802469,0)" xlink:href="#bs"/><use transform="matrix(0.06172839506172839,0,0,0.06172839506172839,66.48148148148148,0)" xlink:href="#aT"/><use transform="matrix(0.06172839506172839,0,0,0.06172839506172839,78.82716049382717,0)" xlink:href="#aR"/><use transform="matrix(0.06172839506172839,0,0,0.06172839506172839,91.17283950617285,0)" xlink:href="#bt"/></g><g id="w"><use transform="matrix(0.06172839506172839,0,0,0.06172839506172839,0,0)" xlink:href="#aQ"/><use transform="matrix(0.06172839506172839,0,0,0.06172839506172839,4.876543209876543,0)" xlink:href="#aR"/><use transform="matrix(0.06172839506172839,0,0,0.06172839506172839,17.22222222222222,0)" xlink:href="#aS"/><use transform="matrix(0.06172839506172839,0,0,0.06172839506172839,29.5679012345679,0)" xlink:href="#aT"/><use transform="matrix(0.06172839506172839,0,0,0.06172839506172839,41.913580246913575,0)" xlink:href="#aU"/></g><path fill="#333" d="M118-107v75H92v-75H18v-26h74v-75h26v75h74v26h-74" id="bu"/><use transform="matrix(0.06172839506172839,0,0,0.06172839506172839,0,0)" xlink:href="#bu" id="x"/><path fill="#333" d="M27 0v-27h64v-190l-56 39v-29l58-41h29v221h61V0H27" id="bv"/><use transform="matrix(0.06172839506172839,0,0,0.06172839506172839,0,0)" xlink:href="#bv" id="y"/><path fill="#008a0e" d="M24 0v-248h52v208h133V0H24" id="bw"/><path fill="#008a0e" d="M110-194c64 0 96 36 96 99 0 64-35 99-97 99-61 0-95-36-95-99 0-62 34-99 96-99zm-1 164c35 0 45-28 45-65 0-40-10-65-43-65-34 0-45 26-45 65 0 36 10 65 43 65" id="bx"/><path fill="#008a0e" d="M135-194c53 0 70 44 70 98 0 56-19 98-73 100-31 1-45-17-59-34 3 33 2 69 2 105H25l-1-265h48c2 10 0 23 3 31 11-24 29-35 60-35zM114-30c33 0 39-31 40-66 0-38-9-64-40-64-56 0-55 130 0 130" id="by"/><g id="z"><use transform="matrix(0.055555555555555546,0,0,0.055555555555555546,0,0)" xlink:href="#bw"/><use transform="matrix(0.055555555555555546,0,0,0.055555555555555546,12.166666666666664,0)" xlink:href="#bx"/><use transform="matrix(0.055555555555555546,0,0,0.055555555555555546,24.33333333333333,0)" xlink:href="#bx"/><use transform="matrix(0.055555555555555546,0,0,0.055555555555555546,36.49999999999999,0)" xlink:href="#by"/></g><path fill="#e81313" d="M186 0v-106H76V0H24v-248h52v99h110v-99h50V0h-50" id="bz"/><path fill="#e81313" d="M133-34C117-15 103 5 69 4 32 3 11-16 11-54c-1-60 55-63 116-61 1-26-3-47-28-47-18 1-26 9-28 27l-52-2c7-38 36-58 82-57s74 22 75 68l1 82c-1 14 12 18 25 15v27c-30 8-71 5-69-32zm-48 3c29 0 43-24 42-57-32 0-66-3-65 30 0 17 8 27 23 27" id="bA"/><path fill="#e81313" d="M137-138c1-29-70-34-71-4 15 46 118 7 119 86 1 83-164 76-172 9l43-7c4 19 20 25 44 25 33 8 57-30 24-41C81-84 22-81 20-136c-2-80 154-74 161-7" id="bB"/><g id="A"><use transform="matrix(0.05555555555555555,0,0,0.05555555555555555,0,0)" xlink:href="#bz"/><use transform="matrix(0.05555555555555555,0,0,0.05555555555555555,14.388888888888888,0)" xlink:href="#bA"/><use transform="matrix(0.05555555555555555,0,0,0.05555555555555555,25.5,0)" xlink:href="#bB"/></g><path fill="#e81313" d="M135-194c87-1 58 113 63 194h-50c-7-57 23-157-34-157-59 0-34 97-39 157H25l-1-190h47c2 12-1 28 3 38 12-26 28-41 61-42" id="bC"/><path fill="#e81313" d="M110-194c64 0 96 36 96 99 0 64-35 99-97 99-61 0-95-36-95-99 0-62 34-99 96-99zm-1 164c35 0 45-28 45-65 0-40-10-65-43-65-34 0-45 26-45 65 0 36 10 65 43 65" id="bD"/><g id="B"><use transform="matrix(0.05555555555555555,0,0,0.05555555555555555,0,0)" xlink:href="#bC"/><use transform="matrix(0.05555555555555555,0,0,0.05555555555555555,12.166666666666666,0)" xlink:href="#bD"/></g><path fill="#e81313" d="M135-150c-39-12-60 13-60 57V0H25l-1-190h47c2 13-1 29 3 40 6-28 27-53 61-41v41" id="bE"/><path fill="#e81313" d="M195-6C206 82 75 100 31 46c-4-6-6-13-8-21l49-6c3 16 16 24 34 25 40 0 42-37 40-79-11 22-30 35-61 35-53 0-70-43-70-97 0-56 18-96 73-97 30 0 46 14 59 34l2-30h47zm-90-29c32 0 41-27 41-63 0-35-9-62-40-62-32 0-39 29-40 63 0 36 9 62 39 62" id="bF"/><path fill="#e81313" d="M85 4C-2 5 27-109 22-190h50c7 57-23 150 33 157 60-5 35-97 40-157h50l1 190h-47c-2-12 1-28-3-38-12 25-28 42-61 42" id="bG"/><path fill="#e81313" d="M220-157c-53 9-28 100-34 157h-49v-107c1-27-5-49-29-50C55-147 81-57 75 0H25l-1-190h47c2 12-1 28 3 38 10-53 101-56 108 0 13-22 24-43 59-42 82 1 51 116 57 194h-49v-107c-1-25-5-48-29-50" id="bH"/><path fill="#e81313" d="M185-48c-13 30-37 53-82 52C43 2 14-33 14-96s30-98 90-98c62 0 83 45 84 108H66c0 31 8 55 39 56 18 0 30-7 34-22zm-45-69c5-46-57-63-70-21-2 6-4 13-4 21h74" id="bI"/><path fill="#e81313" d="M115-3C79 11 28 4 28-45v-112H4v-33h27l15-45h31v45h36v33H77v99c-1 23 16 31 38 25v30" id="bJ"/><g id="C"><use transform="matrix(0.05555555555555555,0,0,0.05555555555555555,0,0)" xlink:href="#bA"/><use transform="matrix(0.05555555555555555,0,0,0.05555555555555555,11.11111111111111,0)" xlink:href="#bE"/><use transform="matrix(0.05555555555555555,0,0,0.05555555555555555,18.88888888888889,0)" xlink:href="#bF"/><use transform="matrix(0.05555555555555555,0,0,0.05555555555555555,31.05555555555556,0)" xlink:href="#bG"/><use transform="matrix(0.05555555555555555,0,0,0.05555555555555555,43.22222222222222,0)" xlink:href="#bH"/><use transform="matrix(0.05555555555555555,0,0,0.05555555555555555,61,0)" xlink:href="#bI"/><use transform="matrix(0.05555555555555555,0,0,0.05555555555555555,72.11111111111111,0)" xlink:href="#bC"/><use transform="matrix(0.05555555555555555,0,0,0.05555555555555555,84.27777777777779,0)" xlink:href="#bJ"/></g><path fill="#e81313" d="M67-93c0 74 22 123 53 168H70C40 30 18-18 18-93s22-123 52-168h50c-32 44-53 94-53 168" id="bK"/><use transform="matrix(0.05555555555555555,0,0,0.05555555555555555,0,0)" xlink:href="#bK" id="D"/><use transform="matrix(0.05555555555555555,0,0,0.05555555555555555,0,0)" xlink:href="#bB" id="E"/><path fill="#e81313" d="M102-93c0 74-22 123-52 168H0C30 29 54-18 53-93c0-74-22-123-53-168h50c30 45 52 94 52 168" id="bL"/><use transform="matrix(0.05555555555555555,0,0,0.05555555555555555,0,0)" xlink:href="#bL" id="F"/><use transform="matrix(0.06172839506172839,0,0,0.06172839506172839,0,0)" xlink:href="#aI" id="G"/><g id="H"><use transform="matrix(0.06172839506172839,0,0,0.06172839506172839,0,0)" xlink:href="#aJ"/><use transform="matrix(0.06172839506172839,0,0,0.06172839506172839,8.641975308641975,0)" xlink:href="#aK"/><use transform="matrix(0.06172839506172839,0,0,0.06172839506172839,20.98765432098765,0)" xlink:href="#aL"/><use transform="matrix(0.06172839506172839,0,0,0.06172839506172839,28.33333333333333,0)" xlink:href="#aM"/><use transform="matrix(0.06172839506172839,0,0,0.06172839506172839,40.679012345679006,0)" xlink:href="#aN"/></g><g id="I"><use transform="matrix(0.06172839506172839,0,0,0.06172839506172839,0,0)" xlink:href="#aO"/><use transform="matrix(0.06172839506172839,0,0,0.06172839506172839,7.345679012345679,0)" xlink:href="#aP"/></g><use transform="matrix(0.06172839506172839,0,0,0.06172839506172839,0,0)" xlink:href="#aV" id="J"/><g id="K"><use transform="matrix(0.06172839506172839,0,0,0.06172839506172839,0,0)" xlink:href="#aX"/><use transform="matrix(0.06172839506172839,0,0,0.06172839506172839,12.962962962962962,0)" xlink:href="#aX"/></g><use transform="matrix(0.06172839506172839,0,0,0.06172839506172839,0,0)" xlink:href="#aY" id="L"/><path fill="#e81313" d="M24 0v-248h52V0H24" id="bM"/><g id="M"><use transform="matrix(0.05555555555555555,0,0,0.05555555555555555,0,0)" xlink:href="#bM"/><use transform="matrix(0.05555555555555555,0,0,0.05555555555555555,5.555555555555555,0)" xlink:href="#bB"/></g><path fill="#e81313" d="M84 4C32 4 15-41 15-95c0-55 18-99 73-99 29 0 47 12 58 34l2-30h48l-1 265h-49V-32C136-9 114 4 84 4zm21-34c32 0 41-29 41-66 0-36-9-64-40-64-33 0-39 30-40 65 0 43 13 65 39 65" id="bN"/><path fill="#e81313" d="M25 0v-261h50V0H25" id="bO"/><g id="N"><use transform="matrix(0.05555555555555555,0,0,0.05555555555555555,0,0)" xlink:href="#bI"/><use transform="matrix(0.05555555555555555,0,0,0.05555555555555555,11.11111111111111,0)" xlink:href="#bN"/><use transform="matrix(0.05555555555555555,0,0,0.05555555555555555,23.27777777777778,0)" xlink:href="#bG"/><use transform="matrix(0.05555555555555555,0,0,0.05555555555555555,35.44444444444444,0)" xlink:href="#bA"/><use transform="matrix(0.05555555555555555,0,0,0.05555555555555555,46.55555555555556,0)" xlink:href="#bO"/></g><path fill="#e81313" d="M175 0L67-191c6 58 2 128 3 191H24v-248h59L193-55c-6-58-2-129-3-193h46V0h-61" id="bP"/><path fill="#e81313" d="M238-95c0 69-44 99-111 99C63 4 22-25 22-93v-155h51v151c-1 38 19 59 55 60 90 1 49-130 58-211h52v153" id="bQ"/><path fill="#e81313" d="M24 0v-248h52v208h133V0H24" id="bR"/><g id="O"><use transform="matrix(0.05555555555555555,0,0,0.05555555555555555,0,0)" xlink:href="#bP"/><use transform="matrix(0.05555555555555555,0,0,0.05555555555555555,14.388888888888888,0)" xlink:href="#bQ"/><use transform="matrix(0.05555555555555555,0,0,0.05555555555555555,28.777777777777775,0)" xlink:href="#bR"/><use transform="matrix(0.05555555555555555,0,0,0.05555555555555555,40.94444444444444,0)" xlink:href="#bR"/></g><path fill="#333" d="M84 4C-5 8 30-112 23-190h32v120c0 31 7 50 39 49 72-2 45-101 50-169h31l1 190h-30c-1-10 1-25-2-33-11 22-28 36-60 37" id="bS"/><path fill="#333" d="M135-143c-3-34-86-38-87 0 15 53 115 12 119 90S17 21 10-45l28-5c4 36 97 45 98 0-10-56-113-15-118-90-4-57 82-63 122-42 12 7 21 19 24 35" id="bT"/><g id="P"><use transform="matrix(0.06172839506172839,0,0,0.06172839506172839,0,0)" xlink:href="#aJ"/><use transform="matrix(0.06172839506172839,0,0,0.06172839506172839,8.641975308641975,0)" xlink:href="#aK"/><use transform="matrix(0.06172839506172839,0,0,0.06172839506172839,20.98765432098765,0)" xlink:href="#aL"/><use transform="matrix(0.06172839506172839,0,0,0.06172839506172839,28.33333333333333,0)" xlink:href="#aM"/><use transform="matrix(0.06172839506172839,0,0,0.06172839506172839,40.679012345679006,0)" xlink:href="#bS"/><use transform="matrix(0.06172839506172839,0,0,0.06172839506172839,53.02469135802468,0)" xlink:href="#bs"/><use transform="matrix(0.06172839506172839,0,0,0.06172839506172839,71.48148148148147,0)" xlink:href="#aT"/><use transform="matrix(0.06172839506172839,0,0,0.06172839506172839,83.82716049382715,0)" xlink:href="#aR"/><use transform="matrix(0.06172839506172839,0,0,0.06172839506172839,96.17283950617283,0)" xlink:href="#bt"/><use transform="matrix(0.06172839506172839,0,0,0.06172839506172839,102.34567901234567,0)" xlink:href="#bT"/></g><use transform="matrix(0.06172839506172839,0,0,0.06172839506172839,0,0)" xlink:href="#aX" id="Q"/><path fill="#333" d="M234-2c-28 10-62 0-77-18C117 19 8 12 13-65c3-43 29-61 60-76-25-40-17-114 47-108 35 3 59 15 59 50 0 44-40 53-71 69 14 26 32 50 51 72 14-21 24-43 30-72l26 8c-9 33-21 57-38 82 13 13 33 22 57 15v23zM97-151c25-10 52-18 56-48-1-18-13-29-33-29-42 0-39 50-23 77zM42-66c-3 51 71 58 98 28-20-24-41-51-56-80-23 10-40 24-42 52" id="bU"/><g id="R"><use transform="matrix(0.06172839506172839,0,0,0.06172839506172839,0,0)" xlink:href="#bU"/><use transform="matrix(0.06172839506172839,0,0,0.06172839506172839,14.814814814814813,0)" xlink:href="#aI"/></g><use transform="matrix(0.06172839506172839,0,0,0.06172839506172839,0,0)" xlink:href="#aI" id="S"/><g id="T"><use transform="matrix(0.06172839506172839,0,0,0.06172839506172839,0,0)" xlink:href="#aJ"/><use transform="matrix(0.06172839506172839,0,0,0.06172839506172839,8.641975308641975,0)" xlink:href="#aK"/><use transform="matrix(0.06172839506172839,0,0,0.06172839506172839,20.98765432098765,0)" xlink:href="#aL"/><use transform="matrix(0.06172839506172839,0,0,0.06172839506172839,28.33333333333333,0)" xlink:href="#aM"/><use transform="matrix(0.06172839506172839,0,0,0.06172839506172839,40.679012345679006,0)" xlink:href="#bS"/><use transform="matrix(0.06172839506172839,0,0,0.06172839506172839,53.02469135802468,0)" xlink:href="#bs"/><use transform="matrix(0.06172839506172839,0,0,0.06172839506172839,71.48148148148147,0)" xlink:href="#aT"/><use transform="matrix(0.06172839506172839,0,0,0.06172839506172839,83.82716049382715,0)" xlink:href="#aR"/><use transform="matrix(0.06172839506172839,0,0,0.06172839506172839,96.17283950617283,0)" xlink:href="#bt"/><use transform="matrix(0.06172839506172839,0,0,0.06172839506172839,102.34567901234567,0)" xlink:href="#bT"/></g><use transform="matrix(0.06172839506172839,0,0,0.06172839506172839,0,0)" xlink:href="#aO" id="U"/><use transform="matrix(0.06172839506172839,0,0,0.06172839506172839,0,0)" xlink:href="#aP" id="V"/><g id="W"><use transform="matrix(0.06172839506172839,0,0,0.06172839506172839,0,0)" xlink:href="#aO"/><use transform="matrix(0.06172839506172839,0,0,0.06172839506172839,7.345679012345679,0)" xlink:href="#bd"/></g><g id="X"><use transform="matrix(0.06172839506172839,0,0,0.06172839506172839,0,0)" xlink:href="#bs"/><use transform="matrix(0.06172839506172839,0,0,0.06172839506172839,18.456790123456788,0)" xlink:href="#aK"/><use transform="matrix(0.06172839506172839,0,0,0.06172839506172839,30.80246913580247,0)" xlink:href="#aQ"/><use transform="matrix(0.06172839506172839,0,0,0.06172839506172839,35.67901234567901,0)" xlink:href="#aR"/></g><path fill="#333" d="M68-38c1 34 0 65-14 84H32c9-13 17-26 17-46H33v-38h35" id="bV"/><g id="Y"><use transform="matrix(0.06172839506172839,0,0,0.06172839506172839,0,0)" xlink:href="#aI"/><use transform="matrix(0.06172839506172839,0,0,0.06172839506172839,7.345679012345679,0)" xlink:href="#aK"/><use transform="matrix(0.06172839506172839,0,0,0.06172839506172839,19.691358024691358,0)" xlink:href="#aL"/><use transform="matrix(0.06172839506172839,0,0,0.06172839506172839,27.037037037037038,0)" xlink:href="#aM"/><use transform="matrix(0.06172839506172839,0,0,0.06172839506172839,39.382716049382715,0)" xlink:href="#br"/><use transform="matrix(0.06172839506172839,0,0,0.06172839506172839,50.49382716049382,0)" xlink:href="#bV"/></g><g id="Z"><use transform="matrix(0.06172839506172839,0,0,0.06172839506172839,0,0)" xlink:href="#aJ"/><use transform="matrix(0.06172839506172839,0,0,0.06172839506172839,8.641975308641975,0)" xlink:href="#aJ"/><use transform="matrix(0.06172839506172839,0,0,0.06172839506172839,17.28395061728395,0)" xlink:href="#aK"/><use transform="matrix(0.06172839506172839,0,0,0.06172839506172839,29.629629629629626,0)" xlink:href="#aL"/><use transform="matrix(0.06172839506172839,0,0,0.06172839506172839,36.9753086419753,0)" xlink:href="#aM"/><use transform="matrix(0.06172839506172839,0,0,0.06172839506172839,49.32098765432098,0)" xlink:href="#aN"/><use transform="matrix(0.06172839506172839,0,0,0.06172839506172839,58.76543209876543,0)" xlink:href="#bV"/></g><path fill="#333" d="M115-194c55 1 70 41 70 98S169 2 115 4C84 4 66-9 55-30l1 105H24l-1-265h31l2 30c10-21 28-34 59-34zm-8 174c40 0 45-34 45-75s-6-73-45-74c-42 0-51 32-51 76 0 43 10 73 51 73" id="bW"/><g id="aa"><use transform="matrix(0.06172839506172839,0,0,0.06172839506172839,0,0)" xlink:href="#aJ"/><use transform="matrix(0.06172839506172839,0,0,0.06172839506172839,8.641975308641975,0)" xlink:href="#aJ"/><use transform="matrix(0.06172839506172839,0,0,0.06172839506172839,17.28395061728395,0)" xlink:href="#aT"/><use transform="matrix(0.06172839506172839,0,0,0.06172839506172839,29.629629629629626,0)" xlink:href="#aR"/><use transform="matrix(0.06172839506172839,0,0,0.06172839506172839,41.9753086419753,0)" xlink:href="#aN"/><use transform="matrix(0.06172839506172839,0,0,0.06172839506172839,53.08641975308642,0)" xlink:href="#bW"/><use transform="matrix(0.06172839506172839,0,0,0.06172839506172839,65.4320987654321,0)" xlink:href="#aO"/></g><g id="ab"><use transform="matrix(0.06172839506172839,0,0,0.06172839506172839,0,0)" xlink:href="#aL"/><use transform="matrix(0.06172839506172839,0,0,0.06172839506172839,7.345679012345679,0)" xlink:href="#aT"/><use transform="matrix(0.06172839506172839,0,0,0.06172839506172839,19.691358024691358,0)" xlink:href="#bt"/><use transform="matrix(0.06172839506172839,0,0,0.06172839506172839,25.864197530864196,0)" xlink:href="#bS"/><use transform="matrix(0.06172839506172839,0,0,0.06172839506172839,38.20987654320987,0)" xlink:href="#aL"/><use transform="matrix(0.06172839506172839,0,0,0.06172839506172839,45.55555555555555,0)" xlink:href="#aR"/><use transform="matrix(0.06172839506172839,0,0,0.06172839506172839,57.90123456790123,0)" xlink:href="#bd"/></g><path fill="#008a0e" d="M24 0v-248h52V0H24" id="bX"/><g id="ac"><use transform="matrix(0.05555555555555555,0,0,0.05555555555555555,0,0)" xlink:href="#bX"/><use transform="matrix(0.05555555555555555,0,0,0.05555555555555555,5.555555555555555,0)" xlink:href="#bh"/></g><g id="ad"><use transform="matrix(0.05555555555555555,0,0,0.05555555555555555,0,0)" xlink:href="#bn"/><use transform="matrix(0.05555555555555555,0,0,0.05555555555555555,12.166666666666666,0)" xlink:href="#bx"/><use transform="matrix(0.05555555555555555,0,0,0.05555555555555555,24.333333333333332,0)" xlink:href="#bo"/></g><path fill="#008a0e" d="M84 4C32 4 15-41 15-95c0-55 18-99 73-99 29 0 47 12 58 34l2-30h48l-1 265h-49V-32C136-9 114 4 84 4zm21-34c32 0 41-29 41-66 0-36-9-64-40-64-33 0-39 30-40 65 0 43 13 65 39 65" id="bY"/><path fill="#008a0e" d="M25 0v-261h50V0H25" id="bZ"/><g id="ae"><use transform="matrix(0.05555555555555555,0,0,0.05555555555555555,0,0)" xlink:href="#bm"/><use transform="matrix(0.05555555555555555,0,0,0.05555555555555555,11.11111111111111,0)" xlink:href="#bY"/><use transform="matrix(0.05555555555555555,0,0,0.05555555555555555,23.27777777777778,0)" xlink:href="#bk"/><use transform="matrix(0.05555555555555555,0,0,0.05555555555555555,35.44444444444444,0)" xlink:href="#bg"/><use transform="matrix(0.05555555555555555,0,0,0.05555555555555555,46.55555555555556,0)" xlink:href="#bZ"/></g><path fill="#008a0e" d="M175 0L67-191c6 58 2 128 3 191H24v-248h59L193-55c-6-58-2-129-3-193h46V0h-61" id="ca"/><path fill="#008a0e" d="M238-95c0 69-44 99-111 99C63 4 22-25 22-93v-155h51v151c-1 38 19 59 55 60 90 1 49-130 58-211h52v153" id="cb"/><g id="af"><use transform="matrix(0.05555555555555555,0,0,0.05555555555555555,0,0)" xlink:href="#ca"/><use transform="matrix(0.05555555555555555,0,0,0.05555555555555555,14.388888888888888,0)" xlink:href="#cb"/><use transform="matrix(0.05555555555555555,0,0,0.05555555555555555,28.777777777777775,0)" xlink:href="#bw"/><use transform="matrix(0.05555555555555555,0,0,0.05555555555555555,40.94444444444444,0)" xlink:href="#bw"/></g><use transform="matrix(0.06172839506172839,0,0,0.06172839506172839,0,0)" xlink:href="#bc" id="ag"/><path fill="#008a0e" d="M146-102V0H94v-102L6-248h54l60 105 60-105h54" id="cc"/><g id="ah"><use transform="matrix(0.05555555555555555,0,0,0.05555555555555555,0,0)" xlink:href="#cc"/><use transform="matrix(0.05555555555555555,0,0,0.05555555555555555,12.222222222222221,0)" xlink:href="#bm"/><use transform="matrix(0.05555555555555555,0,0,0.05555555555555555,23.333333333333332,0)" xlink:href="#bh"/></g><g id="ai"><use transform="matrix(0.05555555555555555,0,0,0.05555555555555555,0,0)" xlink:href="#bP"/><use transform="matrix(0.05555555555555555,0,0,0.05555555555555555,14.388888888888888,0)" xlink:href="#bD"/></g><path fill="#333" d="M30-248c87 1 191-15 191 75 0 78-77 80-158 76V0H30v-248zm33 125c57 0 124 11 124-50 0-59-68-47-124-48v98" id="cd"/><g id="aj"><use transform="matrix(0.055555555555555546,0,0,0.055555555555555546,0,0)" xlink:href="#aQ"/><use transform="matrix(0.055555555555555546,0,0,0.055555555555555546,4.388888888888888,0)" xlink:href="#bT"/><use transform="matrix(0.055555555555555546,0,0,0.055555555555555546,14.388888888888886,0)" xlink:href="#cd"/><use transform="matrix(0.055555555555555546,0,0,0.055555555555555546,27.722222222222214,0)" xlink:href="#aQ"/><use transform="matrix(0.055555555555555546,0,0,0.055555555555555546,32.1111111111111,0)" xlink:href="#bW"/><use transform="matrix(0.055555555555555546,0,0,0.055555555555555546,43.22222222222221,0)" xlink:href="#aT"/></g><use transform="matrix(0.055555555555555546,0,0,0.055555555555555546,0,0)" xlink:href="#aX" id="ak"/><g id="al"><use transform="matrix(0.055555555555555546,0,0,0.055555555555555546,0,0)" xlink:href="#bv"/><use transform="matrix(0.055555555555555546,0,0,0.055555555555555546,11.111111111111109,0)" xlink:href="#bd"/></g><g id="am"><use transform="matrix(0.06172839506172839,0,0,0.06172839506172839,0,0)" xlink:href="#aY"/><use transform="matrix(0.06172839506172839,0,0,0.06172839506172839,12.345679012345679,0)" xlink:href="#bd"/></g><g id="an"><use transform="matrix(0.06172839506172839,0,0,0.06172839506172839,0,0)" xlink:href="#bv"/><use transform="matrix(0.06172839506172839,0,0,0.06172839506172839,12.345679012345679,0)" xlink:href="#aV"/></g></defs></g></svg>